<svg width="245" height="330" viewBox="0 0 245 330" fill="none" xmlns="http://www.w3.org/2000/svg">
<path d="M120.186 28.4604C73.432 52.4937 86.5826 100.616 99.1168 121.158C106.172 121.624 121.662 124.21 127.183 130.825C112.196 112.666 89.9541 67.7745 120.89 33.479C124.403 28.8646 136.816 19.4175 158.361 18.5449C143.636 18.7249 129.612 23.45 120.186 28.4604Z" fill="#2E2F31" fill-opacity="0.08"/>
<path d="M236.177 233.358C241.123 235.16 261.761 231.558 271.462 229.531C248.351 232.773 235.248 227.622 231.584 224.641L236.177 233.358Z" fill="#2E2F31" fill-opacity="0.08"/>
<path d="M128.264 312.902C133.106 322.507 145.864 330.111 151.638 332.713C175.798 339.676 195.104 337.803 209.524 332.516C146.396 342.319 135.202 295.036 137.496 270.168C130.615 287.309 128.474 305.799 128.264 312.902Z" fill="#2E2F31" fill-opacity="0.08"/>
<path d="M45.1066 237.947C59.7118 252.374 84.8816 248.926 95.5001 245.73C82.4187 245.901 53.6918 240.737 43.2013 210.131C33.6496 182.265 33.6414 166.29 42.7279 148.04C51.8145 129.791 71.9755 121.644 90.0751 120.765C68.8469 121.034 35.7803 129.077 23.66 160.701C15.0941 195.727 26.85 219.914 45.1066 237.947Z" fill="#2E2F31" fill-opacity="0.08"/>
<path d="M85.1781 346.53C89.1444 347.222 94.5989 346.956 107.013 345.589C101.036 345.096 88.7155 341.316 87.2472 330.139C85.4119 316.168 96.9423 263.127 112.798 241.806C109.147 243.067 100.577 245.617 95.5001 245.73C92.7075 251.031 86.3269 263.617 84.272 268.898C81.7033 275.499 69.2568 310.446 70.4929 326.374C71.7289 342.301 81.2118 345.839 85.1781 346.53Z" fill="#2E2F31" fill-opacity="0.08"/>
<path d="M309.226 164.197C307.496 150.086 297.312 119.313 268.161 109.923C259.948 107.277 251.833 107.272 244.403 108.718C243.114 109.009 241.568 109.374 239.865 109.796C228.245 113.055 218.768 119.518 213.972 124.016C214.665 121.976 215.282 119.93 215.829 117.889C222.139 94.3297 219.105 71.2673 216.05 62.3157C203.9 28.1398 180.348 18.276 158.361 18.5449C136.816 19.4175 124.403 28.8646 120.89 33.479C89.9541 67.7745 112.196 112.666 127.183 130.825C121.662 124.21 106.172 121.624 99.1168 121.158C96.4841 120.874 93.4272 120.723 90.0751 120.765C71.9755 121.644 51.8145 129.791 42.7279 148.04C33.6414 166.29 33.6496 182.265 43.2013 210.131C53.6918 240.737 82.4187 245.901 95.5001 245.73C100.577 245.617 109.147 243.067 112.798 241.806C96.9423 263.127 85.4119 316.168 87.2472 330.139C88.7155 341.316 101.036 345.096 107.013 345.589C116.945 344.495 124.009 338.919 126.3 336.268C130.324 332.209 130.339 326.507 129.844 324.163L128.264 312.902C128.474 305.799 130.615 287.309 137.496 270.168C135.202 295.036 146.396 342.319 209.524 332.516C224.729 326.94 234.5 317.566 238.797 310.75C257.969 288.689 245.038 249.963 236.177 233.358L231.584 224.641C235.248 227.622 248.351 232.773 271.462 229.531C312.895 220.598 310.956 178.308 309.226 164.197Z" fill="#3E3E3E" fill-opacity="0.08"/>
<path d="M157.897 158.468C144.9 145.896 111.328 122.789 81.0181 130.936C43.1303 141.119 39.5165 174.078 49.288 201.913C59.0595 229.749 86.4454 239.012 102.311 234.665C118.176 230.317 146.36 221.246 169.846 189.368C172.577 186.296 176.518 178.21 170.435 170.439C168.939 168.527 159.542 159.22 157.897 158.468Z" fill="#6E6E6E" fill-opacity="0.08"/>
<path d="M147.077 221.02C143.39 222.91 134.66 227.705 129.238 231.761C118.089 248.968 95.9145 291.204 96.4093 322.488C95.6689 327.293 97.1738 336.834 109.117 336.557C113.115 336.287 121.541 334.015 123.265 327.083C119.9 316.738 118.345 287.209 139.046 251.853C140.968 243.013 145.264 224.47 147.077 221.02Z" fill="#6E6E6E" fill-opacity="0.08"/>
<path d="M170.958 191.958C163.384 198.762 147.562 221.277 144.872 256.902C141.509 301.433 162.798 316.17 167.318 319.03C171.838 321.891 221.118 341.313 238.567 291.311C241.744 281.629 241.513 252.704 215.179 214.461C208.897 205.566 193.624 187.505 182.789 186.429C180.575 186.074 175.111 186.683 170.958 191.958Z" fill="#6E6E6E" fill-opacity="0.08"/>
<path d="M137.841 132.949C121.92 108.722 98.7374 55.284 133.384 35.3457C168.031 15.4074 192.558 36.3217 200.491 49.2712C206.884 58.0682 216.177 87.0609 202.204 132.656C197.573 143.832 186.146 166.412 177.488 167.327C166.664 168.471 144.919 144.937 137.841 132.949Z" fill="#6E6E6E" fill-opacity="0.08"/>
<path d="M193.373 155.114C204.671 141.047 234.282 113.977 262.338 118.229C297.407 123.543 301.99 164.214 302.288 170.787C302.586 177.361 304.807 211.872 269.18 219.491C233.554 227.111 196.233 192.406 189.452 184.995C182.671 177.584 184.295 171.365 185.858 168.275C187.422 165.185 191.021 157.92 193.373 155.114Z" fill="#2D2E2E" fill-opacity="0.08"/>
</svg>
