<svg width="190" height="160" viewBox="0 0 190 160" fill="none" xmlns="http://www.w3.org/2000/svg">
<g clip-path="url(#clip0_1631_5582)">
<path fill-rule="evenodd" clip-rule="evenodd" d="M69.3672 52.8537C82.013 55.3088 85.9885 69.766 96.1438 77.2838C109.339 87.0519 131.749 87.3551 136.476 102.533C141.578 118.918 133.446 139.261 118.407 148.774C104.247 157.731 86.4156 145.22 69.3672 144.98C52.8512 144.748 34.1094 157.769 21.7697 147.415C9.42386 137.056 17.4847 118.068 18.7794 102.533C19.9157 88.8984 18.66 74.056 28.7055 64.1909C38.8821 54.1971 54.9758 50.0597 69.3672 52.8537Z" fill="#29144B" fill-opacity="0.7"/>
<path fill-rule="evenodd" clip-rule="evenodd" d="M134.424 5.69876C145.915 11.5207 145.782 26.5139 153.493 36.5238C163.511 49.5299 184.983 55.9542 185.376 71.8459C185.8 89.0018 172.411 106.344 155.342 111.378C139.272 116.117 125.545 99.2045 109.213 94.3085C93.3912 89.5654 71.8015 96.9607 62.7662 83.6252C53.7264 70.283 66.6755 54.2262 72.1721 39.6382C76.996 26.8351 79.8499 12.2156 92.2115 5.47611C104.734 -1.35139 121.346 -0.926831 134.424 5.69876Z" fill="#29144B" fill-opacity="0.7"/>
<rect x="95" y="28" width="70" height="104" fill="#5933A9" stroke="#AE7EFF" stroke-width="2" stroke-linejoin="bevel"/>
<path d="M25 28H95V132H25V28Z" fill="#5933A9" stroke="#AE7EFF" stroke-width="2" stroke-linejoin="bevel"/>
<path d="M32 124H38" stroke="#AE7EFF" stroke-width="2"/>
<path d="M102 124H108" stroke="#AE7EFF" stroke-width="2"/>
<path d="M41 124H47" stroke="#AE7EFF" stroke-width="2"/>
<path d="M111 124H117" stroke="#AE7EFF" stroke-width="2"/>
<path d="M59 124H87" stroke="#AE7EFF" stroke-width="2"/>
<path d="M129 124H157" stroke="#AE7EFF" stroke-width="2"/>
<rect x="102" y="38" width="55" height="25" stroke="#AE7EFF" stroke-width="2"/>
<path d="M109 44H150" stroke="#AE7EFF" stroke-width="2"/>
<path d="M109 50H150" stroke="#AE7EFF" stroke-width="2"/>
<path d="M109 57H150" stroke="#AE7EFF" stroke-width="2"/>
<rect x="32.4121" y="38" width="54.3529" height="24.7059" stroke="#AE7EFF" stroke-width="2"/>
<path d="M38.5879 44.1768H80.1761" stroke="#AE7EFF" stroke-width="2"/>
<path d="M38.5879 50.3525H80.1761" stroke="#AE7EFF" stroke-width="2"/>
<path d="M38.5879 56.9414H80.1761" stroke="#AE7EFF" stroke-width="2"/>
<rect x="32.4121" y="81.6475" width="54.3529" height="24.7059" stroke="#AE7EFF" stroke-width="2"/>
<path d="M38.5879 87.8242H80.1761" stroke="#AE7EFF" stroke-width="2"/>
<path d="M38.5879 94H80.1761" stroke="#AE7EFF" stroke-width="2"/>
<path d="M38.5879 100.589H80.1761" stroke="#AE7EFF" stroke-width="2"/>
<path fill-rule="evenodd" clip-rule="evenodd" d="M83.0585 71.7644C88.2889 71.7644 92.5291 67.5243 92.5291 62.2938C92.5291 57.0634 88.2889 52.8232 83.0585 52.8232C77.828 52.8232 73.5879 57.0634 73.5879 62.2938C73.5879 67.5243 77.828 71.7644 83.0585 71.7644ZM83.0585 68.4703C86.4696 68.4703 89.2349 65.705 89.2349 62.2938C89.2349 58.8827 86.4696 56.1174 83.0585 56.1174C79.6473 56.1174 76.882 58.8827 76.882 62.2938C76.882 65.705 79.6473 68.4703 83.0585 68.4703Z" fill="#230D64"/>
<path d="M91.5291 62.2938C91.5291 66.972 87.7367 70.7644 83.0585 70.7644V72.7644C88.8412 72.7644 93.5291 68.0766 93.5291 62.2938H91.5291ZM83.0585 53.8232C87.7367 53.8232 91.5291 57.6157 91.5291 62.2938H93.5291C93.5291 56.5111 88.8412 51.8232 83.0585 51.8232V53.8232ZM74.5879 62.2938C74.5879 57.6157 78.3803 53.8232 83.0585 53.8232V51.8232C77.2757 51.8232 72.5879 56.5111 72.5879 62.2938H74.5879ZM83.0585 70.7644C78.3803 70.7644 74.5879 66.972 74.5879 62.2938H72.5879C72.5879 68.0766 77.2757 72.7644 83.0585 72.7644V70.7644ZM88.2349 62.2938C88.2349 65.1527 85.9174 67.4703 83.0585 67.4703V69.4703C87.0219 69.4703 90.2349 66.2573 90.2349 62.2938H88.2349ZM83.0585 57.1174C85.9174 57.1174 88.2349 59.4349 88.2349 62.2938H90.2349C90.2349 58.3304 87.0219 55.1174 83.0585 55.1174V57.1174ZM77.882 62.2938C77.882 59.4349 80.1996 57.1174 83.0585 57.1174V55.1174C79.095 55.1174 75.882 58.3304 75.882 62.2938H77.882ZM83.0585 67.4703C80.1996 67.4703 77.882 65.1527 77.882 62.2938H75.882C75.882 66.2573 79.095 69.4703 83.0585 69.4703V67.4703Z" fill="#AE7EFF"/>
<path fill-rule="evenodd" clip-rule="evenodd" d="M83.0585 113.764C88.2889 113.764 92.5291 109.524 92.5291 104.294C92.5291 99.0634 88.2889 94.8232 83.0585 94.8232C77.828 94.8232 73.5879 99.0634 73.5879 104.294C73.5879 109.524 77.828 113.764 83.0585 113.764ZM83.0585 110.47C86.4696 110.47 89.2349 107.705 89.2349 104.294C89.2349 100.883 86.4696 98.1174 83.0585 98.1174C79.6473 98.1174 76.882 100.883 76.882 104.294C76.882 107.705 79.6473 110.47 83.0585 110.47Z" fill="#230D64"/>
<path d="M91.5291 104.294C91.5291 108.972 87.7367 112.764 83.0585 112.764V114.764C88.8412 114.764 93.5291 110.077 93.5291 104.294H91.5291ZM83.0585 95.8232C87.7367 95.8232 91.5291 99.6157 91.5291 104.294H93.5291C93.5291 98.5111 88.8412 93.8232 83.0585 93.8232V95.8232ZM74.5879 104.294C74.5879 99.6157 78.3803 95.8232 83.0585 95.8232V93.8232C77.2757 93.8232 72.5879 98.5111 72.5879 104.294H74.5879ZM83.0585 112.764C78.3803 112.764 74.5879 108.972 74.5879 104.294H72.5879C72.5879 110.077 77.2757 114.764 83.0585 114.764V112.764ZM88.2349 104.294C88.2349 107.153 85.9174 109.47 83.0585 109.47V111.47C87.0219 111.47 90.2349 108.257 90.2349 104.294H88.2349ZM83.0585 99.1174C85.9174 99.1174 88.2349 101.435 88.2349 104.294H90.2349C90.2349 100.33 87.0219 97.1174 83.0585 97.1174V99.1174ZM77.882 104.294C77.882 101.435 80.1996 99.1174 83.0585 99.1174V97.1174C79.095 97.1174 75.882 100.33 75.882 104.294H77.882ZM83.0585 109.47C80.1996 109.47 77.882 107.153 77.882 104.294H75.882C75.882 108.257 79.095 111.47 83.0585 111.47V109.47Z" fill="#AE7EFF"/>
<circle cx="164" cy="65" r="24" fill="#050022" stroke="#AE7EFF" stroke-width="2"/>
<path d="M150 57H157L162.5 53H167.25L172 57H178V76H150V57Z" stroke="#AE7EFF" stroke-width="2"/>
<circle cx="164.5" cy="66.5" r="5.5" stroke="#AE7EFF" stroke-width="2"/>
<path d="M21 22.5H63" stroke="#AE7EFF" stroke-width="2"/>
<path d="M103 142.5H145" stroke="#AE7EFF" stroke-width="2"/>
<path d="M35 18H77" stroke="#AE7EFF" stroke-width="2"/>
<path d="M117 138H159" stroke="#AE7EFF" stroke-width="2"/>
</g>
<defs>
<clipPath id="clip0_1631_5582">
<rect width="190" height="160" fill="white"/>
</clipPath>
</defs>
</svg>
