<svg width="190" height="160" viewBox="0 0 190 160" fill="none" xmlns="http://www.w3.org/2000/svg">
<g clip-path="url(#clip0_1631_5182)">
<path fill-rule="evenodd" clip-rule="evenodd" d="M69.3672 52.8537C82.013 55.3088 85.9885 69.766 96.1438 77.2838C109.339 87.0519 131.749 87.3551 136.476 102.533C141.578 118.918 133.446 139.261 118.407 148.774C104.247 157.731 86.4156 145.22 69.3672 144.98C52.8512 144.748 34.1094 157.769 21.7697 147.415C9.42386 137.056 17.4847 118.068 18.7794 102.533C19.9157 88.8984 18.66 74.056 28.7055 64.1909C38.8821 54.1971 54.9758 50.0597 69.3672 52.8537Z" fill="#29144B" fill-opacity="0.7"/>
<path fill-rule="evenodd" clip-rule="evenodd" d="M134.424 5.69876C145.915 11.5207 145.782 26.5139 153.493 36.5238C163.511 49.5299 184.983 55.9542 185.376 71.8459C185.8 89.0018 172.411 106.344 155.342 111.378C139.272 116.117 125.545 99.2045 109.213 94.3085C93.3912 89.5654 71.8015 96.9607 62.7662 83.6252C53.7264 70.283 66.6755 54.2262 72.1721 39.6382C76.996 26.8351 79.8499 12.2156 92.2115 5.47611C104.734 -1.35139 121.346 -0.926831 134.424 5.69876Z" fill="#29144B" fill-opacity="0.7"/>
<rect x="54" y="8" width="98" height="72" fill="#5933A9" stroke="#2666ef" stroke-width="2" stroke-linejoin="bevel"/>
<path d="M47.5 56.5V94.5" stroke="#2666ef" stroke-width="2"/>
<path d="M159 99V137" stroke="#2666ef" stroke-width="2"/>
<path d="M164 107V145" stroke="#2666ef" stroke-width="2"/>
<path d="M43 46V84" stroke="#2666ef" stroke-width="2"/>
<path d="M152 80H54V132.851H152V80Z" fill="#5933A9"/>
<path d="M54 152H152V132.851H54V152Z" fill="#1E0E3F"/>
<path d="M54 132.851V152H152V132.851M54 132.851V80H152V132.851M54 132.851H152" stroke="#2666ef" stroke-width="2" stroke-linejoin="bevel"/>
<path d="M95 91H126" stroke="#2666ef" stroke-width="2"/>
<path d="M95 101H126" stroke="#2666ef" stroke-width="2"/>
<path d="M95 112H126" stroke="#2666ef" stroke-width="2"/>
<path d="M64 142H80" stroke="#2666ef" stroke-width="2"/>
<path d="M84 142H101" stroke="#2666ef" stroke-width="2"/>
<path d="M64 18H142" stroke="#2666ef" stroke-width="2"/>
<path d="M64 29H142" stroke="#2666ef" stroke-width="2"/>
<path d="M64 40H94" stroke="#2666ef" stroke-width="2"/>
<path d="M112 40H142" stroke="#2666ef" stroke-width="2"/>
<path d="M106 142H123" stroke="#2666ef" stroke-width="2"/>
<path d="M127 142H144" stroke="#2666ef" stroke-width="2"/>
<path d="M144 87L144 99" stroke="#2666ef" stroke-width="2"/>
<path d="M144 102L144 126" stroke="#2666ef" stroke-width="2"/>
<path fill-rule="evenodd" clip-rule="evenodd" d="M79.8618 101.709C81.6591 100.682 82.8706 98.7476 82.8706 96.5298C82.8706 93.2384 80.2025 90.5703 76.9112 90.5703C73.6199 90.5703 70.9517 93.2384 70.9517 96.5298C70.9517 98.7474 72.1631 100.682 73.9602 101.708C69.4705 102.99 66.1836 107.123 66.1836 112.025H87.6376C87.6376 107.124 84.3511 102.991 79.8618 101.709Z" fill="#230D64"/>
<path d="M79.8618 101.709L79.366 100.84L79.5872 102.67L79.8618 101.709ZM73.9602 101.708L74.2347 102.67L74.4561 100.84L73.9602 101.708ZM66.1836 112.025H65.1836L66.1836 113.025V112.025ZM87.6376 112.025V113.025L88.6376 112.025H87.6376ZM81.8706 96.5298C81.8706 98.3741 80.8643 99.9847 79.366 100.84L80.3576 102.577C82.4539 101.38 83.8706 99.121 83.8706 96.5298H81.8706ZM76.9112 91.5703C79.6502 91.5703 81.8706 93.7907 81.8706 96.5298H83.8706C83.8706 92.6862 80.7548 89.5703 76.9112 89.5703V91.5703ZM71.9517 96.5298C71.9517 93.7907 74.1722 91.5703 76.9112 91.5703V89.5703C73.0676 89.5703 69.9517 92.6862 69.9517 96.5298H71.9517ZM74.4561 100.84C72.9579 99.9845 71.9517 98.374 71.9517 96.5298H69.9517C69.9517 99.1208 71.3682 101.38 73.4643 102.577L74.4561 100.84ZM67.1836 112.025C67.1836 107.582 70.163 103.832 74.2347 102.67L73.6857 100.747C68.778 102.148 65.1836 106.665 65.1836 112.025H67.1836ZM87.6376 111.025H66.1836V113.025H87.6376V111.025ZM79.5872 102.67C83.6586 103.833 86.6376 107.582 86.6376 112.025H88.6376C88.6376 106.665 85.0436 102.148 80.1364 100.747L79.5872 102.67Z" fill="#2666ef"/>
<circle cx="75.5" cy="59.5" r="11.5" fill="#230D64" stroke="#2666ef" stroke-width="2"/>
<circle cx="75.5" cy="59.5" r="7.5" fill="#5933A9" stroke="#2666ef" stroke-width="2"/>
<circle cx="164" cy="65" r="24" fill="#050022" stroke="#2666ef" stroke-width="2"/>
<path d="M108 62.0178C109.614 59.6129 111.168 56.0977 113.56 54.3473C114.956 53.3259 115.515 54.763 115.801 56.0034C116.39 58.5569 115.404 61.2223 115.404 63.7902C115.404 66.7096 117.326 63.5869 118.213 62.3374C119.511 60.5086 120.091 58.9627 120.567 56.7879C120.717 56.102 121.553 53.5076 121.844 55.5967C122.089 57.3533 122.267 59.1975 122.298 60.9718C122.31 61.6613 122.274 63.1822 123.064 63.5287C124.084 63.9765 124.532 60.4417 124.596 60.013C124.697 59.3374 124.785 57.299 124.851 57.9792C124.91 58.5783 124.899 59.1761 125.106 59.7515C125.654 61.268 127.513 59.3797 128.511 59.4029C129.241 59.4199 129.432 60.2174 130.071 60.3907C130.745 60.5735 131.371 60.4021 132 60.1874" stroke="#2666ef" stroke-width="2"/>
<path d="M150 57H157L162.5 53H167.25L172 57H178V76H150V57Z" stroke="#2666ef" stroke-width="2"/>
<circle cx="164.5" cy="66.5" r="5.5" stroke="#2666ef" stroke-width="2"/>
</g>
<defs>
<clipPath id="clip0_1631_5182">
<rect width="190" height="160" fill="white"/>
</clipPath>
</defs>
</svg>
