<svg width="190" height="160" viewBox="0 0 190 160" fill="none" xmlns="http://www.w3.org/2000/svg">
<g clip-path="url(#clip0_1631_5878)">
<path fill-rule="evenodd" clip-rule="evenodd" d="M69.3672 52.8537C82.013 55.3088 85.9885 69.766 96.1438 77.2838C109.339 87.0519 131.749 87.3551 136.476 102.533C141.578 118.918 133.446 139.261 118.407 148.774C104.247 157.731 86.4156 145.22 69.3672 144.98C52.8512 144.748 34.1094 157.769 21.7697 147.415C9.42386 137.056 17.4847 118.068 18.7794 102.533C19.9157 88.8984 18.66 74.056 28.7055 64.1909C38.8821 54.1971 54.9758 50.0597 69.3672 52.8537Z" fill="#29144B" fill-opacity="0.7"/>
<path fill-rule="evenodd" clip-rule="evenodd" d="M134.424 5.69876C145.915 11.5207 145.782 26.5139 153.493 36.5238C163.511 49.5299 184.983 55.9542 185.376 71.8459C185.8 89.0018 172.411 106.344 155.342 111.378C139.272 116.117 125.545 99.2045 109.213 94.3085C93.3912 89.5654 71.8015 96.9607 62.7662 83.6252C53.7264 70.283 66.6755 54.2262 72.1721 39.6382C76.996 26.8351 79.8499 12.2156 92.2115 5.47611C104.734 -1.35139 121.346 -0.926831 134.424 5.69876Z" fill="#29144B" fill-opacity="0.7"/>
<path d="M40.3654 72.5C41.0928 76.7188 41.9159 80 38.3447 80C34.7735 80 32.9399 78.125 31.4744 72.5C29.7154 65.75 33.157 65 36.7281 65C40.2993 65 39.5571 67.8125 40.3654 72.5Z" fill="#5933A9" stroke="#AE7EFF" stroke-width="2"/>
<path d="M91.6346 72.5C90.9072 76.7188 90.0841 80 93.6553 80C97.2265 80 99.0601 78.125 100.526 72.5C102.285 65.75 98.843 65 95.2719 65C91.7007 65 92.4429 67.8125 91.6346 72.5Z" fill="#5933A9" stroke="#AE7EFF" stroke-width="2"/>
<path d="M65.7559 129.23C54.896 129.23 53.0737 118.576 52.7679 115H52.0131L51.5816 115.128C51.267 115.222 50.8051 115.359 50.2162 115.535C49.0383 115.888 47.3522 116.394 45.3195 117.01C41.254 118.241 35.8027 119.912 30.2585 121.666C24.7136 123.42 19.0789 125.258 14.6454 126.824C12.4282 127.608 10.5157 128.322 9.06666 128.923C8.34186 129.223 7.73749 129.494 7.27089 129.729C6.7945 129.969 6.49202 130.158 6.34616 130.289C4.90487 131.59 3.25361 134.136 1.94681 136.399C1.29798 137.522 0.74155 138.563 0.3473 139.322C0.211166 139.584 0.0944402 139.813 0 140C0 140 29.5 155 66.5 155C103.5 155 133 140 133 140C132.918 139.84 132.819 139.65 132.704 139.433C132.334 138.735 131.801 137.768 131.153 136.694C129.853 134.537 128.104 131.979 126.28 130.286C126.084 130.104 125.732 129.873 125.217 129.599C124.708 129.328 124.062 129.027 123.298 128.7C121.769 128.048 119.783 127.301 117.496 126.5C112.925 124.898 107.175 123.085 101.537 121.379C95.9005 119.673 90.3798 118.075 86.268 116.903C84.2121 116.317 82.5087 115.838 81.3193 115.506C80.7246 115.339 80.2584 115.21 79.9409 115.122L79.5021 115H78.7438C78.438 118.576 76.6157 129.23 65.7559 129.23Z" fill="#230D64"/>
<path d="M51.8786 116.083L51.8667 116.087C51.5525 116.18 51.0911 116.318 50.5027 116.494C49.3258 116.845 47.6408 117.351 45.6094 117.967C41.5463 119.198 36.0991 120.867 30.5602 122.619C25.0186 124.373 19.3963 126.206 14.9786 127.767C12.7679 128.548 10.8746 129.255 9.4498 129.846C8.73632 130.142 8.15687 130.402 7.72095 130.622L7.27089 129.729L7.72095 130.622C7.49911 130.734 7.32942 130.828 7.2055 130.904C7.14383 130.941 7.09736 130.972 7.06376 130.996C7.03145 131.019 7.01754 131.031 7.01627 131.032C7.01619 131.032 7.01616 131.032 7.01617 131.032M51.8786 116.083L7.0162 131.032C7.01618 131.032 7.01618 131.032 7.01617 131.032M51.8786 116.083C52.1365 118.09 52.7874 121.183 54.4448 123.968C56.4459 127.33 59.9177 130.23 65.7559 130.23C71.5941 130.23 75.0658 127.33 77.0669 123.968C78.7268 121.179 79.3771 118.081 79.6342 116.074L79.6735 116.085C79.6736 116.085 79.6737 116.085 79.6739 116.085C79.6739 116.085 79.6739 116.085 79.674 116.085C79.9908 116.173 80.4562 116.303 81.0499 116.469C82.238 116.801 83.9399 117.28 85.9939 117.865C90.1026 119.036 95.6178 120.632 101.248 122.336C106.881 124.041 112.614 125.849 117.166 127.444C119.443 128.242 121.406 128.98 122.905 129.62C123.655 129.94 124.273 130.229 124.747 130.481C125.246 130.747 125.503 130.929 125.6 131.019C127.317 132.613 129.007 135.071 130.297 137.21C130.894 138.201 131.392 139.099 131.752 139.773C128.776 142.292 122.338 145.943 112.038 149.042C101.062 152.345 85.7658 155 65.7559 155C45.7455 155 30.7002 152.345 20.0394 149.045C10.0271 145.945 3.94654 142.298 1.22695 139.798C1.22958 139.793 1.23222 139.788 1.23486 139.783L1.1791 139.754L1.23486 139.783C1.62424 139.033 2.17336 138.006 2.81278 136.899C4.12502 134.627 5.70697 132.214 7.01617 131.032M51.8786 116.083L7.01617 131.032" stroke="#AE7EFF" stroke-width="2"/>
<path fill-rule="evenodd" clip-rule="evenodd" d="M52.7992 96.0922L53.6571 108L52 115.666C52 115.666 52 131 66.5 131C76.6464 131 79.6928 123.492 80.6075 118.983C81 117.049 81 115.666 81 115.666L79.3429 108L79.619 104.166L79.6536 103.687L80.2491 95.4219C79.3678 96.2361 78.548 96.9789 77.8555 97.5945C74.5063 100.572 58.1329 99.8273 54.7838 97.5945C54.1997 97.2051 53.525 96.6912 52.7992 96.0922Z" fill="#5933A9"/>
<path d="M53.6571 108L54.6346 108.211L54.6649 108.071L54.6546 107.928L53.6571 108ZM52.7992 96.0922L53.4357 95.3209L51.6339 93.8339L51.8018 96.1641L52.7992 96.0922ZM52 115.666L51.0226 115.455L51 115.559V115.666H52ZM80.6075 118.983L81.5876 119.182V119.182L80.6075 118.983ZM81 115.666L82 115.666V115.559L81.9774 115.455L81 115.666ZM79.3429 108L78.3454 107.928L78.3351 108.071L78.3654 108.211L79.3429 108ZM79.619 104.166L78.6216 104.094V104.094L79.619 104.166ZM79.6536 103.687L80.651 103.759V103.759L79.6536 103.687ZM80.2491 95.4219L81.2465 95.4937L81.4283 92.971L79.5705 94.6874L80.2491 95.4219ZM77.8555 97.5945L78.5198 98.3419L77.8555 97.5945ZM54.7838 97.5945L55.3385 96.7625L54.7838 97.5945ZM79.3429 110.3L78.6637 111.034L80.2449 112.497L80.3418 110.345L79.3429 110.3ZM54.6546 107.928L53.7966 96.0203L51.8018 96.1641L52.6597 108.071L54.6546 107.928ZM52.9774 115.877L54.6346 108.211L52.6797 107.788L51.0226 115.455L52.9774 115.877ZM66.5 130C63.0619 130 60.5486 129.094 58.6934 127.786C56.8291 126.472 55.5689 124.708 54.7165 122.905C53.863 121.1 53.4312 119.282 53.2144 117.906C53.1063 117.221 53.0527 116.652 53.026 116.258C53.0127 116.061 53.0062 115.908 53.003 115.807C53.0014 115.756 53.0007 115.719 53.0003 115.695C53.0001 115.683 53.0001 115.675 53 115.67C53 115.667 53 115.666 53 115.665C53 115.665 53 115.665 53 115.665C53 115.665 53 115.665 53 115.665C53 115.666 53 115.666 52 115.666C51 115.666 51 115.667 51 115.667C51 115.668 51 115.668 51 115.669C51 115.67 51 115.671 51 115.673C51 115.676 51 115.68 51.0001 115.685C51.0002 115.695 51.0003 115.708 51.0006 115.725C51.0011 115.76 51.0021 115.808 51.004 115.87C51.0079 115.993 51.0156 116.17 51.0306 116.392C51.0606 116.837 51.1202 117.466 51.2388 118.218C51.475 119.717 51.9495 121.732 52.9085 123.76C53.8686 125.791 55.3272 127.86 57.541 129.421C59.7639 130.988 62.6881 132 66.5 132V130ZM79.6275 118.784C79.1879 120.951 78.2478 123.764 76.2644 126.022C74.3133 128.243 71.2906 130 66.5 130V132C71.8558 132 75.4295 130.002 77.7669 127.342C80.0719 124.718 81.1125 121.524 81.5876 119.182L79.6275 118.784ZM81 115.666C80 115.666 80 115.666 80 115.666C80 115.666 80 115.666 80 115.666C80 115.666 80 115.665 80 115.665C80 115.665 80 115.665 80 115.665C80 115.665 80 115.665 80 115.666C80 115.667 80 115.669 79.9999 115.673C79.9999 115.681 79.9997 115.693 79.9994 115.711C79.9988 115.746 79.9974 115.801 79.9946 115.874C79.989 116.02 79.9776 116.238 79.9544 116.516C79.908 117.072 79.8147 117.862 79.6275 118.784L81.5876 119.182C81.7929 118.17 81.8958 117.301 81.9475 116.682C81.9733 116.373 81.9865 116.124 81.9931 115.951C81.9965 115.864 81.9982 115.796 81.9991 115.748C81.9995 115.724 81.9997 115.705 81.9999 115.691C81.9999 115.684 82 115.679 82 115.675C82 115.673 82 115.671 82 115.669C82 115.669 82 115.668 82 115.668C82 115.667 82 115.667 82 115.667C82 115.667 82 115.667 82 115.667C82 115.666 82 115.666 81 115.666ZM78.3654 108.211L80.0226 115.877L81.9774 115.455L80.3203 107.788L78.3654 108.211ZM78.6216 104.094L78.3454 107.928L80.3403 108.071L80.6165 104.238L78.6216 104.094ZM78.6562 103.615L78.6216 104.094L80.6165 104.238L80.651 103.759L78.6562 103.615ZM79.2517 95.35L78.6562 103.615L80.651 103.759L81.2465 95.4937L79.2517 95.35ZM79.5705 94.6874C78.6933 95.4978 77.8783 96.2363 77.1911 96.8471L78.5198 98.3419C79.2177 97.7216 80.0423 96.9744 80.9277 96.1564L79.5705 94.6874ZM77.1911 96.8471C76.9163 97.0914 76.4381 97.3522 75.7215 97.5928C75.0183 97.829 74.151 98.0243 73.1578 98.1759C71.1719 98.4788 68.7664 98.5942 66.3385 98.5483C63.9127 98.5026 61.4959 98.2965 59.4924 97.9683C58.4903 97.8041 57.6056 97.6116 56.8819 97.3984C56.1431 97.1808 55.6333 96.959 55.3385 96.7625L54.2291 98.4266C54.7715 98.7882 55.5061 99.0781 56.3168 99.3169C57.1427 99.5602 58.1128 99.7689 59.169 99.9419C61.2821 100.288 63.7959 100.501 66.3008 100.548C68.8035 100.595 71.3286 100.478 73.4594 100.153C74.5245 99.9905 75.5119 99.773 76.3583 99.4888C77.1913 99.209 77.9573 98.8419 78.5198 98.3419L77.1911 96.8471ZM55.3385 96.7625C54.7924 96.3984 54.1463 95.9073 53.4357 95.3209L52.1627 96.8635C52.9037 97.475 53.6069 98.0118 54.2291 98.4266L55.3385 96.7625ZM67.0535 100.291L78.6637 111.034L80.022 109.566L68.4118 98.8227L67.0535 100.291ZM80.3418 110.345L80.618 104.211L78.6201 104.121L78.3439 110.255L80.3418 110.345ZM73.8488 99.6783L78.9744 104.421L80.3327 102.953L75.2071 98.2103L73.8488 99.6783ZM58.1997 99.6118L79.9284 119.717L81.2867 118.249L59.5581 98.1439L58.1997 99.6118Z" fill="#AE7EFF"/>
<path d="M42.8363 31.5195C49.0343 23.7409 57.3873 21 65.9194 21C74.4516 21 82.8046 23.7409 89.0026 31.5195C95.7428 39.9784 93.8426 49.5529 93.4703 58.9453C93.098 68.3377 90.8642 83.7412 89.0026 86.3711C87.1411 89.0009 80.8118 95.0121 77.461 98.0176C74.1102 101.023 57.7286 100.272 54.3779 98.0176C51.0271 95.7635 44.6978 89.3766 42.8363 86.3711C40.9747 83.3655 38.3686 70.2161 38.3686 58.9453C38.3686 47.6744 36.0961 39.9784 42.8363 31.5195Z" fill="#5933A9" stroke="#AE7EFF" stroke-width="2"/>
<path d="M73.3889 15C62.4111 15 52.6296 19.9401 49.1111 22.4101C39.8222 19.8695 31.1667 31.9375 28 38.289L34.3333 57.3437L38.1584 64C38.1584 62.9414 39.6111 48.875 39.6111 48.875C44.8889 45.6992 48.1601 40.1977 51.3267 33.8462C58.4752 44.4 80.0741 51.345 91.3333 52.0507L94.2178 62.8692L96.6111 57.3437L104 34.0547C98.3704 27.7031 84.3667 15 73.3889 15Z" fill="#230D64" stroke="#AE7EFF" stroke-width="2"/>
<path d="M33 23C27.8796 28.0949 25.3753 31.1207 23 37.5L27 48" stroke="#AE7EFF" stroke-width="2"/>
<path d="M91 97L88 99.5V103.5" stroke="#AE7EFF" stroke-width="2"/>
<path d="M22 31.5L18.5 38L20.5 42" stroke="#AE7EFF" stroke-width="2"/>
<path d="M83.5 107L84.5 97.5L92 90.5" stroke="#AE7EFF" stroke-width="2"/>
<rect x="112" y="55" width="64" height="47" fill="#050022" stroke="#AE7EFF" stroke-width="2" stroke-linejoin="bevel"/>
<path d="M112 102H176V136.5V149H112V136.5V102Z" fill="#050022"/>
<path d="M112 136.5V149H176V136.5M112 136.5V102H176V136.5M112 136.5H176" stroke="#AE7EFF" stroke-width="2" stroke-linejoin="bevel"/>
<path d="M139 109H159" stroke="#AE7EFF" stroke-width="2"/>
<path d="M139 116H159" stroke="#AE7EFF" stroke-width="2"/>
<path d="M139 123H159" stroke="#AE7EFF" stroke-width="2"/>
<path d="M118 143H129" stroke="#AE7EFF" stroke-width="2"/>
<path d="M132 143H143" stroke="#AE7EFF" stroke-width="2"/>
<path d="M118 62H170" stroke="#AE7EFF" stroke-width="2"/>
<path d="M118 69H170" stroke="#AE7EFF" stroke-width="2"/>
<path d="M118 76H138" stroke="#AE7EFF" stroke-width="2"/>
<path d="M150 76H170" stroke="#AE7EFF" stroke-width="2"/>
<path d="M146 143H157" stroke="#AE7EFF" stroke-width="2"/>
<path d="M160 143H171" stroke="#AE7EFF" stroke-width="2"/>
<path d="M171 107L171 114" stroke="#AE7EFF" stroke-width="2"/>
<path d="M171 117L171 132" stroke="#AE7EFF" stroke-width="2"/>
<path fill-rule="evenodd" clip-rule="evenodd" d="M128.926 116.268C130.098 115.599 130.889 114.336 130.889 112.889C130.889 110.741 129.148 109 127 109C124.852 109 123.111 110.741 123.111 112.889C123.111 114.336 123.902 115.599 125.074 116.268C122.145 117.105 120 119.802 120 123H134C134 119.802 131.855 117.105 128.926 116.268Z" fill="#050022"/>
<path d="M128.926 116.268L128.43 115.4L128.651 117.23L128.926 116.268ZM125.074 116.268L125.349 117.23L125.57 115.4L125.074 116.268ZM120 123H119L120 124V123ZM134 123V124L135 123H134ZM129.889 112.889C129.889 113.963 129.304 114.901 128.43 115.4L129.422 117.137C130.893 116.296 131.889 114.709 131.889 112.889H129.889ZM127 110C128.595 110 129.889 111.293 129.889 112.889H131.889C131.889 110.189 129.7 108 127 108V110ZM124.111 112.889C124.111 111.293 125.405 110 127 110V108C124.3 108 122.111 110.189 122.111 112.889H124.111ZM125.57 115.4C124.696 114.901 124.111 113.963 124.111 112.889H122.111C122.111 114.709 123.107 116.296 124.578 117.137L125.57 115.4ZM121 123C121 120.26 122.837 117.947 125.349 117.23L124.8 115.307C121.452 116.263 119 119.344 119 123H121ZM134 122H120V124H134V122ZM128.651 117.23C131.163 117.947 133 120.26 133 123H135C135 119.344 132.548 116.263 129.2 115.307L128.651 117.23Z" fill="#AE7EFF"/>
<circle cx="126" cy="89" r="8" fill="#050022" stroke="#AE7EFF" stroke-width="2"/>
<path d="M147.785 90.1028C148.809 88.6132 149.795 86.436 151.312 85.3518C152.198 84.7192 152.553 85.6093 152.734 86.3776C153.107 87.9591 152.482 89.61 152.482 91.2005C152.482 93.0087 153.701 91.0746 154.264 90.3007C155.088 89.168 155.455 88.2105 155.757 86.8635C155.853 86.4387 156.382 84.8318 156.567 86.1256C156.723 87.2137 156.836 88.3559 156.855 89.4549C156.863 89.882 156.84 90.8239 157.341 91.0385C157.988 91.3159 158.272 89.1265 158.313 88.861C158.377 88.4426 158.433 87.1801 158.475 87.6013C158.512 87.9724 158.505 88.3426 158.637 88.6991C158.984 89.6383 160.163 88.4687 160.796 88.4831C161.259 88.4936 161.381 88.9876 161.786 89.095C162.214 89.2081 162.611 89.102 163.01 88.969" stroke="#AE7EFF" stroke-width="2"/>
</g>
<defs>
<clipPath id="clip0_1631_5878">
<rect width="190" height="160" fill="white"/>
</clipPath>
</defs>
</svg>
