<svg width="190" height="160" viewBox="0 0 190 160" fill="none" xmlns="http://www.w3.org/2000/svg">
<g clip-path="url(#clip0_1631_6621)">
<path fill-rule="evenodd" clip-rule="evenodd" d="M69.3672 52.8537C82.013 55.3088 85.9885 69.766 96.1438 77.2838C109.339 87.0519 131.749 87.3551 136.476 102.533C141.578 118.918 133.446 139.261 118.407 148.774C104.247 157.731 86.4156 145.22 69.3672 144.98C52.8512 144.748 34.1094 157.769 21.7697 147.415C9.42386 137.056 17.4847 118.068 18.7794 102.533C19.9157 88.8984 18.66 74.056 28.7055 64.1909C38.8821 54.1971 54.9758 50.0597 69.3672 52.8537Z" fill="#29144B" fill-opacity="0.7"/>
<path fill-rule="evenodd" clip-rule="evenodd" d="M134.424 5.69876C145.915 11.5207 145.782 26.5139 153.493 36.5238C163.511 49.5299 184.983 55.9542 185.376 71.8459C185.8 89.0018 172.411 106.344 155.342 111.378C139.272 116.117 125.545 99.2045 109.213 94.3085C93.3912 89.5654 71.8015 96.9607 62.7662 83.6252C53.7264 70.283 66.6755 54.2262 72.1721 39.6382C76.996 26.8351 79.8499 12.2156 92.2115 5.47611C104.734 -1.35139 121.346 -0.926831 134.424 5.69876Z" fill="#29144B" fill-opacity="0.7"/>
<path d="M70.3654 72.5C71.0928 76.7188 71.9159 80 68.3447 80C64.7735 80 62.9399 78.125 61.4744 72.5C59.7154 65.75 63.157 65 66.7281 65C70.2993 65 69.5571 67.8125 70.3654 72.5Z" fill="#5933A9" stroke="#AE7EFF" stroke-width="2"/>
<path d="M121.635 72.5C120.907 76.7188 120.084 80 123.655 80C127.226 80 129.06 78.125 130.526 72.5C132.285 65.75 128.843 65 125.272 65C121.701 65 122.443 67.8125 121.635 72.5Z" fill="#5933A9" stroke="#AE7EFF" stroke-width="2"/>
<path d="M95.7559 129.23C84.896 129.23 83.0737 118.576 82.7679 115H82.0131L81.5816 115.128C81.267 115.222 80.8051 115.359 80.2162 115.535C79.0383 115.888 77.3522 116.394 75.3195 117.01C71.254 118.241 65.8027 119.912 60.2585 121.666C54.7136 123.42 49.0789 125.258 44.6454 126.824C42.4282 127.608 40.5157 128.322 39.0667 128.923C38.3419 129.223 37.7375 129.494 37.2709 129.729C36.7945 129.969 36.492 130.158 36.3462 130.289C34.9049 131.59 33.2536 134.136 31.9468 136.399C31.298 137.522 30.7415 138.563 30.3473 139.322C30.2112 139.584 30.0944 139.813 30 140C30 140 59.5 155 96.5 155C133.5 155 163 140 163 140C162.918 139.84 162.819 139.65 162.704 139.433C162.334 138.735 161.801 137.768 161.153 136.694C159.853 134.537 158.104 131.979 156.28 130.286C156.084 130.104 155.732 129.873 155.217 129.599C154.708 129.328 154.062 129.027 153.298 128.7C151.769 128.048 149.783 127.301 147.496 126.5C142.925 124.898 137.175 123.085 131.537 121.379C125.9 119.673 120.38 118.075 116.268 116.903C114.212 116.317 112.509 115.838 111.319 115.506C110.725 115.339 110.258 115.21 109.941 115.122L109.502 115H108.744C108.438 118.576 106.616 129.23 95.7559 129.23Z" fill="#230D64"/>
<path d="M81.8786 116.083L81.8667 116.087C81.5525 116.18 81.0911 116.318 80.5027 116.494C79.3258 116.845 77.6408 117.351 75.6094 117.967C71.5463 119.198 66.0991 120.867 60.5602 122.619C55.0186 124.373 49.3963 126.206 44.9786 127.767C42.7679 128.548 40.8746 129.255 39.4498 129.846C38.7363 130.142 38.1569 130.402 37.721 130.622L37.2709 129.729L37.721 130.622C37.4991 130.734 37.3294 130.828 37.2055 130.904C37.1438 130.941 37.0974 130.972 37.0638 130.996C37.0314 131.019 37.0175 131.031 37.0163 131.032C37.0162 131.032 37.0162 131.032 37.0162 131.032M81.8786 116.083L37.0162 131.032C37.0162 131.032 37.0162 131.032 37.0162 131.032M81.8786 116.083C82.1365 118.09 82.7874 121.183 84.4448 123.968C86.4459 127.33 89.9177 130.23 95.7559 130.23C101.594 130.23 105.066 127.33 107.067 123.968C108.727 121.179 109.377 118.081 109.634 116.074L109.673 116.085C109.674 116.085 109.674 116.085 109.674 116.085C109.674 116.085 109.674 116.085 109.674 116.085C109.991 116.173 110.456 116.303 111.05 116.469C112.238 116.801 113.94 117.28 115.994 117.865C120.103 119.036 125.618 120.632 131.248 122.336C136.881 124.041 142.614 125.849 147.166 127.444C149.443 128.242 151.406 128.98 152.905 129.62C153.655 129.94 154.273 130.229 154.747 130.481C155.246 130.747 155.503 130.929 155.6 131.019C157.317 132.613 159.007 135.071 160.297 137.21C160.894 138.201 161.392 139.099 161.752 139.773C158.776 142.292 152.338 145.943 142.038 149.042C131.062 152.345 115.766 155 95.7559 155C75.7455 155 60.7002 152.345 50.0394 149.045C40.0271 145.945 33.9465 142.298 31.227 139.798C31.2296 139.793 31.2322 139.788 31.2349 139.783L31.1791 139.754L31.2349 139.783C31.6242 139.033 32.1734 138.006 32.8128 136.899C34.125 134.627 35.707 132.214 37.0162 131.032M81.8786 116.083L37.0162 131.032" stroke="#AE7EFF" stroke-width="2"/>
<path fill-rule="evenodd" clip-rule="evenodd" d="M82.7992 96.0922L83.6571 108L82 115.666C82 115.666 82 131 96.5 131C106.646 131 109.693 123.492 110.608 118.983C111 117.049 111 115.666 111 115.666L109.343 108L109.619 104.166L109.654 103.687L110.249 95.4219C109.368 96.2361 108.548 96.9789 107.855 97.5945C104.506 100.572 88.1329 99.8273 84.7838 97.5945C84.1997 97.2051 83.525 96.6912 82.7992 96.0922Z" fill="#5933A9"/>
<path d="M83.6571 108L84.6346 108.211L84.6649 108.071L84.6546 107.928L83.6571 108ZM82.7992 96.0922L83.4357 95.3209L81.6339 93.8339L81.8018 96.1641L82.7992 96.0922ZM82 115.666L81.0226 115.455L81 115.559V115.666H82ZM110.608 118.983L111.588 119.182V119.182L110.608 118.983ZM111 115.666L112 115.666V115.559L111.977 115.455L111 115.666ZM109.343 108L108.345 107.928L108.335 108.071L108.365 108.211L109.343 108ZM109.619 104.166L108.622 104.094V104.094L109.619 104.166ZM109.654 103.687L110.651 103.759V103.759L109.654 103.687ZM110.249 95.4219L111.246 95.4937L111.428 92.971L109.57 94.6874L110.249 95.4219ZM107.855 97.5945L108.52 98.3419L107.855 97.5945ZM84.7838 97.5945L85.3385 96.7625L84.7838 97.5945ZM109.343 110.3L108.664 111.034L110.245 112.497L110.342 110.345L109.343 110.3ZM84.6546 107.928L83.7966 96.0203L81.8018 96.1641L82.6597 108.071L84.6546 107.928ZM82.9774 115.877L84.6346 108.211L82.6797 107.788L81.0226 115.455L82.9774 115.877ZM96.5 130C93.0619 130 90.5486 129.094 88.6934 127.786C86.8291 126.472 85.5689 124.708 84.7165 122.905C83.863 121.1 83.4312 119.282 83.2144 117.906C83.1063 117.221 83.0527 116.652 83.026 116.258C83.0127 116.061 83.0062 115.908 83.003 115.807C83.0014 115.756 83.0007 115.719 83.0003 115.695C83.0001 115.683 83.0001 115.675 83 115.67C83 115.667 83 115.666 83 115.665C83 115.665 83 115.665 83 115.665C83 115.665 83 115.665 83 115.665C83 115.666 83 115.666 82 115.666C81 115.666 81 115.667 81 115.667C81 115.668 81 115.668 81 115.669C81 115.67 81 115.671 81 115.673C81 115.676 81 115.68 81.0001 115.685C81.0002 115.695 81.0003 115.708 81.0006 115.725C81.0011 115.76 81.0021 115.808 81.004 115.87C81.0079 115.993 81.0156 116.17 81.0306 116.392C81.0606 116.837 81.1202 117.466 81.2388 118.218C81.475 119.717 81.9495 121.732 82.9085 123.76C83.8686 125.791 85.3272 127.86 87.541 129.421C89.7639 130.988 92.6881 132 96.5 132V130ZM109.627 118.784C109.188 120.951 108.248 123.764 106.264 126.022C104.313 128.243 101.291 130 96.5 130V132C101.856 132 105.429 130.002 107.767 127.342C110.072 124.718 111.112 121.524 111.588 119.182L109.627 118.784ZM111 115.666C110 115.666 110 115.666 110 115.666C110 115.666 110 115.666 110 115.666C110 115.666 110 115.665 110 115.665C110 115.665 110 115.665 110 115.665C110 115.665 110 115.665 110 115.666C110 115.667 110 115.669 110 115.673C110 115.681 110 115.693 109.999 115.711C109.999 115.746 109.997 115.801 109.995 115.874C109.989 116.02 109.978 116.238 109.954 116.516C109.908 117.072 109.815 117.862 109.627 118.784L111.588 119.182C111.793 118.17 111.896 117.301 111.947 116.682C111.973 116.373 111.986 116.124 111.993 115.951C111.996 115.864 111.998 115.796 111.999 115.748C112 115.724 112 115.705 112 115.691C112 115.684 112 115.679 112 115.675C112 115.673 112 115.671 112 115.669C112 115.669 112 115.668 112 115.668C112 115.667 112 115.667 112 115.667C112 115.667 112 115.667 112 115.667C112 115.666 112 115.666 111 115.666ZM108.365 108.211L110.023 115.877L111.977 115.455L110.32 107.788L108.365 108.211ZM108.622 104.094L108.345 107.928L110.34 108.071L110.616 104.238L108.622 104.094ZM108.656 103.615L108.622 104.094L110.616 104.238L110.651 103.759L108.656 103.615ZM109.252 95.35L108.656 103.615L110.651 103.759L111.246 95.4937L109.252 95.35ZM109.57 94.6874C108.693 95.4978 107.878 96.2363 107.191 96.8471L108.52 98.3419C109.218 97.7216 110.042 96.9744 110.928 96.1564L109.57 94.6874ZM107.191 96.8471C106.916 97.0914 106.438 97.3522 105.722 97.5928C105.018 97.829 104.151 98.0243 103.158 98.1759C101.172 98.4788 98.7664 98.5942 96.3385 98.5483C93.9127 98.5026 91.4959 98.2965 89.4924 97.9683C88.4903 97.8041 87.6056 97.6116 86.8819 97.3984C86.1431 97.1808 85.6333 96.959 85.3385 96.7625L84.2291 98.4266C84.7715 98.7882 85.5061 99.0781 86.3168 99.3169C87.1427 99.5602 88.1128 99.7689 89.169 99.9419C91.2821 100.288 93.7959 100.501 96.3008 100.548C98.8035 100.595 101.329 100.478 103.459 100.153C104.524 99.9905 105.512 99.773 106.358 99.4888C107.191 99.209 107.957 98.8419 108.52 98.3419L107.191 96.8471ZM85.3385 96.7625C84.7924 96.3984 84.1463 95.9073 83.4357 95.3209L82.1627 96.8635C82.9037 97.475 83.6069 98.0118 84.2291 98.4266L85.3385 96.7625ZM97.0535 100.291L108.664 111.034L110.022 109.566L98.4118 98.8227L97.0535 100.291ZM110.342 110.345L110.618 104.211L108.62 104.121L108.344 110.255L110.342 110.345ZM103.849 99.6783L108.974 104.421L110.333 102.953L105.207 98.2103L103.849 99.6783ZM88.1997 99.6118L109.928 119.717L111.287 118.249L89.5581 98.1439L88.1997 99.6118Z" fill="#AE7EFF"/>
<path d="M72.8363 31.5195C79.0343 23.7409 87.3873 21 95.9194 21C104.452 21 112.805 23.7409 119.003 31.5195C125.743 39.9784 123.843 49.5529 123.47 58.9453C123.098 68.3377 120.864 83.7412 119.003 86.3711C117.141 89.0009 110.812 95.0121 107.461 98.0176C104.11 101.023 87.7286 100.272 84.3779 98.0176C81.0271 95.7635 74.6978 89.3766 72.8363 86.3711C70.9747 83.3655 68.3686 70.2161 68.3686 58.9453C68.3686 47.6744 66.0961 39.9784 72.8363 31.5195Z" fill="#5933A9" stroke="#AE7EFF" stroke-width="2"/>
<path d="M103.389 15C92.4111 15 82.6296 19.9401 79.1111 22.4101C69.8222 19.8695 61.1667 31.9375 58 38.289L64.3333 57.3437L68.1584 64C68.1584 62.9414 69.6111 48.875 69.6111 48.875C74.8889 45.6992 78.1601 40.1977 81.3267 33.8462C88.4752 44.4 110.074 51.345 121.333 52.0507L124.218 62.8692L126.611 57.3437L134 34.0547C128.37 27.7031 114.367 15 103.389 15Z" fill="#230D64" stroke="#AE7EFF" stroke-width="2"/>
<path d="M63 23C57.8796 28.0949 55.3753 31.1207 53 37.5L57 48" stroke="#AE7EFF" stroke-width="2"/>
<circle cx="139" cy="113" r="28" fill="#3B5964" stroke="#64CB8C" stroke-width="2"/>
<path d="M122.199 115.613L131.799 125.133L155.799 101.333" stroke="#64CB8C" stroke-width="2" stroke-linecap="square" stroke-linejoin="round"/>
</g>
<defs>
<clipPath id="clip0_1631_6621">
<rect width="190" height="160" fill="white"/>
</clipPath>
</defs>
</svg>
