<svg width="30" height="30" viewBox="0 0 30 30" fill="none" xmlns="http://www.w3.org/2000/svg">
<g clip-path="url(#clip0_276_1497)">
<path d="M15 0C17.9667 0 20.8668 0.879735 23.3336 2.52796C25.8003 4.17618 27.7229 6.51886 28.8582 9.25975C29.9935 12.0006 30.2906 15.0166 29.7118 17.9264C29.133 20.8361 27.7044 23.5088 25.6066 25.6066C23.5088 27.7044 20.8361 29.133 17.9264 29.7118C15.0166 30.2906 12.0006 29.9935 9.25975 28.8582C6.51886 27.7229 4.17618 25.8003 2.52796 23.3336C0.879735 20.8668 0 17.9667 0 15C0.00107993 11.0221 1.58178 7.2074 4.39459 4.39459C7.2074 1.58178 11.0221 0.00107993 15 0Z" fill="#F0B90B"/>
<path d="M11.1179 13.3907L13.3871 11.1256L13.8678 10.6449L15.0044 9.51239L18.8664 13.3907L21.1193 11.1256L15.0044 4.99854L8.86914 11.1256L11.1179 13.3907Z" fill="white"/>
<path d="M15.0045 12.7399L12.7461 14.9983L15.0045 17.2567L17.263 14.9983L15.0045 12.7399Z" fill="white"/>
<path d="M18.8664 16.6174L15.0003 20.4835L13.6437 19.1269L13.3952 18.8744L11.1179 16.6174L8.86914 18.8662L15.0044 24.9933L21.1193 18.8662L18.8664 16.6174Z" fill="white"/>
<path d="M7.25844 12.7452L5 15.0037L7.25844 17.2621L9.51688 15.0037L7.25844 12.7452Z" fill="white"/>
<path d="M22.7389 12.7435L20.4805 15.002L22.7389 17.2604L24.9973 15.002L22.7389 12.7435Z" fill="white"/>
</g>
<defs>
<clipPath id="clip0_276_1497">
<rect width="29.9959" height="30" fill="white"/>
</clipPath>
</defs>
</svg>
