<svg width="30" height="30" viewBox="0 0 30 30" fill="none" xmlns="http://www.w3.org/2000/svg">
<g clip-path="url(#clip0_276_1620)">
<path d="M14.9996 28.3766C22.3872 28.3766 28.3761 22.3877 28.3761 15C28.3761 7.6124 22.3872 1.62354 14.9996 1.62354C7.61192 1.62354 1.62305 7.6124 1.62305 15C1.62305 22.3877 7.61192 28.3766 14.9996 28.3766Z" fill="white"/>
<path d="M15 0C12.0333 0 9.13319 0.879735 6.66645 2.52796C4.19972 4.17618 2.27713 6.51886 1.14181 9.25975C0.00649922 12.0006 -0.290551 15.0166 0.288228 17.9264C0.867006 20.8361 2.29562 23.5088 4.39341 25.6066C6.49119 27.7044 9.16394 29.133 12.0737 29.7118C14.9834 30.2906 17.9994 29.9935 20.7403 28.8582C23.4811 27.7229 25.8238 25.8003 27.472 23.3336C29.1203 20.8668 30 17.9667 30 15C30.0057 13.0359 29.6246 11.0899 28.8782 9.2731C28.1319 7.45631 27.035 5.80431 25.6502 4.41143C24.2654 3.01855 22.6198 1.91207 20.8074 1.15515C18.995 0.398236 17.0513 0.00571514 15.0872 0H15ZM15.2542 15.5085L13.6925 20.7748H22.046C22.1013 20.7729 22.1565 20.7819 22.2084 20.8013C22.2602 20.8207 22.3078 20.8501 22.3482 20.8879C22.3887 20.9256 22.4214 20.971 22.4443 21.0214C22.4672 21.0718 22.48 21.1263 22.4818 21.1816V21.3196L21.7555 23.8257C21.7234 23.9442 21.6521 24.0483 21.5531 24.1209C21.4541 24.1935 21.3333 24.2303 21.2107 24.2252H8.42616L10.569 16.9249L8.17192 17.6513L8.71671 15.9806L11.1138 15.2542L14.1283 5.01211C14.1615 4.89426 14.2332 4.7909 14.3319 4.7185C14.4306 4.6461 14.5508 4.60882 14.6731 4.61259H17.9056C17.9609 4.61065 18.0161 4.61964 18.0679 4.63903C18.1198 4.65843 18.1673 4.68786 18.2078 4.72564C18.2483 4.76342 18.2809 4.80881 18.3038 4.85921C18.3268 4.90961 18.3395 4.96403 18.3414 5.01937V5.15738L15.799 13.8015L18.1961 13.0751L17.6877 14.8184L15.2542 15.5085Z" fill="#345D9D"/>
</g>
<defs>
<clipPath id="clip0_276_1620">
<rect width="30" height="30" fill="white"/>
</clipPath>
</defs>
</svg>
