<svg width="30" height="30" viewBox="0 0 30 30" fill="none" xmlns="http://www.w3.org/2000/svg">
<path d="M18.1853 28.1613H9.93798L3.28343 23.302L0.74707 15.4531L3.27798 7.60422L9.93253 2.74487H18.1853L24.8398 7.60422L27.3707 15.4531L24.8398 23.302L24.7471 23.3944L18.1853 28.1613ZM10.1234 27.596H17.9998L24.3762 22.9269L26.8143 15.4531L24.3762 7.97927L17.9998 3.31017H10.1234L3.75253 7.97927L1.31434 15.4531L3.75253 22.9269L10.1234 27.596Z" fill="#2E9AD0"/>
<path d="M28.3142 26.8515L24.4687 23.3945L20.716 21.9921L14.0614 22.8346L7.31416 21.9921L3.56143 23.3945L3.37598 22.8346L7.21598 21.3398H7.31416L14.0614 22.2748L20.8142 21.3398L20.9069 21.4322L24.8451 22.927L28.6851 26.4764L28.3142 26.8515Z" fill="#2E9AD0"/>
<path d="M17.9993 28.4385L14.0611 23.0193L9.9375 28.4385L6.9375 21.8072L7.49932 21.5246L10.123 27.3188L14.0611 21.992L17.9066 27.3188L20.5302 21.5246L24.092 14.4258L24.9375 23.1117H24.3757L23.7157 16.4804L21.092 21.8072L17.9993 28.4385Z" fill="#2E9AD0"/>
<path d="M1.12305 15.1704H27.1849V15.7303H1.12305V15.1704Z" fill="#2E9AD0"/>
<path d="M24.0928 16.4804L20.8146 10.0339L18.0001 16.1053L14.0619 9.09896L10.031 16.1053L7.21646 10.0339L3.93827 16.4804L3.18555 7.88684L3.75282 7.79443L4.31464 14.5182L7.21646 8.82174L10.031 14.8932L14.0619 7.97924L17.9074 14.8932L20.8146 8.82174L23.7165 14.4258L24.1855 7.79443H24.7528L24.0928 16.4804Z" fill="#2E9AD0"/>
<path d="M20.531 9.56643L17.9074 3.67977L14.0619 9.09898L10.1237 3.67977L7.50009 9.56643L7.031 9.28922L9.93827 2.56006L14.0619 8.07166L18.0001 2.56006L21.0928 9.28922L20.531 9.56643ZM24.3765 23.1117L23.7165 16.4804L20.8146 22.2746L17.9074 16.1053L14.0619 23.1117L10.031 16.1053L7.21646 22.2746L4.31464 16.4804L3.75282 23.1117H3.18555L3.93827 14.4258L7.21646 20.9647L10.031 14.8932L14.0619 21.8996L18.0001 14.8932L20.8146 21.0571L24.0928 14.4258L24.9383 23.1117H24.3765Z" fill="#2E9AD0"/>
<path d="M20.8142 9.75658L13.9687 8.82168L7.21598 9.75658L3.37598 8.07158L3.56143 7.51172L7.31416 9.09889L13.9687 8.26182L20.8142 9.09889L24.4687 7.51172L24.7523 8.07158L20.8142 9.75658Z" fill="#2E9AD0"/>
<path d="M10.0309 28.9985C10.6514 28.9985 11.1545 28.4971 11.1545 27.8787C11.1545 27.2603 10.6514 26.759 10.0309 26.759C9.4103 26.759 8.90723 27.2603 8.90723 27.8787C8.90723 28.4971 9.4103 28.9985 10.0309 28.9985Z" fill="#2E9AD0"/>
<path d="M17.9068 28.9985C18.5274 28.9985 19.0305 28.4971 19.0305 27.8787C19.0305 27.2603 18.5274 26.759 17.9068 26.759C17.2863 26.759 16.7832 27.2603 16.7832 27.8787C16.7832 28.4971 17.2863 28.9985 17.9068 28.9985Z" fill="#2E9AD0"/>
<path d="M10.0309 4.23943C10.6514 4.23943 11.1545 3.73812 11.1545 3.11971C11.1545 2.50131 10.6514 2 10.0309 2C9.4103 2 8.90723 2.50131 8.90723 3.11971C8.90723 3.73812 9.4103 4.23943 10.0309 4.23943Z" fill="#2E9AD0"/>
<path d="M17.9068 4.23943C18.5274 4.23943 19.0305 3.73812 19.0305 3.11971C19.0305 2.50131 18.5274 2 17.9068 2C17.2863 2 16.7832 2.50131 16.7832 3.11971C16.7832 3.73812 17.2863 4.23943 17.9068 4.23943Z" fill="#2E9AD0"/>
<path d="M24.4693 8.91423C25.0899 8.91423 25.593 8.41292 25.593 7.79452C25.593 7.17612 25.0899 6.6748 24.4693 6.6748C23.8488 6.6748 23.3457 7.17612 23.3457 7.79452C23.3457 8.41292 23.8488 8.91423 24.4693 8.91423Z" fill="#2E9AD0"/>
<path d="M3.46934 8.91423C4.08991 8.91423 4.59298 8.41292 4.59298 7.79452C4.59298 7.17612 4.08991 6.6748 3.46934 6.6748C2.84877 6.6748 2.3457 7.17612 2.3457 7.79452C2.3457 8.41292 2.84877 8.91423 3.46934 8.91423Z" fill="#2E9AD0"/>
<path d="M3.46934 24.3293C4.08991 24.3293 4.59298 23.828 4.59298 23.2096C4.59298 22.5912 4.08991 22.0898 3.46934 22.0898C2.84877 22.0898 2.3457 22.5912 2.3457 23.2096C2.3457 23.828 2.84877 24.3293 3.46934 24.3293Z" fill="#2E9AD0"/>
<path d="M1.12364 16.5729C1.7442 16.5729 2.24727 16.0716 2.24727 15.4532C2.24727 14.8348 1.7442 14.3335 1.12364 14.3335C0.503069 14.3335 0 14.8348 0 15.4532C0 16.0716 0.503069 16.5729 1.12364 16.5729Z" fill="#2E9AD0"/>
<path d="M27.0924 16.5729C27.713 16.5729 28.216 16.0716 28.216 15.4532C28.216 14.8348 27.713 14.3335 27.0924 14.3335C26.4718 14.3335 25.9688 14.8348 25.9688 15.4532C25.9688 16.0716 26.4718 16.5729 27.0924 16.5729Z" fill="#2E9AD0"/>
<path d="M23.9068 16.5729C24.5274 16.5729 25.0305 16.0716 25.0305 15.4532C25.0305 14.8348 24.5274 14.3335 23.9068 14.3335C23.2863 14.3335 22.7832 14.8348 22.7832 15.4532C22.7832 16.0716 23.2863 16.5729 23.9068 16.5729Z" fill="#2E9AD0"/>
<path d="M4.12364 16.5729C4.7442 16.5729 5.24727 16.0716 5.24727 15.4532C5.24727 14.8348 4.7442 14.3335 4.12364 14.3335C3.50307 14.3335 3 14.8348 3 15.4532C3 16.0716 3.50307 16.5729 4.12364 16.5729Z" fill="#2E9AD0"/>
<path d="M10.0309 16.5729C10.6514 16.5729 11.1545 16.0716 11.1545 15.4532C11.1545 14.8348 10.6514 14.3335 10.0309 14.3335C9.4103 14.3335 8.90723 14.8348 8.90723 15.4532C8.90723 16.0716 9.4103 16.5729 10.0309 16.5729Z" fill="#2E9AD0"/>
<path d="M17.9068 16.5729C18.5274 16.5729 19.0305 16.0716 19.0305 15.4532C19.0305 14.8348 18.5274 14.3335 17.9068 14.3335C17.2863 14.3335 16.7832 14.8348 16.7832 15.4532C16.7832 16.0716 17.2863 16.5729 17.9068 16.5729Z" fill="#2E9AD0"/>
<path d="M15.1717 8.71959C15.2711 8.10918 14.8551 7.53402 14.2426 7.43495C13.63 7.33588 13.0529 7.7504 12.9535 8.36081C12.854 8.97123 13.27 9.54638 13.8826 9.64545C14.4951 9.74453 15.0723 9.33 15.1717 8.71959Z" fill="#2E9AD0"/>
<path d="M7.21641 10.5937C7.83698 10.5937 8.34005 10.0924 8.34005 9.47396C8.34005 8.85556 7.83698 8.35425 7.21641 8.35425C6.59584 8.35425 6.09277 8.85556 6.09277 9.47396C6.09277 10.0924 6.59584 10.5937 7.21641 10.5937Z" fill="#2E9AD0"/>
<path d="M20.815 10.5937C21.4356 10.5937 21.9387 10.0924 21.9387 9.47396C21.9387 8.85556 21.4356 8.35425 20.815 8.35425C20.1945 8.35425 19.6914 8.85556 19.6914 9.47396C19.6914 10.0924 20.1945 10.5937 20.815 10.5937Z" fill="#2E9AD0"/>
<path d="M14.0621 23.6716C14.6827 23.6716 15.1857 23.1702 15.1857 22.5518C15.1857 21.9334 14.6827 21.4321 14.0621 21.4321C13.4415 21.4321 12.9385 21.9334 12.9385 22.5518C12.9385 23.1702 13.4415 23.6716 14.0621 23.6716Z" fill="#2E9AD0"/>
<path d="M7.21641 22.7367C7.83698 22.7367 8.34005 22.2354 8.34005 21.617C8.34005 20.9986 7.83698 20.4973 7.21641 20.4973C6.59584 20.4973 6.09277 20.9986 6.09277 21.617C6.09277 22.2354 6.59584 22.7367 7.21641 22.7367Z" fill="#2E9AD0"/>
<path d="M20.815 22.7367C21.4356 22.7367 21.9387 22.2354 21.9387 21.617C21.9387 20.9986 21.4356 20.4973 20.815 20.4973C20.1945 20.4973 19.6914 20.9986 19.6914 21.617C19.6914 22.2354 20.1945 22.7367 20.815 22.7367Z" fill="#2E9AD0"/>
<path d="M28.5 28.1614C29.3284 28.1614 30 27.4922 30 26.6666C30 25.8411 29.3284 25.1719 28.5 25.1719C27.6716 25.1719 27 25.8411 27 26.6666C27 27.4922 27.6716 28.1614 28.5 28.1614Z" fill="#2E9AD0"/>
</svg>
