<svg width="30" height="30" viewBox="0 0 30 30" fill="none" xmlns="http://www.w3.org/2000/svg">
<g clip-path="url(#clip0_276_1513)">
<path d="M29.809 17.3725C31.1207 9.19269 25.553 1.49837 17.3732 0.186721C9.19343 -1.12493 1.49911 4.44278 0.187456 12.6226C-1.1242 20.8023 4.44352 28.4967 12.6233 29.8083C20.8031 31.12 28.4974 25.5522 29.809 17.3725Z" fill="#23292F"/>
<path d="M22.4273 6.30615H25.4623L19.1478 12.5595C18.0446 13.6485 16.5568 14.2591 15.0067 14.2591C13.4566 14.2591 11.9688 13.6485 10.8656 12.5595L4.54297 6.30615H7.58208L12.377 11.0563C13.0761 11.7459 14.0186 12.1326 15.0006 12.1326C15.9826 12.1326 16.9251 11.7459 17.6242 11.0563L22.4273 6.30615Z" fill="white"/>
<path d="M7.54106 23.6934H4.50195L10.8572 17.4034C11.9604 16.3144 13.4482 15.7039 14.9983 15.7039C16.5484 15.7039 18.0362 16.3144 19.1394 17.4034L25.4987 23.6934H22.4637L17.6239 18.9026C16.9248 18.2129 15.9823 17.8263 15.0003 17.8263C14.0183 17.8263 13.0758 18.2129 12.3767 18.9026L7.54106 23.6934Z" fill="white"/>
</g>
<defs>
<clipPath id="clip0_276_1513">
<rect width="29.9959" height="30" fill="white"/>
</clipPath>
</defs>
</svg>
