<svg width="20" height="20" viewBox="0 0 20 20" fill="none" xmlns="http://www.w3.org/2000/svg">
<path fill-rule="evenodd" clip-rule="evenodd" d="M3.07898 3.06902C6.87398 -0.720979 13.044 -0.680979 16.862 3.13802C20.682 6.95802 20.722 13.131 16.926 16.926C13.131 20.721 6.95798 20.682 3.13798 16.862C2.06348 15.792 1.25163 14.4874 0.766154 13.0508C0.280683 11.6141 0.134807 10.0845 0.339979 8.58202C0.366899 8.38483 0.471048 8.20641 0.629517 8.08602C0.787985 7.96562 0.987791 7.9131 1.18498 7.94002C1.38217 7.96694 1.56059 8.07109 1.68098 8.22956C1.80138 8.38803 1.8539 8.58783 1.82698 8.78502C1.65282 10.0583 1.77629 11.3547 2.18769 12.5722C2.59908 13.7898 3.2872 14.8953 4.19798 15.802C7.44298 19.046 12.666 19.065 15.866 15.866C19.065 12.666 19.046 7.44302 15.802 4.19802C12.559 0.956021 7.33898 0.935022 4.13898 4.13002L4.88698 4.13302C4.98547 4.13348 5.08291 4.15334 5.17373 4.19145C5.26454 4.22957 5.34697 4.2852 5.41628 4.35517C5.4856 4.42514 5.54046 4.50807 5.57773 4.59924C5.61499 4.69041 5.63394 4.78803 5.63348 4.88652C5.63302 4.98501 5.61316 5.08245 5.57505 5.17327C5.53693 5.26409 5.4813 5.34651 5.41133 5.41583C5.34136 5.48515 5.25843 5.54 5.16726 5.57727C5.07609 5.61454 4.97847 5.63348 4.87998 5.63302L2.33398 5.62102C2.13628 5.61997 1.94699 5.5409 1.80729 5.40101C1.66758 5.26112 1.58877 5.07172 1.58798 4.87402L1.57498 2.33002C1.57445 2.23153 1.59333 2.1339 1.63054 2.0427C1.66774 1.95151 1.72255 1.86854 1.79182 1.79852C1.86109 1.7285 1.94348 1.67282 2.03427 1.63464C2.12506 1.59647 2.22249 1.57655 2.32098 1.57602C2.41947 1.5755 2.5171 1.59438 2.6083 1.63158C2.69949 1.66879 2.78247 1.72359 2.85248 1.79286C2.9225 1.86214 2.97818 1.94452 3.01636 2.03531C3.05453 2.12611 3.07445 2.22353 3.07498 2.32202L3.07898 3.06902ZM9.99898 5.24902C10.1979 5.24902 10.3887 5.32804 10.5293 5.46869C10.67 5.60934 10.749 5.80011 10.749 5.99902V9.68902L13.03 11.969C13.1016 12.0382 13.1588 12.1209 13.1982 12.2124C13.2375 12.3039 13.2583 12.4023 13.2592 12.5019C13.2601 12.6014 13.2411 12.7002 13.2035 12.7924C13.1658 12.8846 13.1102 12.9684 13.0398 13.0388C12.9694 13.1093 12.8857 13.165 12.7935 13.2027C12.7014 13.2405 12.6026 13.2595 12.503 13.2587C12.4035 13.2579 12.305 13.2372 12.2135 13.198C12.122 13.1587 12.0392 13.1016 11.97 13.03L9.24998 10.31V6.00002C9.24998 5.80111 9.329 5.61034 9.46965 5.46969C9.6103 5.32904 9.80107 5.25002 9.99998 5.25002" fill="#1CAF86"/>
</svg>
