<svg width="16" height="22" viewBox="0 0 16 22" fill="none" xmlns="http://www.w3.org/2000/svg">
<path fill-rule="evenodd" clip-rule="evenodd" d="M3 10V5C3 2.23858 5.23858 0 8 0C10.7614 0 13 2.23858 13 5V7H11V5C11 3.34315 9.65685 2 8 2C6.34315 2 5 3.34315 5 5V10H14C15.1046 10 16 10.8954 16 12V20C16 21.1046 15.1046 22 14 22H2C0.89543 22 0 21.1046 0 20V12C0 10.8954 0.89543 10 2 10H3ZM2 20V12H14V20H2ZM9 16C9 16.5523 8.55229 17 8 17C7.44772 17 7 16.5523 7 16C7 15.4477 7.44772 15 8 15C8.55229 15 9 15.4477 9 16Z" fill="#1CAF86"/>
</svg>
