<svg width="20" height="21" viewBox="0 0 20 21" fill="none" xmlns="http://www.w3.org/2000/svg">
<g id="Component 11">
<g id="Vector">
<path d="M3.125 16.75C3.125 17.4131 3.38839 18.0489 3.85723 18.5178C4.32607 18.9866 4.96196 19.25 5.625 19.25H9.21875C9.26019 19.25 9.29993 19.2336 9.32924 19.2043C9.35854 19.1749 9.375 19.1352 9.375 19.0938V11.9063C9.375 11.8648 9.35854 11.8251 9.32924 11.7958C9.29993 11.7665 9.26019 11.75 9.21875 11.75H3.4375C3.35462 11.75 3.27513 11.7829 3.21653 11.8415C3.15792 11.9002 3.125 11.9796 3.125 12.0625V16.75ZM9.375 10.3438V6.12502H10.625V10.3438C10.625 10.3852 10.6415 10.4249 10.6708 10.4543C10.7001 10.4836 10.7398 10.5 10.7812 10.5H16.25C16.4629 10.5 16.6743 10.4637 16.875 10.3926C17.2402 10.2629 17.5564 10.0234 17.7802 9.70698C18.004 9.39053 18.1244 9.0126 18.125 8.62502V8.00002C18.125 7.50274 17.9275 7.02582 17.5758 6.67419C17.2242 6.32256 16.7473 6.12502 16.25 6.12502H14.6664C14.6528 6.1248 14.6395 6.12103 14.6278 6.11409C14.6161 6.10714 14.6064 6.09726 14.5997 6.08542C14.593 6.07358 14.5895 6.06019 14.5895 6.04658C14.5896 6.03297 14.5932 6.01961 14.6 6.00783C14.9617 5.39724 15.0791 4.6725 14.9288 3.97893C14.7785 3.28537 14.3716 2.67425 13.7897 2.26813C13.2077 1.862 12.4937 1.69089 11.7909 1.78909C11.0881 1.8873 10.4483 2.24758 10 2.79767C9.55166 2.24758 8.91193 1.8873 8.2091 1.78909C7.50627 1.69089 6.79229 1.862 6.21033 2.26813C5.62837 2.67425 5.22145 3.28537 5.07117 3.97893C4.92088 4.6725 5.03835 5.39724 5.4 6.00783C5.40681 6.01961 5.41042 6.03297 5.41047 6.04658C5.41053 6.06019 5.40703 6.07358 5.40032 6.08542C5.39361 6.09726 5.38392 6.10714 5.37222 6.11409C5.36052 6.12103 5.3472 6.1248 5.33359 6.12502H3.75C3.25272 6.12502 2.77581 6.32256 2.42417 6.67419C2.07254 7.02582 1.875 7.50274 1.875 8.00002V8.62502C1.87555 9.0126 1.99598 9.39053 2.21977 9.70698C2.44356 10.0234 2.75975 10.2629 3.125 10.3926C3.32571 10.4637 3.53707 10.5 3.75 10.5H9.21875C9.26019 10.5 9.29993 10.4836 9.32924 10.4543C9.35854 10.4249 9.375 10.3852 9.375 10.3438ZM10.625 4.56252C10.625 4.25348 10.7166 3.95139 10.8883 3.69444C11.06 3.43749 11.304 3.23722 11.5896 3.11895C11.8751 3.00069 12.1892 2.96975 12.4923 3.03004C12.7954 3.09033 13.0738 3.23914 13.2924 3.45766C13.3927 3.55804 13.4784 3.67107 13.5475 3.79332C13.5537 3.80413 13.5596 3.81502 13.5655 3.82597C13.5716 3.83745 13.5776 3.84901 13.5835 3.86063C13.6263 3.94572 13.6613 4.03476 13.688 4.12669C13.7005 4.16976 13.7112 4.21346 13.72 4.25769C13.7388 4.35217 13.7487 4.44772 13.7499 4.54315C13.7499 4.54339 13.7499 4.54396 13.7499 4.5442C13.7524 4.75456 13.7123 4.96427 13.6311 5.16046C13.5128 5.44597 13.3125 5.69 13.0556 5.86169C12.7986 6.03338 12.4965 6.12502 12.1875 6.12502H10.625V4.56252ZM7.70078 3.00392C7.91484 2.98858 8.12977 3.01749 8.33216 3.08887C8.53456 3.16025 8.72008 3.27255 8.87716 3.41878C9.03424 3.56502 9.15951 3.74204 9.24516 3.93882C9.32947 4.1325 9.37361 4.34123 9.37497 4.5524C9.37499 4.55577 9.375 4.55914 9.375 4.56252V6.12502H7.8125C7.40847 6.12398 7.02055 5.96648 6.73016 5.68557C6.43976 5.40467 6.26947 5.02219 6.25501 4.61842C6.24056 4.21465 6.38307 3.82098 6.65263 3.52003C6.91025 3.23242 7.26476 3.0505 7.64736 3.00881C7.65792 3.00769 7.66849 3.00667 7.67907 3.00577C7.6863 3.00513 7.69353 3.00446 7.70078 3.00392ZM10.7812 19.25H14.375C15.038 19.25 15.6739 18.9866 16.1428 18.5178C16.6116 18.0489 16.875 17.4131 16.875 16.75V12.0625C16.875 11.9796 16.8421 11.9002 16.7835 11.8415C16.7249 11.7829 16.6454 11.75 16.5625 11.75H10.7812C10.7398 11.75 10.7001 11.7665 10.6708 11.7958C10.6415 11.8251 10.625 11.8648 10.625 11.9063V19.0938C10.625 19.1352 10.6415 19.1749 10.6708 19.2043C10.7001 19.2336 10.7398 19.25 10.7812 19.25Z" fill="#F2EAFF" fill-opacity="0.8"/>
<path fill-rule="evenodd" clip-rule="evenodd" d="M6.94442 5.86173C7.20137 6.03342 7.50347 6.12502 7.8125 6.12502C7.40847 6.12398 7.02055 5.96648 6.73016 5.68557C6.43976 5.40467 6.26947 5.02219 6.25501 4.61842C6.24056 4.21465 6.38307 3.82098 6.65263 3.52003C6.91025 3.23242 7.26476 3.0505 7.64736 3.00881C7.60063 3.01378 7.55402 3.02087 7.50767 3.03008C7.20458 3.09037 6.92617 3.23919 6.70765 3.45771C6.48913 3.67623 6.34031 3.95464 6.28002 4.25773C6.21973 4.56083 6.25068 4.875 6.36894 5.1605C6.4872 5.44601 6.68747 5.69004 6.94442 5.86173ZM13.7499 4.5442C13.75 4.55032 13.75 4.55644 13.75 4.56256ZM13.7499 4.5442C13.7499 4.54396 13.7499 4.54339 13.7499 4.54315C13.7487 4.44663 13.7386 4.3511 13.72 4.25769C13.72 4.25769 13.72 4.25768 13.72 4.25769C13.7112 4.21346 13.7005 4.16976 13.688 4.12669C13.6613 4.03476 13.6263 3.94572 13.5835 3.86063C13.5776 3.84901 13.5716 3.83745 13.5655 3.82597C13.5655 3.82597 13.5655 3.82596 13.5655 3.82597C13.5596 3.81502 13.5537 3.80413 13.5475 3.79332" fill="#F2EAFF" fill-opacity="0.8"/>
</g>
</g>
</svg>
