<svg width="20" height="21" viewBox="0 0 20 21" fill="none" xmlns="http://www.w3.org/2000/svg">
<g id="Component 11">
<path id="Vector" d="M15.0391 11.7501C14.6013 11.7499 14.1712 11.6347 13.7919 11.4161C13.4126 11.1975 13.0974 10.8831 12.8777 10.5044C11.2281 10.5516 9.55 11.0012 8.33828 11.7282C7.08047 12.4829 6.39649 13.4469 6.30117 14.5934C6.77571 14.871 7.14554 15.2972 7.35343 15.8061C7.56131 16.315 7.59566 16.8782 7.45114 17.4086C7.30663 17.939 6.99133 18.407 6.55402 18.7402C6.11672 19.0733 5.5818 19.253 5.03207 19.2515C4.48234 19.2499 3.94844 19.0672 3.51301 18.7316C3.07757 18.3961 2.76489 17.9263 2.62335 17.3951C2.48181 16.8639 2.51931 16.3009 2.73004 15.7931C2.94077 15.2854 3.31298 14.8613 3.78906 14.5864V6.41375C3.31246 6.13858 2.93997 5.71384 2.72936 5.20539C2.51876 4.69695 2.48181 4.13322 2.62425 3.60164C2.76669 3.07005 3.08055 2.60032 3.51716 2.2653C3.95377 1.93028 4.48873 1.74868 5.03906 1.74868C5.5894 1.74868 6.12436 1.93028 6.56097 2.2653C6.99758 2.60032 7.31144 3.07005 7.45388 3.60164C7.59632 4.13322 7.55937 4.69695 7.34876 5.20539C7.13816 5.71384 6.76567 6.13858 6.28906 6.41375V10.1036C8.0375 8.77547 10.4797 8.0575 12.8734 8.00359C13.0924 7.62298 13.4077 7.30675 13.7876 7.0867C14.1676 6.86665 14.5988 6.75055 15.0379 6.75008C15.4769 6.74961 15.9084 6.86478 16.2888 7.08402C16.6692 7.30326 16.9852 7.61882 17.2049 7.99895C17.4247 8.37909 17.5404 8.81039 17.5405 9.24947C17.5406 9.68855 17.4251 10.1199 17.2055 10.5001C16.986 10.8804 16.6702 11.1961 16.2899 11.4155C15.9095 11.6349 15.4781 11.7503 15.0391 11.7501ZM5.03906 18.0001C5.28629 18.0001 5.52796 17.9268 5.73353 17.7894C5.93909 17.6521 6.0993 17.4568 6.19391 17.2284C6.28852 17 6.31328 16.7487 6.26505 16.5062C6.21681 16.2637 6.09776 16.041 5.92295 15.8662C5.74813 15.6914 5.5254 15.5723 5.28293 15.5241C5.04045 15.4759 4.78912 15.5006 4.56071 15.5952C4.3323 15.6898 4.13708 15.8501 3.99973 16.0556C3.86237 16.2612 3.78906 16.5028 3.78906 16.7501C3.78906 17.0816 3.92076 17.3995 4.15518 17.634C4.3896 17.8684 4.70754 18.0001 5.03906 18.0001ZM5.03906 3.00007C4.79184 3.00007 4.55016 3.07339 4.3446 3.21074C4.13904 3.34809 3.97882 3.54331 3.88421 3.77172C3.7896 4.00013 3.76485 4.25146 3.81308 4.49394C3.86131 4.73641 3.98036 4.95914 4.15518 5.13396C4.33 5.30877 4.55272 5.42782 4.7952 5.47606C5.03768 5.52429 5.28901 5.49953 5.51742 5.40492C5.74583 5.31031 5.94105 5.1501 6.0784 4.94454C6.21575 4.73898 6.28906 4.4973 6.28906 4.25007C6.28906 3.91855 6.15737 3.60061 5.92295 3.36619C5.68853 3.13177 5.37058 3.00007 5.03906 3.00007ZM15.0391 8.00007C14.7918 8.00007 14.5502 8.07339 14.3446 8.21074C14.139 8.34809 13.9788 8.54331 13.8842 8.77172C13.7896 9.00013 13.7649 9.25146 13.8131 9.49394C13.8613 9.73641 13.9804 9.95914 14.1552 10.134C14.33 10.3088 14.5527 10.4278 14.7952 10.4761C15.0377 10.5243 15.289 10.4995 15.5174 10.4049C15.7458 10.3103 15.941 10.1501 16.0784 9.94454C16.2158 9.73898 16.2891 9.4973 16.2891 9.25008C16.2891 8.91855 16.1574 8.60061 15.9229 8.36619C15.6885 8.13177 15.3706 8.00007 15.0391 8.00007Z" fill="#F2EAFF" fill-opacity="0.8"/>
</g>
</svg>
