<svg width="22" height="22" viewBox="0 0 22 22" fill="none" xmlns="http://www.w3.org/2000/svg">
<path d="M11 14C12.6569 14 14 12.6569 14 11C14 9.34315 12.6569 8 11 8C9.34315 8 8 9.34315 8 11C8 12.6569 9.34315 14 11 14Z" stroke="#1CAF86" stroke-width="1.5"/>
<path d="M12.765 1.152C12.398 1 11.932 1 11 1C10.068 1 9.60202 1 9.23502 1.152C8.9922 1.25251 8.77158 1.3999 8.58575 1.58572C8.39992 1.77155 8.25254 1.99218 8.15202 2.235C8.06002 2.458 8.02302 2.719 8.00902 3.098C8.00279 3.37199 7.92702 3.6399 7.78884 3.87657C7.65065 4.11324 7.45457 4.31091 7.21902 4.451C6.97992 4.58504 6.71067 4.6561 6.43656 4.6575C6.16245 4.6589 5.89248 4.59059 5.65202 4.459C5.31602 4.281 5.07302 4.183 4.83202 4.151C4.30634 4.08187 3.77472 4.22431 3.35402 4.547C3.04002 4.79 2.80602 5.193 2.34002 6C1.87402 6.807 1.64002 7.21 1.58902 7.605C1.55466 7.86545 1.57194 8.13012 1.63989 8.38389C1.70784 8.63767 1.82511 8.87556 1.98502 9.084C2.13302 9.276 2.34002 9.437 2.66102 9.639C3.13402 9.936 3.43802 10.442 3.43802 11C3.43802 11.558 3.13402 12.064 2.66102 12.36C2.34002 12.563 2.13202 12.724 1.98502 12.916C1.82511 13.1244 1.70784 13.3623 1.63989 13.6161C1.57194 13.8699 1.55466 14.1345 1.58902 14.395C1.64102 14.789 1.87402 15.193 2.33902 16C2.80602 16.807 3.03902 17.21 3.35402 17.453C3.56246 17.6129 3.80036 17.7302 4.05413 17.7981C4.3079 17.8661 4.57257 17.8834 4.83302 17.849C5.07302 17.817 5.31602 17.719 5.65202 17.541C5.89248 17.4094 6.16245 17.3411 6.43656 17.3425C6.71067 17.3439 6.97992 17.415 7.21902 17.549C7.70202 17.829 7.98902 18.344 8.00902 18.902C8.02302 19.282 8.05902 19.542 8.15202 19.765C8.25254 20.0078 8.39992 20.2284 8.58575 20.4143C8.77158 20.6001 8.9922 20.7475 9.23502 20.848C9.60202 21 10.068 21 11 21C11.932 21 12.398 21 12.765 20.848C13.0078 20.7475 13.2285 20.6001 13.4143 20.4143C13.6001 20.2284 13.7475 20.0078 13.848 19.765C13.94 19.542 13.977 19.282 13.991 18.902C14.011 18.344 14.298 17.828 14.781 17.549C15.0201 17.415 15.2894 17.3439 15.5635 17.3425C15.8376 17.3411 16.1076 17.4094 16.348 17.541C16.684 17.719 16.927 17.817 17.167 17.849C17.4275 17.8834 17.6921 17.8661 17.9459 17.7981C18.1997 17.7302 18.4376 17.6129 18.646 17.453C18.961 17.211 19.194 16.807 19.66 16C20.126 15.193 20.36 14.79 20.411 14.395C20.4454 14.1345 20.4281 13.8699 20.3602 13.6161C20.2922 13.3623 20.1749 13.1244 20.015 12.916C19.867 12.724 19.66 12.563 19.339 12.361C19.1048 12.2186 18.9105 12.019 18.7746 11.7809C18.6387 11.5428 18.5655 11.2741 18.562 11C18.562 10.442 18.866 9.936 19.339 9.64C19.66 9.437 19.868 9.276 20.015 9.084C20.1749 8.87556 20.2922 8.63767 20.3602 8.38389C20.4281 8.13012 20.4454 7.86545 20.411 7.605C20.359 7.211 20.126 6.807 19.661 6C19.194 5.193 18.961 4.79 18.646 4.547C18.4376 4.38709 18.1997 4.26981 17.9459 4.20187C17.6921 4.13392 17.4275 4.11664 17.167 4.151C16.927 4.183 16.684 4.281 16.347 4.459C16.1067 4.59042 15.8369 4.65862 15.563 4.65722C15.2891 4.65582 15.02 4.58486 14.781 4.451C14.5455 4.31091 14.3494 4.11324 14.2112 3.87657C14.073 3.6399 13.9973 3.37199 13.991 3.098C13.977 2.718 13.941 2.458 13.848 2.235C13.7475 1.99218 13.6001 1.77155 13.4143 1.58572C13.2285 1.3999 13.0078 1.25251 12.765 1.152Z" stroke="#1CAF86" stroke-width="1.5"/>
</svg>
