<svg width="17" height="17" viewBox="0 0 17 17" fill="none" xmlns="http://www.w3.org/2000/svg">
<path d="M16.0062 15.0988L9.61242 8.7085L16.0062 2.36527C16.3266 1.99416 16.3093 1.43724 15.9664 1.08707C15.6235 0.736907 15.0706 0.711544 14.6975 1.02886L8.28506 7.32503L1.98476 0.981804C1.62016 0.616905 1.03133 0.616905 0.66674 0.981804C0.489777 1.15852 0.390239 1.39907 0.390239 1.65001C0.390239 1.90095 0.489777 2.1415 0.66674 2.31821L6.9577 8.65203L0.563916 14.9858C0.386953 15.1626 0.287415 15.4031 0.287415 15.654C0.287415 15.905 0.386953 16.1455 0.563916 16.3223C0.740323 16.4984 0.979135 16.5966 1.2276 16.5952C1.4715 16.5967 1.70632 16.5021 1.88193 16.3317L8.28506 9.97902L14.6975 16.4352C14.8739 16.6114 15.1128 16.7096 15.3612 16.7081C15.6064 16.7071 15.8414 16.6091 16.0156 16.4352C16.1913 16.2572 16.2891 16.016 16.2874 15.765C16.2856 15.5141 16.1844 15.2742 16.0062 15.0988Z" fill="#343435"/>
</svg>
