<svg width="20" height="20" viewBox="0 0 20 20" fill="none" xmlns="http://www.w3.org/2000/svg">
<g id="iconoir:eye-alt">
<g id="Group">
<path id="Vector" d="M2.5 10.8334C5.5 4.16671 14.5 4.16671 17.5 10.8334" stroke="#2666ff" stroke-width="2" stroke-linecap="round" stroke-linejoin="round"/>
<path id="Vector_2" d="M10 14.1667C9.6717 14.1667 9.34661 14.1021 9.04329 13.9764C8.73998 13.8508 8.46438 13.6667 8.23223 13.4345C8.00009 13.2024 7.81594 12.9268 7.6903 12.6235C7.56466 12.3201 7.5 11.9951 7.5 11.6667C7.5 11.3384 7.56466 11.0134 7.6903 10.71C7.81594 10.4067 8.00009 10.1311 8.23223 9.89898C8.46438 9.66683 8.73998 9.48269 9.04329 9.35705C9.34661 9.23141 9.6717 9.16675 10 9.16675C10.663 9.16675 11.2989 9.43014 11.7678 9.89898C12.2366 10.3678 12.5 11.0037 12.5 11.6667C12.5 12.3298 12.2366 12.9657 11.7678 13.4345C11.2989 13.9034 10.663 14.1667 10 14.1667Z" stroke="#2666ff" stroke-width="2" stroke-linecap="round" stroke-linejoin="round"/>
</g>
</g>
</svg>
