<svg width="16" height="15" viewBox="0 0 16 15" fill="none" xmlns="http://www.w3.org/2000/svg">
<path d="M15.9723 14.3543L13.072 11.3504C12.9486 11.2297 12.6097 10.9091 12.6097 10.9091L11.9372 10.2273C13.8969 7.91072 13.8347 4.75544 11.9006 2.41932C9.9665 0.0831935 6.59633 -0.661053 3.7853 0.627194C0.974268 1.91544 -0.5274 4.89237 0.169327 7.79555C0.866054 10.6987 3.57523 12.7533 6.69294 12.743C8.20593 12.7434 9.6741 12.2524 10.8564 11.3504L11.9372 12.2727C11.8229 12.1271 11.8318 12.1719 11.9372 12.2727L14.6272 15H15.2998C15.4806 14.8291 16.1425 14.5349 15.9723 14.3543ZM6.69294 10.9226C4.06205 10.9226 1.92928 8.88511 1.92928 6.3717C1.92928 3.85829 4.06205 1.82076 6.69294 1.82076C9.32384 1.82076 11.4566 3.85829 11.4566 6.3717C11.4566 7.57868 10.9547 8.73623 10.0614 9.58969C9.168 10.4432 7.95635 10.9226 6.69294 10.9226Z" fill="white" fill-opacity="0.5"/>
</svg>
