<svg width="57" height="47" viewBox="0 0 57 47" fill="none" xmlns="http://www.w3.org/2000/svg">
<path d="M51.3628 0.59305C51.3628 0.59305 56.4623 -1.39539 56.0373 3.43368C55.8957 5.42214 54.6208 12.3817 53.6293 19.9094L50.2296 42.2084C50.2296 42.2084 49.9464 45.475 47.3966 46.0432C44.8468 46.6113 41.0223 44.0548 40.3139 43.4866C39.7473 43.0606 29.6902 36.6691 26.1488 33.5444C25.1572 32.6922 24.024 30.9878 26.2904 28.9994L41.1639 14.7963C42.8637 13.0919 44.5636 9.11499 37.4809 13.9441L17.6497 27.4371C17.6497 27.4371 15.3833 28.8574 11.1338 27.5791L1.92637 24.7385C1.92637 24.7385 -1.47329 22.608 4.33445 20.4774C18.4997 13.8019 35.9228 6.98441 51.3628 0.59305Z" fill="#005EFF" fill-opacity="0.6"/>
</svg>
