<svg width="261" height="93" viewBox="0 0 261 93" fill="none" xmlns="http://www.w3.org/2000/svg">
<path fill-rule="evenodd" clip-rule="evenodd" d="M208.36 64.1583H215.089V38.3083H208.36V64.1583Z" fill="black"/>
<path fill-rule="evenodd" clip-rule="evenodd" d="M208.36 35.3536H215.089V28.6348H208.36V35.3536Z" fill="black"/>
<path fill-rule="evenodd" clip-rule="evenodd" d="M198.086 64.1561H204.814V57.4373H198.086V64.1561Z" fill="black"/>
<path fill-rule="evenodd" clip-rule="evenodd" d="M150.505 60.649C150.897 61.6894 151.495 62.5034 152.208 63.1397C152.928 63.785 153.775 64.288 154.777 64.5738C155.797 64.8591 156.921 64.9709 158.111 64.9709C159.34 64.9709 160.438 64.8432 161.374 64.5909C162.244 64.3577 163.077 64.0277 163.851 63.609V58.8609C162.618 59.3932 161.465 59.5863 160.151 59.6477C158.762 59.7121 157.941 59.3158 157.256 58.6659C156.541 57.9846 156.16 57.0961 156.16 55.6059V41.2455H163.851V35.3536H156.16V28.6348H149.908V35.3536H146.161V41.2455H149.908V56.6652C149.908 58.258 150.107 59.5977 150.505 60.649Z" fill="black"/>
<path fill-rule="evenodd" clip-rule="evenodd" d="M109.957 44.0953H93.206V51.0431H102.612C102.121 53.0278 101.15 54.8069 99.7584 56.2281C97.6577 58.3718 94.7456 59.5523 91.5578 59.5523C84.9414 59.5523 79.5591 54.1767 79.5591 47.5692C79.5591 40.9616 84.9414 35.5858 91.5578 35.5858C95.1014 35.5858 98.3589 37.1 100.617 39.7126L106.003 35.3174C102.432 31.1385 97.134 28.6382 91.5578 28.6382C81.1056 28.6382 72.6025 37.1307 72.6025 47.5692C72.6025 58.0076 81.1056 66.4998 91.5578 66.4998C96.6319 66.4998 101.31 64.6738 104.73 61.1837C107.6 58.2544 109.502 54.1674 109.868 50.0735C110.046 48.0761 110.062 46.0933 109.957 44.0953Z" fill="black"/>
<path fill-rule="evenodd" clip-rule="evenodd" d="M181.041 40.714C184.9 40.714 188.191 43.1369 189.478 46.5425H172.604C173.889 43.1369 177.181 40.714 181.041 40.714ZM196.139 52.034C196.254 51.2788 196.316 50.5056 196.316 49.7188C196.316 41.2953 189.476 34.4668 181.041 34.4668C172.608 34.4668 165.769 41.2953 165.769 49.7188C165.769 58.1424 172.608 64.9704 181.041 64.9704C186.827 64.9704 191.861 61.7568 194.454 57.0202L188.81 54.2857C187.242 56.9409 184.35 58.7234 181.041 58.7234C176.859 58.7234 173.343 55.88 172.323 52.0237H189.756C189.756 52.0271 189.755 52.0304 189.755 52.034H196.139Z" fill="black"/>
<path fill-rule="evenodd" clip-rule="evenodd" d="M127.474 58.7244C122.494 58.7244 118.457 54.6926 118.457 49.7189C118.457 44.7451 122.494 40.7132 127.474 40.7132C132.454 40.7132 136.491 44.7451 136.491 49.7189C136.491 54.6926 132.454 58.7244 127.474 58.7244ZM127.473 34.4932C119.04 34.4932 112.204 41.3209 112.204 49.743C112.204 58.1652 119.04 64.993 127.473 64.993C135.906 64.993 142.742 58.1652 142.742 49.743C142.742 41.3209 135.906 34.4932 127.473 34.4932Z" fill="black"/>
<mask id="mask0_301_10821" style="mask-type:alpha" maskUnits="userSpaceOnUse" x="12" y="19" width="238" height="55">
<path d="M12.2471 73.4222H249.136V19.2555H12.2471V73.4222Z" fill="white"/>
</mask>
<g mask="url(#mask0_301_10821)">
<path fill-rule="evenodd" clip-rule="evenodd" d="M136.491 64.1575H142.742V35.3296H136.491V64.1575Z" fill="black"/>
<path fill-rule="evenodd" clip-rule="evenodd" d="M233.862 58.7232C228.882 58.7232 224.846 54.6919 224.846 49.7185C224.846 44.7455 228.882 40.714 233.862 40.714C238.841 40.714 242.879 44.7455 242.879 49.7185C242.879 54.6919 238.841 58.7232 233.862 58.7232ZM233.862 34.4668C225.428 34.4668 218.589 41.2948 218.589 49.7185C218.589 58.142 225.428 64.9704 233.862 64.9704C242.297 64.9704 249.136 58.142 249.136 49.7185C249.136 41.2948 242.297 34.4668 233.862 34.4668Z" fill="black"/>
<path fill-rule="evenodd" clip-rule="evenodd" d="M39.3648 61.2344C31.1273 61.2344 24.45 54.5652 24.45 46.3387C24.45 38.1117 31.1273 31.4428 39.3648 31.4428V19.2555C24.3879 19.2555 12.2471 31.3809 12.2471 46.3387C12.2471 61.2965 24.3879 73.4219 39.3648 73.4219C54.3415 73.4219 66.4822 61.2965 66.4822 46.3387H54.2794C54.2794 54.5652 47.6017 61.2344 39.3648 61.2344Z" fill="#0051D2"/>
<path fill-rule="evenodd" clip-rule="evenodd" d="M39.3633 46.3375H54.278V31.4417H39.3633V46.3375Z" fill="#14E0A1"/>
</g>
</svg>
