<svg width="259" height="60" viewBox="0 0 259 60" fill="none" xmlns="http://www.w3.org/2000/svg">
<path d="M203.173 29.8018C203.173 28.2799 203.173 26.8483 203.123 25.5262C203.09 24.279 202.966 23.0358 202.754 21.8063C202.555 20.6836 202.204 19.5933 201.711 18.5654C201.19 17.5056 200.494 16.5413 199.653 15.7132C198.459 14.49 197.038 13.511 195.47 12.8309C193.774 12.1437 191.957 11.8031 190.127 11.829C188.29 11.8053 186.467 12.1458 184.762 12.8309C183.185 13.5017 181.755 14.4764 180.555 15.6995C179.715 16.5271 179.021 17.4916 178.505 18.5517C178.015 19.5798 177.67 20.6704 177.478 21.7926C177.27 23.0225 177.151 24.2656 177.122 25.5125C177.089 26.8346 177.073 28.2662 177.081 29.7881C177.089 31.3101 177.081 32.7307 177.122 34.061C177.151 35.3079 177.27 36.5511 177.478 37.7809C177.67 38.9032 178.015 39.9937 178.505 41.0218C179.023 42.0807 179.716 43.0449 180.555 43.874C181.753 45.0981 183.183 46.0714 184.762 46.7372C186.465 47.4268 188.289 47.7692 190.127 47.7445C191.958 47.7715 193.775 47.4289 195.47 46.7372C197.038 46.0661 198.46 45.0933 199.653 43.874C200.492 43.0443 201.188 42.0804 201.711 41.0218C202.204 39.9939 202.555 38.9036 202.754 37.7809C202.964 36.5549 203.086 35.3154 203.118 34.0719C203.159 32.7416 203.178 31.3183 203.167 29.7991L203.173 29.8018ZM196.275 29.8018C196.275 31.488 196.25 32.8922 196.193 34.009C196.16 34.9263 196.069 35.8407 195.919 36.7462C195.816 37.3496 195.632 37.9362 195.372 38.4899C195.16 38.9361 194.883 39.3485 194.55 39.7134C194.037 40.3016 193.399 40.769 192.684 41.082C191.878 41.4266 191.011 41.6017 190.135 41.5968C189.255 41.6005 188.383 41.4255 187.573 41.082C186.84 40.7748 186.185 40.3071 185.657 39.7134C185.322 39.3501 185.045 38.9375 184.836 38.4899C184.582 37.9356 184.407 37.3488 184.316 36.7462C184.17 35.8401 184.078 34.9261 184.042 34.009C183.993 32.8922 183.968 31.4898 183.968 29.8018C183.968 28.1157 183.993 26.7087 184.042 25.5919C184.078 24.6748 184.17 23.7608 184.316 22.8547C184.407 22.2522 184.582 21.6653 184.836 21.111C185.046 20.6638 185.323 20.2512 185.657 19.8875C186.186 19.2946 186.841 18.8271 187.573 18.5189C188.382 18.1716 189.255 17.9963 190.135 18.0043C191.011 17.9952 191.88 18.1705 192.684 18.5189C193.399 18.8329 194.036 19.3001 194.55 19.8875C194.883 20.2529 195.159 20.6651 195.372 21.111C195.632 21.6647 195.816 22.2513 195.919 22.8547C196.069 23.7603 196.16 24.6746 196.193 25.5919C196.253 26.706 196.275 28.1129 196.275 29.8018Z" fill="#23AF91"/>
<path d="M258.137 12.7432C258.134 12.4104 257.865 12.1413 257.532 12.1383H251.841C251.508 12.1398 251.238 12.4098 251.236 12.7432V33.7653L237.359 12.308C237.265 12.1629 237.183 12.1383 236.978 12.1383H231.701C231.368 12.1427 231.1 12.411 231.096 12.7432V46.8549C231.1 47.1867 231.369 47.4541 231.701 47.4571H237.389C237.721 47.4556 237.989 47.1869 237.991 46.8549V25.778L251.871 47.2846C251.967 47.4297 252.044 47.4544 252.252 47.4544H257.527C257.859 47.4529 258.129 47.1846 258.132 46.8522L258.137 12.7432Z" fill="#23AF91"/>
<path d="M219.991 12.7432C219.989 12.4098 219.719 12.1398 219.386 12.1383H213.701C213.367 12.1398 213.097 12.4098 213.096 12.7432V46.8522C213.097 47.1856 213.367 47.4556 213.701 47.4571H219.386C219.719 47.4556 219.989 47.1856 219.991 46.8522V12.7432Z" fill="#23AF91"/>
<path d="M151.932 29.8019C151.932 28.1048 151.951 26.6923 152 25.5673C152.033 24.6501 152.125 23.7358 152.274 22.8301C152.799 19.7917 155.126 17.9988 158.096 17.9988C160.034 18.0152 161.791 18.7324 162.913 20.3638C163.422 21.1254 163.792 21.9704 164.008 22.8602C164.025 22.9539 164.111 23.0193 164.205 23.0107H170.898C170.994 23.0107 171.029 22.945 171.013 22.852C170.282 18.7105 168.073 14.9906 164.17 13.1484C162.251 12.2602 160.158 11.8158 158.044 11.8482C154.276 11.8482 151.101 13.1384 148.521 15.7187C147.048 17.1545 146.042 19.0014 145.636 21.018C145.242 23.0034 145.043 25.9305 145.039 29.7991C145.036 33.6678 145.234 36.5939 145.636 38.5775C146.039 40.5967 147.041 42.4474 148.513 43.8878C151.091 46.4663 154.266 47.7555 158.036 47.7555C160.149 47.7875 162.243 47.3441 164.162 46.458C168.065 44.6159 170.274 40.896 171.005 36.7545C171.021 36.6587 170.986 36.5957 170.89 36.5957H164.194C164.099 36.5858 164.013 36.6518 163.997 36.7463C163.781 37.635 163.41 38.479 162.902 39.2399C161.78 40.8823 160.023 41.5912 158.085 41.6049C155.115 41.6049 152.788 39.8147 152.263 36.7764C152.114 35.8706 152.023 34.9564 151.989 34.0391C151.951 32.9086 151.932 31.4935 151.932 29.8019Z" fill="#23AF91"/>
<path d="M81.2448 12.7432C81.2433 12.4098 80.9733 12.1398 80.6398 12.1383H74.9545C74.6211 12.1398 74.3511 12.4098 74.3496 12.7432V46.8549C74.3526 47.1873 74.6221 47.4556 74.9545 47.4574H80.6398C80.9722 47.4556 81.2418 47.1873 81.2448 46.8549V36.842L85.8077 31.3867L95.1801 47.2764C95.2523 47.3936 95.382 47.4627 95.5195 47.4574H102.428C102.746 47.4574 102.803 47.26 102.645 46.989L90.3735 26.1859L101.632 12.6803C101.859 12.4066 101.763 12.1465 101.407 12.1465H93.8553C93.7634 12.1411 93.6749 12.1823 93.6199 12.256L81.2448 27.0974V12.7432Z" fill="#23AF91"/>
<path d="M122.664 41.6048C119.465 41.6048 116.563 38.6431 116.563 35.1066V12.7432C116.562 12.4098 116.292 12.1398 115.958 12.1383H110.273C109.939 12.1398 109.669 12.4098 109.668 12.7432V35.019C109.668 42.8065 115.493 47.7555 122.664 47.7555C129.836 47.7555 135.661 42.8065 135.661 35.019V12.7432C135.658 12.4104 135.389 12.1413 135.056 12.1383H129.368C129.036 12.1413 128.767 12.4108 128.766 12.7432V35.1066C128.766 38.6404 125.862 41.6048 122.664 41.6048Z" fill="#23AF91"/>
<path fill-rule="evenodd" clip-rule="evenodd" d="M17.2009 29.8018L34.8507 47.4544L45.9913 36.3138C47.9834 34.5201 51.0311 34.5998 52.9266 36.4953C54.8221 38.3909 54.9019 41.4385 53.1082 43.4306L38.4064 58.1352C36.4316 60.0773 33.2643 60.0773 31.2895 58.1352L10.0786 36.9187V49.5292C10.0786 52.3123 7.8224 54.5685 5.03928 54.5685C2.25616 54.5685 0 52.3123 0 49.5292V10.058C0 7.27491 2.25616 5.01875 5.03928 5.01875C7.8224 5.01875 10.0786 7.27491 10.0786 10.058V22.6686L31.2868 1.45758C33.261 -0.486023 36.4295 -0.486023 38.4037 1.45758L53.1164 16.1594C54.9101 18.1515 54.8303 21.1991 52.9348 23.0946C51.0393 24.9901 47.9916 25.0699 45.9995 23.2762L34.8589 12.1356L17.2009 29.8018ZM34.8589 24.7571C32.8183 24.756 30.9779 25.9844 30.1962 27.8694C29.4145 29.7544 29.8455 31.9247 31.288 33.3681C32.7306 34.8114 34.9007 35.2435 36.7861 34.4629C38.6715 33.6822 39.901 31.8425 39.901 29.8018C39.9017 28.4639 39.3709 27.1804 38.4253 26.2339C37.4797 25.2873 36.1969 24.7551 34.8589 24.7543V24.7571Z" fill="#23AF91"/>
</svg>
