<svg width="154" height="31" viewBox="0 0 154 31" fill="none" xmlns="http://www.w3.org/2000/svg">
<path d="M10.5522 4.66667L5.93555 9.66667L7.58437 11.3333L9.23319 13L12.2011 10L15.169 7L18.1368 10L21.4345 13L23.0833 11.3333L24.7321 9.33333L20.1154 4.66667C17.5483 2.05689 15.5276 0 15.4987 0C15.4699 0 13.1386 2.03734 10.5522 4.66667Z" fill="#545454" fill-opacity="0.7"/>
<path d="M128.939 7.33286C126.123 7.87931 124.076 9.973 123.003 12.6662C122.218 14.6471 122.218 16.9504 123.003 18.9995C123.884 21.2927 125.632 23.2677 127.95 23.9995C129.97 24.6338 132.735 24.2501 134.545 23.3329C135.234 22.9718 136.326 22.5362 136.853 21.9995L137.183 21.3329L136.523 20.9995C136.236 20.697 135.841 19.998 135.534 19.6662L134.875 18.9995L134.545 19.6662C133.242 20.7884 132.043 21.0971 130.588 20.9995C129.62 20.941 129.074 20.8696 128.279 20.3329C127.14 19.5522 126.143 18.208 125.971 16.6662C125.712 14.3633 126.818 11.9265 128.609 10.9995C129.567 10.5019 130.805 10.3735 131.907 10.6662C132.577 10.8516 133.554 11.4628 134.215 11.9995C134.474 12.2142 134.827 12.3329 134.875 12.3329C134.951 12.3329 137.135 10.1557 137.183 9.99953C137.24 9.85316 135.65 8.7427 134.875 8.33286C133.754 7.73763 132.818 7.38165 131.247 7.33286C130.376 7.31335 129.437 7.23528 128.939 7.33286Z" fill="#545454" fill-opacity="0.7"/>
<path d="M85.7392 15.3329C83.8644 19.8133 82.1505 23.578 82.1118 23.6663C82.0538 23.8329 82.0984 23.9996 83.7606 23.9996H85.7392L86.069 22.6663C86.3396 22.0094 86.5836 21.3721 86.7285 20.9996L87.0583 20.3329H90.6857H93.9833L94.9726 21.9996L95.6322 23.9996H97.6108C99.0894 24.0192 99.2982 24.0976 99.2596 23.9996C99.2306 23.931 97.5263 20.1663 95.6322 15.6663L92.3345 7.33292H90.6857H89.0369L85.7392 15.3329ZM91.675 14.3329C92.2548 15.7839 92.6643 16.9506 92.6643 16.9996C92.6643 17.0388 91.884 16.9996 90.6857 16.9996C89.3617 16.9996 88.3773 17.0584 88.3773 16.9996C88.3773 16.9506 88.9318 16.0682 89.3666 14.9996C90.623 11.8721 90.647 11.627 90.6857 11.6663C90.705 11.6859 91.0855 12.8819 91.675 14.3329Z" fill="#545454" fill-opacity="0.7"/>
<path d="M36.2734 15.6667V24H40.8901C44.5609 23.9614 45.624 23.7825 46.1664 23.6667C48.7911 23.0971 50.1235 21.9448 50.1235 19.6667C50.1235 17.8615 49.5101 16.5644 47.8152 15.6667L47.1557 15.3333H47.4854C48.0472 14.9858 48.9018 13.9415 49.1342 13.3333C49.4345 12.5611 49.4345 11.1249 49.1342 10.3333C48.5822 8.90465 47.0173 7.95626 45.1771 7.66667C44.8187 7.60875 42.9914 7.66667 40.5604 7.66667H36.2734V15.6667ZM44.1878 11C45.1176 11.222 45.8269 11.4742 45.8366 12.3333C45.8366 13.7717 44.6873 14.3333 41.2199 14.3333H39.9008V12.6667V10.6667H41.8794C43.0029 10.6667 43.9553 10.9517 44.1878 11ZM45.1771 17.3333C45.7291 17.4492 46.1959 17.6042 46.4961 18C46.7867 18.3861 46.7867 19.6139 46.4961 20C45.915 20.7819 45.2988 21 42.2092 21H39.9008V19V17.3333H42.2092C43.5652 17.3333 44.9059 17.2754 45.1771 17.3333Z" fill="#545454" fill-opacity="0.7"/>
<path d="M54.7402 15.6667V24H56.7188H58.3676V15.6667V7.66667H56.7188H54.7402V15.6667Z" fill="#545454" fill-opacity="0.7"/>
<path d="M63.6445 15.6667V24H65.2934H67.2719V18.6667V13.6667L71.2291 18.6667L75.1863 24H76.5053H78.1542V15.6667V7.66667H76.5053H74.5268V12.6667V17.6667L70.8994 12.6667L66.9422 7.66667H65.2934H63.6445V15.6667Z" fill="#545454" fill-opacity="0.7"/>
<path d="M103.217 15.6667V24H104.866H106.844V18.6667C106.844 15.8252 106.806 13.6667 106.844 13.6667C106.893 13.6667 108.635 15.8252 110.801 18.6667L114.759 24H116.078H117.726V15.6667V7.66667H116.078H114.099V12.6667V17.6667L110.472 12.6667L106.514 7.66667H104.866H103.217V15.6667Z" fill="#545454" fill-opacity="0.7"/>
<path d="M141.469 15.6667V24H147.734H154V22.3333V20.6667H149.383H145.096V19V17.3333H149.053H152.681V15.6667V14.3333H149.053H145.096V12.3333V10.6667H149.383H153.67V9.33333V7.66667H147.734H141.469V15.6667Z" fill="#545454" fill-opacity="0.7"/>
<path d="M13.5199 13.6667L11.8711 15.3333L13.5199 17.3333L15.4985 19L17.1473 17.3333L18.7961 15.3333L17.1473 13.6667L15.4985 12L13.5199 13.6667Z" fill="#545454" fill-opacity="0.7"/>
<path d="M25.391 13.6667L23.7422 15.3333L25.391 17.3333L27.3696 19L29.0184 17.3333L30.6672 15.3333L29.0184 13.6667L27.3696 12L25.391 13.6667Z" fill="#545454" fill-opacity="0.7"/>
<path d="M1.64882 13.6667L0 15.3333L1.64882 17.3333L3.62741 19L5.27623 17.3333L6.92505 15.3333L5.27623 13.6667C4.33989 12.7135 3.65667 12 3.62741 12C3.59815 12 2.58517 12.7135 1.64882 13.6667Z" fill="#545454" fill-opacity="0.7"/>
<path d="M7.58437 19.6667L5.93555 21.3333L10.5522 26.3333L15.4987 31L20.1154 26.3333L24.7321 21.6667L23.0833 19.6667L21.4345 18L18.1368 21L15.169 24L12.2011 21L9.23319 18L7.58437 19.6667Z" fill="#545454" fill-opacity="0.7"/>
</svg>
