<svg width="134" height="20" viewBox="0 0 134 20" fill="none" xmlns="http://www.w3.org/2000/svg">
<path d="M86.6147 3.60004C86.0855 3.78993 85.8379 4.24619 85.8379 4.80004C85.8379 5.81805 87.0031 6.233 87.7799 5.60004C88.0567 5.36795 88.1683 5.19564 88.1683 4.80004C88.1683 4.33586 87.7896 3.82157 87.3915 3.60004C87.1827 3.48399 86.8138 3.52619 86.6147 3.60004Z" fill="white" fill-opacity="0.7"/>
<path d="M20.5859 10V16H22.9164C26.1251 15.9946 26.6856 16.0445 27.5772 15.6C28.0801 15.3507 28.5092 14.8553 28.7425 14.4C29.0587 13.7821 29.276 12.7318 29.1309 12C29.0168 11.4417 28.7376 11.2011 28.3541 10.8C27.9705 10.4043 27.6554 10.0922 27.1888 10C26.7068 9.90243 26.8208 9.73551 27.1888 9.6C27.9612 9.32897 28.4885 9.1372 28.7425 8.4C28.8928 7.97178 28.8928 6.87701 28.7425 6.4C28.5299 5.70617 27.8472 5.13066 27.1888 4.8C26.3646 4.38804 25.8555 4.4 22.9164 4.4H20.5859V10ZM25.2468 6.4C25.5734 6.50299 25.8992 6.91271 26.0236 7.2C26.2621 7.74748 26.1017 8.44766 25.6352 8.8C25.2464 9.09813 25.2116 9.2 24.0816 9.2H22.9164V8V6.4H24.0816C24.8488 6.41626 25.0602 6.34037 25.2468 6.4ZM25.2468 10.8C26.2162 10.9138 26.8004 11.5219 26.8004 12.4C26.8004 12.8282 26.7179 13.329 26.412 13.6C26.0336 13.9415 25.4916 13.9729 24.0816 14H22.9164V12.4V10.8H23.6932C24.1701 10.8 25.0135 10.7675 25.2468 10.8Z" fill="white" fill-opacity="0.7"/>
<path d="M30.2969 10V16H31.4621H32.6273V10V4.4H31.4621H30.2969V10Z" fill="white" fill-opacity="0.7"/>
<path d="M51.6582 9.99961V15.9996H52.8234H53.9886V14.7996V13.1996L54.377 12.7996C54.5201 12.6207 54.3566 12.3996 54.377 12.3996C54.4026 12.3996 54.9443 13.4619 55.5423 14.3996L56.7075 15.9996H58.2611C59.0021 15.9996 59.4263 16.0159 59.4263 15.9996C59.4263 15.9833 58.7415 14.9439 57.8727 13.5996L56.3191 11.1996L57.8727 9.19961C58.7006 8.17512 59.4263 7.21587 59.4263 7.19961C59.4263 7.18335 58.5933 7.19961 57.8727 7.19961H56.7075L55.5423 8.79961C54.8472 9.67774 54.0295 10.3617 53.9886 10.3996C53.9222 10.4592 53.9886 10.3262 53.9886 7.59961V4.39961H52.8234H51.6582V9.99961Z" fill="white" fill-opacity="0.7"/>
<path d="M68.3594 10V16H69.5246H70.6898V13.2C70.7054 10.7174 70.6065 10.6222 70.6898 10.4C70.9814 9.61402 71.8144 8.95065 72.6318 9.2C72.8713 9.27047 73.216 9.39402 73.4087 9.6C73.8148 10.0391 73.7971 10.029 73.7971 13.2V16H74.9623H76.1275V12.8C76.1067 9.85121 76.2316 9.5957 76.1275 9.2C75.8463 8.12673 75.1278 7.53607 74.1855 7.2C73.8262 7.06991 73.5669 7.19458 73.0202 7.2C72.51 7.2 72.5194 7.10243 72.2434 7.2C71.6134 7.42766 70.9814 7.82542 70.6898 8.4V8.8V6.8V4.4H69.5246H68.3594V10Z" fill="white" fill-opacity="0.7"/>
<path d="M37.2867 7.1997C36.3601 7.33305 35.5861 7.75963 34.9562 8.3997C34.5815 8.77842 34.3824 8.77832 34.1794 9.1997C33.7942 10.0158 33.791 10.5009 33.791 11.5997C33.791 12.6985 33.7942 13.1836 34.1794 13.9997C34.3824 14.4211 34.5867 14.421 34.9562 14.7997C35.3362 15.1891 35.3166 15.3917 35.733 15.5997C36.4253 15.9411 37.1942 16.005 38.0635 15.9997C38.8963 15.989 39.334 15.9357 40.0055 15.5997C40.3647 15.4183 40.418 15.1784 40.7823 14.7997C41.1571 14.4157 41.3613 14.4158 41.5591 13.9997C41.9183 13.2369 41.9475 12.5972 41.9475 11.5997C41.9475 10.6022 41.9183 9.96246 41.5591 9.1997C41.3613 8.78365 41.1571 8.78375 40.7823 8.3997C40.418 8.02099 40.3647 7.78106 40.0055 7.5997C39.7609 7.48236 39.4577 7.25838 39.2287 7.1997C38.755 7.07702 37.7655 7.13036 37.2867 7.1997ZM38.4519 9.1997C38.9828 9.35972 39.4297 10.0209 39.6171 10.7997C39.6639 10.9811 39.6223 11.157 39.6171 11.5997C39.6171 12.2398 39.3536 12.4263 39.2287 12.7997C38.9164 13.7118 38.4402 13.9997 37.6751 13.9997C36.6444 13.9997 36.1215 13.1199 36.1215 11.5997C36.1215 9.81282 37.2131 8.82099 38.4519 9.1997Z" fill="white" fill-opacity="0.7"/>
<path d="M46.2216 7.19981C45.7214 7.26366 45.1114 7.38166 44.668 7.59981C44.2555 7.80732 44.2676 8.0114 43.8912 8.39981C43.5251 8.77758 43.3154 8.77948 43.1143 9.19981C42.7998 9.86489 42.762 10.4017 42.7259 11.1998C42.6331 13.1844 43.2448 14.8656 44.668 15.5998C45.8385 16.2064 47.7441 16.201 48.9404 15.5998C49.4819 15.3285 49.8581 14.5425 50.1056 13.9998C50.2861 13.6008 50.4476 13.2148 50.4941 12.7998H49.3288H48.1636C47.8903 13.7629 47.1136 14.3989 46.2216 13.9998C45.5461 13.7019 45.0564 12.7704 45.0564 11.5998C45.0564 10.4239 45.5255 9.55629 46.2216 9.19981C46.531 9.04551 46.6168 9.17853 46.9984 9.19981C47.3387 9.22109 47.1806 9.07211 47.3868 9.19981C47.7013 9.402 48.0605 9.63269 48.1636 9.99981V10.3998H49.3288H50.4941V9.99981C50.3342 8.62708 49.1571 7.56694 47.7752 7.19981C47.3936 7.10404 46.5774 7.15725 46.2216 7.19981Z" fill="white" fill-opacity="0.7"/>
<path d="M62.9226 7.20006C61.2088 7.44539 59.8089 8.58675 59.427 10.4001C59.3134 10.9601 59.3082 12.2614 59.427 12.8001C59.7728 14.4267 60.6746 15.6001 62.1458 16.0001C62.7343 16.1654 63.9033 16.1601 64.4762 16.0001C65.7977 15.6321 66.9421 14.4961 67.1951 13.2001C67.3345 12.5014 67.3049 12.8001 66.0299 12.8001H64.8646C64.8233 13.0454 64.6569 13.3761 64.4762 13.6001C64.0994 14.0641 63.5008 14.2934 62.9226 14.0001C62.2309 13.6481 61.7522 12.8107 61.7574 11.6001C61.7574 10.6454 62.1006 10.0854 62.5342 9.60006C62.8336 9.26407 62.8464 9.23206 63.311 9.20006C63.6362 9.17873 63.8659 9.09873 64.0878 9.20006C64.4595 9.3654 64.7459 9.59473 64.8646 10.0001V10.4001H66.0299H67.1951V10.0001C67.1073 9.24274 66.5564 8.48006 66.0299 8.00006C65.6943 7.69073 64.9666 7.31206 64.4762 7.20006C64.0065 7.0934 63.3665 7.13606 62.9226 7.20006Z" fill="white" fill-opacity="0.7"/>
<path d="M80.4011 7.19989C79.3027 7.38109 78.4987 8.03777 78.0707 8.79989C77.9366 9.03438 77.6823 9.4933 77.6823 9.59989C77.6823 9.6212 77.9692 9.96258 78.4591 9.99989C78.9439 10.0372 79.5212 9.9839 79.6243 9.99989C79.7945 10.0265 79.5315 9.81306 79.6243 9.59989C79.8306 9.12556 80.523 8.79456 81.178 8.79989C81.8535 8.79989 82.2761 9.42963 82.3432 9.99989C82.3793 10.3197 82.2075 10.2666 81.9548 10.3999C81.7898 10.4905 81.3568 10.7413 80.7896 10.7999C79.7118 10.9065 78.9696 10.9174 78.4591 11.1999C78.0672 11.4184 77.9298 11.6641 77.6823 11.9999C77.1976 12.6607 77.244 14.0324 77.6823 14.7999C78.1206 15.578 78.8731 15.9946 80.0127 15.9999C80.6367 16.0052 81.1332 15.8237 81.5664 15.5999C81.8242 15.4613 82.1782 15.0557 82.3432 14.7999C82.4205 14.672 82.3432 14.6509 82.3432 15.1999V15.9999H83.5084H84.6736V12.7999C84.6736 9.47429 84.5482 9.38613 84.2852 8.79989C84.1099 8.4055 83.5789 7.82905 83.12 7.59988C82.2897 7.18952 81.417 7.04 80.4011 7.19989ZM82.3432 12.3999C82.3432 13.0821 82.3106 13.6641 81.9548 13.9999C81.5886 14.3356 81.3568 14.3999 80.7896 14.3999C80.3822 14.3999 80.1932 14.0958 80.0127 13.9999C79.7291 13.84 79.6553 13.9197 79.6243 13.5999C79.5934 13.2748 79.7652 13.0344 80.0127 12.7999C80.2603 12.5707 80.2497 12.5598 81.178 12.3999C81.5905 12.3253 81.8826 12.0319 81.9548 11.9999C82.027 11.9732 82.3174 11.9999 82.3432 11.9999C82.3638 11.9946 82.3432 12.0854 82.3432 12.3999Z" fill="white" fill-opacity="0.7"/>
<path d="M93.9951 7.2C93.9375 7.21082 93.764 7.16754 93.6067 7.2C93.2188 7.28116 92.7088 7.71864 92.4415 8C92.3262 8.12445 92.1527 8.22686 92.0531 8.4V8.8V8V7.2H90.8879H89.7227V11.6V16H90.8879H92.0531V13.2C92.0688 10.4513 91.9378 10.2489 92.0531 10C92.3833 9.26955 93.1931 8.95652 93.9951 9.2C94.2048 9.26493 94.5885 9.40521 94.7719 9.6C95.1808 10.0383 95.1603 10.0347 95.1603 13.2V16H96.3256H97.4908V12.8C97.4646 9.375 97.4536 9.55209 97.1024 8.8C96.9137 8.38878 96.6715 7.82725 96.3256 7.6C95.9639 7.36734 95.2856 7.22705 94.7719 7.2C94.5203 7.18918 94.0528 7.18377 93.9951 7.2Z" fill="white" fill-opacity="0.7"/>
<path d="M85.8379 11.6V16H87.0031H88.1683V11.6V7.2H87.0031H85.8379V11.6Z" fill="white" fill-opacity="0.7"/>
<path d="M10.875 9.19957C9.52316 9.85942 8.58224 10.3626 8.54454 10.3996C8.50145 10.4312 8.56069 10.4207 8.54454 10.3996C8.52299 10.3837 8.15613 10.3679 8.15613 10.3996C8.15613 10.4365 8.18845 10.4101 8.15613 10.3996C8.10227 10.3943 8.17767 11.3496 8.15613 13.9996C8.1292 17.2144 8.02149 17.3843 8.15613 17.1996C8.17767 17.1732 8.52299 17.2049 8.54454 17.1996C8.60917 17.1996 12.0402 13.6576 12.0402 13.5996C12.0402 13.5362 12.3532 13.1996 12.4286 13.1996C12.3909 13.2735 12.4555 13.1996 12.4286 13.1996C12.4663 13.1257 12.364 12.8576 12.4286 12.7996H12.817H12.4286V13.1996V12.7996C12.4986 12.7468 12.8332 12.8207 12.817 12.7996C12.8062 12.7785 13.1522 12.4219 13.5938 11.9996C14.0354 11.572 14.2845 11.3368 14.3706 11.1996C14.4514 11.057 14.7375 10.8101 14.759 10.7996C14.7752 10.8418 14.7806 10.789 14.759 10.7996C14.7429 10.7573 14.7375 10.3996 14.759 10.3996C14.8344 10.3996 14.829 9.6418 14.759 9.59957C14.7321 9.58374 14.7375 9.62597 14.759 9.59957C14.7752 9.57318 14.7913 9.6418 14.759 9.59957C14.7213 9.55734 14.7375 9.19957 14.759 9.19957C14.7806 9.19957 14.7913 9.23652 14.759 9.19957C14.7267 9.15734 14.7375 9.21541 14.759 9.19957C14.7752 9.17846 14.7967 9.19957 14.759 9.19957C14.7213 9.19957 14.3545 9.22597 14.3706 9.19957C14.3868 9.1679 14.3976 9.19957 14.3706 9.19957C14.3383 9.19957 14.3706 8.83125 14.3706 8.79957C14.3706 8.7679 14.4353 8.85764 14.3706 8.79957C14.3006 8.74151 14.3275 8.77846 14.3706 8.79957C14.4137 8.82069 14.1923 8.61072 13.9822 8.39957C13.7776 8.18842 13.6369 8.02069 13.5938 7.99957C13.54 7.9679 12.5338 8.3972 10.875 9.19957Z" fill="#484848" fill-opacity="0.7"/>
<path d="M106.424 7.20063C105.449 7.323 104.272 8.07173 103.705 8.80063C103.432 9.15177 103.041 9.55371 102.928 10.0006C102.717 10.8785 102.701 12.36 102.928 13.2006C103.232 14.3286 104.305 15.1378 105.258 15.6006C106.176 16.0475 107.36 15.9305 108.366 15.6006C109.577 15.2069 110.454 14.4296 110.696 13.2006C110.835 12.4983 110.789 12.7847 109.531 12.8006H108.366V13.2006C108.165 13.8816 107.482 14.0751 106.812 14.0006C105.941 13.9102 105.403 13.1764 105.258 12.0006C105.088 10.6439 105.604 9.58902 106.424 9.20063C106.661 9.0889 106.829 9.17935 107.201 9.20063C107.577 9.22191 107.74 9.04102 107.977 9.20063C108.287 9.40812 108.273 10.0176 108.366 10.4006H109.531H110.696C110.438 8.36292 108.723 6.92397 106.424 7.20063Z" fill="white" fill-opacity="0.7"/>
<path d="M114.968 7.2002C113.236 7.38106 111.937 8.28729 111.473 10.0002C111.374 10.3619 111.473 10.7225 111.473 11.6002C111.473 12.5524 111.332 12.748 111.473 13.2002C111.822 14.3652 112.434 15.0895 113.415 15.6002C114.542 16.1854 116.545 16.1854 117.687 15.6002C118.668 15.1002 119.29 14.3599 119.629 13.2002C119.744 12.8172 119.603 12.6439 119.629 12.0002C119.655 11.1278 119.434 10.5854 119.241 10.0002C118.891 8.95224 118.606 8.07364 117.687 7.6002C116.988 7.24378 115.829 7.10976 114.968 7.2002ZM116.134 9.2002C116.676 9.3651 117.116 10.0182 117.299 10.8002C117.408 11.279 117.414 11.964 117.299 12.4002C117.127 13.0758 116.577 13.7661 116.134 14.0002C115.899 14.1225 115.654 14.064 115.357 14.0002C114.444 13.8087 113.808 13.0046 113.803 11.6002C113.803 10.1745 114.092 9.47682 114.968 9.2002C115.188 9.13636 115.852 9.11508 116.134 9.2002Z" fill="white" fill-opacity="0.7"/>
<path d="M125.067 7.20024C124.373 7.32459 123.462 7.72986 123.125 8.40024V8.80024V8.00024V7.20024H121.96H120.795V11.6002V16.0002H121.96H123.125V13.2002V10.4002V10.0002C123.4 9.42717 124.068 9.15699 124.679 9.20024C125.145 9.23809 125.243 9.57855 125.456 10.0002H125.844V13.2002V16.0002H126.621H127.786V13.2002C127.802 10.0105 127.812 10.0003 128.175 9.60024C128.413 9.34074 128.967 9.20024 129.34 9.20024C129.91 9.20024 130.288 9.5353 130.505 10.0002V13.2002V16.0002H131.67H132.836V12.8002C132.83 9.37264 132.742 9.48685 132.447 8.80024C132.292 8.43261 132.002 7.78406 131.67 7.60024C130.873 7.14611 129.796 7.15693 128.951 7.60024C128.599 7.78946 127.957 8.05424 127.786 8.40024C127.703 8.56243 127.802 8.80565 127.786 8.80024C127.771 8.80024 127.481 8.58406 127.398 8.40024C127.185 7.94071 127.066 7.82731 126.621 7.60024C126.082 7.31912 125.699 7.09212 125.067 7.20024Z" fill="white" fill-opacity="0.7"/>
<path d="M99.8212 13.2001C99.4051 13.3412 99.1903 13.5937 99.0444 14.0001C98.9147 14.3671 98.9309 14.8558 99.0444 15.2001C99.2444 15.8154 99.9604 16.0453 100.598 16.0001C100.993 15.9662 101.126 15.8598 101.375 15.6001C102.045 14.9001 101.84 13.6291 100.986 13.2001C100.77 13.0872 100.037 13.1267 99.8212 13.2001Z" fill="white" fill-opacity="0.7"/>
<path d="M0.776926 8.39961C0.119366 9.08142 0.000114631 9.2578 0.000114631 9.99961C0.000114631 10.9378 -0.0621999 10.7633 2.71896 13.5996C6.53496 17.4887 6.47905 17.5996 6.60301 17.5996C6.62996 17.5996 6.60301 15.9141 6.60301 13.9996V10.7996L3.88417 9.19961C2.43431 8.46325 1.18689 7.99961 1.16533 7.99961C1.13838 7.99961 1.04103 8.12688 0.776926 8.39961Z" fill="#939393" fill-opacity="0.7"/>
<path d="M6.99167 2.8002C6.87424 2.84235 6.7207 3.13696 6.60327 3.2002C6.39509 3.30559 2.67117 6.75277 2.71921 6.8002C2.73522 6.81073 3.73121 7.34676 5.04965 8.0002L7.38008 9.2002L10.0989 8.0002C11.4334 7.35203 12.4187 6.81073 12.4294 6.8002C12.4454 6.78439 11.4962 5.80142 10.4873 4.8002C8.36822 2.70816 8.54247 2.83181 7.76849 2.8002C7.5016 2.78966 7.11978 2.75804 6.99167 2.8002Z" fill="#D2D2D2" fill-opacity="0.7"/>
</svg>
