<svg width="130" height="49" viewBox="0 0 130 49" fill="none" xmlns="http://www.w3.org/2000/svg">
<path d="M14.574 47.8048H0L0 11.9512H13.991C20.7426 11.9512 24.4843 15.9672 24.4843 22.1097C24.4843 26.0905 22.1519 28.4235 20.4036 29.2804C22.4952 30.2887 25.0673 32.8615 25.0673 37.6463C25.0673 44.3426 20.7407 47.8048 14.574 47.8048ZM13.4081 17.9268H6.99552L6.99552 26.2926H13.4081C16.2753 26.2926 18.0717 24.5813 18.0717 22.1097C18.0717 19.6448 16.2753 17.9268 13.4081 17.9268ZM13.991 32.8658H6.99552L6.99552 41.8292H13.991C17.0489 41.8292 18.0717 39.461 18.0717 37.0487C18.0717 34.6298 17.0489 32.8658 13.991 32.8658Z" fill="white" fill-opacity="0.7"/>
<path d="M45.4703 32.8658V47.8048H39.0577V32.8658L28.5645 11.9512H36.1429L42.5555 26.2926L48.3851 11.9512H55.9636L45.4703 32.8658Z" fill="white" fill-opacity="0.7"/>
<path d="M75.2009 47.8048H60.627V11.9512H74.618C81.3695 11.9512 85.1113 15.9672 85.1113 22.1097C85.1113 26.0905 82.7788 28.4235 81.0305 29.2804C83.1222 30.2887 85.6942 32.8615 85.6942 37.6463C85.6942 44.3426 81.3675 47.8048 75.2009 47.8048ZM74.035 17.9268H67.6225V26.2926H74.035C76.9024 26.2926 78.6987 24.5813 78.6987 22.1097C78.6987 19.6448 76.9024 17.9268 74.035 17.9268ZM74.618 32.8658H67.6225V41.8292H74.618C77.6758 41.8292 78.6987 39.461 78.6987 37.0487C78.6925 34.6298 77.6758 32.8658 74.618 32.8658Z" fill="white" fill-opacity="0.7"/>
<path d="M99.6869 1.19531L92.6914 1.19531V37.049H99.6869V1.19531Z" fill="#444444" fill-opacity="0.7"/>
<path d="M121.256 17.9268V47.8048H114.26V17.9268H105.516V11.9512L130 11.9512V17.9268H121.256Z" fill="white" fill-opacity="0.7"/>
</svg>
