<svg width="27" height="27" viewBox="0 0 27 27" fill="none" xmlns="http://www.w3.org/2000/svg">
<g filter="url(#filter0_b_246_1502)">
<circle cx="13.5" cy="13.5" r="13.5" fill="#D9D9D9" fill-opacity="0.1"/>
<circle cx="13.5" cy="13.5" r="13.25" stroke="#1CAF86" stroke-width="0.5"/>
</g>
<path fill-rule="evenodd" clip-rule="evenodd" d="M13.9961 21.6571C9.9987 19.8763 8 18.0997 8 16.3272V9.66493C8 9.15353 8.19627 9.03468 8.73947 8.70575L8.73947 8.70574C8.90394 8.60615 9.10021 8.4873 9.33246 8.33246C9.44026 8.2606 11.7064 7 13.9961 7C15.9916 7 17.6604 7.66623 18.6597 8.33246C18.892 8.4873 19.0882 8.60615 19.2527 8.70575C19.7959 9.03468 19.9922 9.15353 19.9922 9.66493C20.0053 9.80966 19.9989 12.8876 19.9947 14.858V14.8583C19.9933 15.5301 19.9922 16.0732 19.9922 16.3272C19.9922 18.1039 17.9935 19.8805 13.9961 21.6571ZM18.6593 16.3278C18.6593 16.1743 18.6597 15.9173 18.6605 15.4981L18.6632 14.1968L18.6653 13.0698C18.6678 11.5826 18.6671 10.3063 18.6657 9.9115L18.5742 9.85471C18.3587 9.72106 18.0779 9.54685 17.9202 9.44168C16.9366 8.78599 15.5015 8.33301 13.9957 8.33301C12.5553 8.33301 10.6836 9.0334 10.0711 9.44168C9.91342 9.54684 9.63264 9.72103 9.4172 9.85468L9.41718 9.85469L9.33203 9.90754V16.3278C9.33203 17.3328 10.8171 18.7054 13.9963 20.1933C17.175 18.7087 18.6593 17.3366 18.6593 16.3278ZM16.1912 11.8594L13.3311 14.7194L11.8035 13.1918L10.8613 14.134L13.3311 16.6038L17.1334 12.8016L16.1912 11.8594Z" fill="#1CAF86"/>
<defs>
<filter id="filter0_b_246_1502" x="-9.6" y="-9.6" width="46.2" height="46.2" filterUnits="userSpaceOnUse" color-interpolation-filters="sRGB">
<feFlood flood-opacity="0" result="BackgroundImageFix"/>
<feGaussianBlur in="BackgroundImageFix" stdDeviation="4.8"/>
<feComposite in2="SourceAlpha" operator="in" result="effect1_backgroundBlur_246_1502"/>
<feBlend mode="normal" in="SourceGraphic" in2="effect1_backgroundBlur_246_1502" result="shape"/>
</filter>
</defs>
</svg>
