<svg width="27" height="27" viewBox="0 0 27 27" fill="none" xmlns="http://www.w3.org/2000/svg">
<g filter="url(#filter0_b_246_1459)">
<circle cx="13.5" cy="13.5" r="13.5" fill="#D9D9D9" fill-opacity="0.1"/>
<circle cx="13.5" cy="13.5" r="13.25" stroke="#1CAF86" stroke-width="0.5"/>
</g>
<path d="M6 12.75L8.10525 10.3822C8.38671 10.0655 8.73207 9.81199 9.11859 9.63838C9.50511 9.46477 9.92403 9.375 10.3477 9.375H10.5M6 19.125H10.125L13.125 16.875C13.125 16.875 13.7325 16.4648 14.625 15.75C16.5 14.25 14.625 11.8755 12.75 13.125C11.223 14.1427 9.75 15 9.75 15" stroke="#1CAF86" stroke-width="1.125" stroke-linecap="round" stroke-linejoin="round"/>
<path d="M10.5 14.625V9.75C10.5 9.35218 10.658 8.97064 10.9393 8.68934C11.2206 8.40804 11.6022 8.25 12 8.25H19.5C19.8978 8.25 20.2794 8.40804 20.5607 8.68934C20.842 8.97064 21 9.35218 21 9.75V14.25C21 14.6478 20.842 15.0294 20.5607 15.3107C20.2794 15.592 19.8978 15.75 19.5 15.75H14.625" stroke="#1CAF86" stroke-width="1.125"/>
<path d="M19.125 12.0075L19.1325 11.9992M12.375 12.0075L12.3825 11.9992M15.75 13.5C15.3522 13.5 14.9706 13.342 14.6893 13.0607C14.408 12.7794 14.25 12.3978 14.25 12C14.25 11.6022 14.408 11.2206 14.6893 10.9393C14.9706 10.658 15.3522 10.5 15.75 10.5C16.1478 10.5 16.5294 10.658 16.8107 10.9393C17.092 11.2206 17.25 11.6022 17.25 12C17.25 12.3978 17.092 12.7794 16.8107 13.0607C16.5294 13.342 16.1478 13.5 15.75 13.5Z" stroke="#1CAF86" stroke-width="1.125" stroke-linecap="round" stroke-linejoin="round"/>
<defs>
<filter id="filter0_b_246_1459" x="-9.6" y="-9.6" width="46.2" height="46.2" filterUnits="userSpaceOnUse" color-interpolation-filters="sRGB">
<feFlood flood-opacity="0" result="BackgroundImageFix"/>
<feGaussianBlur in="BackgroundImageFix" stdDeviation="4.8"/>
<feComposite in2="SourceAlpha" operator="in" result="effect1_backgroundBlur_246_1459"/>
<feBlend mode="normal" in="SourceGraphic" in2="effect1_backgroundBlur_246_1459" result="shape"/>
</filter>
</defs>
</svg>
