<svg width="27" height="27" viewBox="0 0 27 27" fill="none" xmlns="http://www.w3.org/2000/svg">
<g filter="url(#filter0_b_246_1515)">
<circle cx="13.5" cy="13.5" r="13.5" fill="#D9D9D9" fill-opacity="0.1"/>
<circle cx="13.5" cy="13.5" r="13.25" stroke="#1CAF86" stroke-width="0.5"/>
</g>
<path d="M9 14.4495C9.6676 13.7951 10.5652 13.4286 11.5 13.4286C12.4348 13.4286 13.3324 13.7951 14 14.4495C14.6676 15.1039 15.5652 15.4704 16.5 15.4704C17.4348 15.4704 18.3324 15.1039 19 14.4495V8.02092C18.3324 8.6753 17.4348 9.04184 16.5 9.04184C15.5652 9.04184 14.6676 8.6753 14 8.02092C13.3324 7.36654 12.4348 7 11.5 7C10.5652 7 9.6676 7.36654 9 8.02092V14.4495ZM9 14.4495V19.4495" stroke="#1CAF86" stroke-width="1.42857" stroke-linecap="round" stroke-linejoin="round"/>
<defs>
<filter id="filter0_b_246_1515" x="-9.6" y="-9.6" width="46.2" height="46.2" filterUnits="userSpaceOnUse" color-interpolation-filters="sRGB">
<feFlood flood-opacity="0" result="BackgroundImageFix"/>
<feGaussianBlur in="BackgroundImageFix" stdDeviation="4.8"/>
<feComposite in2="SourceAlpha" operator="in" result="effect1_backgroundBlur_246_1515"/>
<feBlend mode="normal" in="SourceGraphic" in2="effect1_backgroundBlur_246_1515" result="shape"/>
</filter>
</defs>
</svg>
