<svg width="154" height="19" viewBox="0 0 154 19" fill="none" xmlns="http://www.w3.org/2000/svg">
<path d="M129.214 9.64163C128.11 8.9338 126.894 8.43046 125.742 7.80128C124.996 7.39232 124.201 7.03054 123.552 6.51147C122.449 5.63062 122.676 3.90038 123.828 3.14537C125.482 2.07576 128.224 2.67348 128.516 4.85988C128.516 4.90707 128.565 4.93852 128.613 4.93852H131.112C131.176 4.93852 131.225 4.89134 131.209 4.82842C131.079 3.31839 130.479 2.06003 129.376 1.25783C128.321 0.487091 127.121 0.078125 125.839 0.078125C119.237 0.078125 118.636 6.85752 122.189 8.99672C122.595 9.24839 126.083 10.9472 127.315 11.6865C128.548 12.4257 128.938 13.7785 128.402 14.8481C127.916 15.8233 126.65 16.4997 125.385 16.421C124.006 16.3424 122.935 15.6188 122.562 14.4863C122.497 14.2818 122.465 13.8886 122.465 13.7156C122.465 13.6684 122.416 13.6212 122.368 13.6212H119.658C119.61 13.6212 119.561 13.6684 119.561 13.7156C119.561 15.6188 120.048 16.6727 121.378 17.6322C122.627 18.5445 123.99 18.922 125.401 18.922C129.1 18.922 131.014 16.8929 131.404 14.7852C131.744 12.7246 131.112 10.8685 129.214 9.64163Z" fill="white" fill-opacity="0.7"/>
<path d="M11.583 0.424316L10.3825 0.424316L9.06847 0.424316C9.0198 0.424316 8.98736 0.455774 8.97114 0.487233L6.74863 7.59694C6.71618 7.69132 6.5864 7.69132 6.55396 7.59694L4.33145 0.487233C4.31523 0.440045 4.28278 0.424316 4.23412 0.424316L2.92008 0.424316L1.7196 0.424316L0.097337 0.424316C0.048669 0.424316 0 0.471503 0 0.518692L0 18.6705C0 18.7177 0.048669 18.7649 0.097337 18.7649H2.80652C2.85519 18.7649 2.90386 18.7177 2.90386 18.6705L2.90386 4.87575C2.90386 4.76564 3.06608 4.74991 3.09853 4.84429L5.33726 12.0012L5.49948 12.5045C5.51571 12.5517 5.54815 12.5674 5.59682 12.5674H7.67332C7.72199 12.5674 7.75443 12.536 7.77066 12.5045L7.93288 12.0012L10.1716 4.84429C10.2041 4.73418 10.3663 4.76564 10.3663 4.87575L10.3663 18.6705C10.3663 18.7177 10.4149 18.7649 10.4636 18.7649H13.1728C13.2215 18.7649 13.2701 18.7177 13.2701 18.6705L13.2701 0.518692C13.2701 0.471503 13.2215 0.424316 13.1728 0.424316L11.583 0.424316Z" fill="white" fill-opacity="0.7"/>
<path d="M87.7324 0.424316C87.6838 0.424316 87.6513 0.455774 87.6351 0.487233L85.4126 7.59694C85.3801 7.69132 85.2504 7.69132 85.2179 7.59694L82.9954 0.487233C82.9792 0.440045 82.9467 0.424316 82.8981 0.424316L78.7775 0.424316C78.7288 0.424316 78.6802 0.471503 78.6802 0.518692V18.6705C78.6802 18.7177 78.7288 18.7649 78.7775 18.7649H81.4867C81.5354 18.7649 81.584 18.7177 81.584 18.6705V4.87575C81.584 4.76564 81.7463 4.74991 81.7787 4.84429L84.0174 12.0012L84.1797 12.5045C84.1959 12.5517 84.2283 12.5674 84.277 12.5674H86.3535C86.4022 12.5674 86.4346 12.536 86.4508 12.5045L86.6131 12.0012L88.8518 4.84429C88.8842 4.73418 89.0465 4.76564 89.0465 4.87575V18.6705C89.0465 18.7177 89.0951 18.7649 89.1438 18.7649H91.853C91.9017 18.7649 91.9503 18.7177 91.9503 18.6705V0.518692C91.9503 0.471503 91.9017 0.424316 91.853 0.424316L87.7324 0.424316Z" fill="white" fill-opacity="0.7"/>
<path d="M52.7886 0.424316L47.7434 0.424316L45.0342 0.424316L39.9889 0.424316C39.9403 0.424316 39.8916 0.471503 39.8916 0.518692V2.78373C39.8916 2.83092 39.9403 2.87811 39.9889 2.87811L44.9368 2.87811V18.6705C44.9368 18.7177 44.9855 18.7649 45.0342 18.7649H47.7434C47.792 18.7649 47.8407 18.7177 47.8407 18.6705V2.87811L52.7886 2.87811C52.8373 2.87811 52.886 2.83092 52.886 2.78373V0.518692C52.886 0.471503 52.8535 0.424316 52.7886 0.424316Z" fill="white" fill-opacity="0.7"/>
<path d="M68.7677 18.7648H71.2336C71.2984 18.7648 71.3471 18.7019 71.3309 18.6389L66.237 0.424247C66.2207 0.377059 66.1883 0.361328 66.1396 0.361328L65.1987 0.361328L63.544 0.361328L62.6031 0.361328C62.5544 0.361328 62.522 0.392788 62.5058 0.424247L57.4118 18.6389C57.3956 18.7019 57.4443 18.7648 57.5092 18.7648H59.975C60.0237 18.7648 60.0561 18.7333 60.0724 18.7019L61.5486 13.401C61.5648 13.3538 61.5973 13.3381 61.6459 13.3381H67.0968C67.1454 13.3381 67.1779 13.3696 67.1941 13.401L68.6704 18.7019C68.6866 18.7333 68.7353 18.7648 68.7677 18.7648ZM62.2949 10.7428L64.274 3.64878C64.3065 3.55441 64.4363 3.55441 64.4687 3.64878L66.4479 10.7428C66.4641 10.8057 66.4154 10.8686 66.3505 10.8686H62.3922C62.3273 10.8686 62.2786 10.8057 62.2949 10.7428Z" fill="white" fill-opacity="0.7"/>
<path d="M110.817 18.7648H113.283C113.348 18.7648 113.396 18.7019 113.38 18.6389L108.286 0.424247C108.27 0.377059 108.238 0.361328 108.189 0.361328L107.248 0.361328L105.593 0.361328L104.652 0.361328C104.604 0.361328 104.571 0.392788 104.555 0.424247L99.4612 18.6389C99.4449 18.7019 99.4936 18.7648 99.5585 18.7648H102.024C102.073 18.7648 102.105 18.7333 102.122 18.7019L103.598 13.401C103.614 13.3538 103.647 13.3381 103.695 13.3381H109.146C109.195 13.3381 109.227 13.3696 109.243 13.401L110.72 18.7019C110.736 18.7333 110.768 18.7648 110.817 18.7648ZM104.344 10.7428L106.323 3.64878C106.356 3.55441 106.486 3.55441 106.518 3.64878L108.497 10.7428C108.513 10.8057 108.465 10.8686 108.4 10.8686H104.442C104.377 10.8686 104.328 10.8057 104.344 10.7428Z" fill="white" fill-opacity="0.7"/>
<path d="M24.2691 16.075V10.4439C24.2691 10.3967 24.3178 10.3495 24.3664 10.3495H31.5855C31.6342 10.3495 31.6829 10.3023 31.6829 10.2551V7.99007C31.6829 7.94289 31.6342 7.8957 31.5855 7.8957L24.3664 7.8957C24.3178 7.8957 24.2691 7.84851 24.2691 7.80132V2.98811C24.2691 2.94092 24.3178 2.89374 24.3664 2.89374L32.5751 2.89374C32.6238 2.89374 32.6724 2.84655 32.6724 2.79936V0.534319C32.6724 0.487131 32.6238 0.439941 32.5751 0.439941L24.2691 0.439941L21.4626 0.439941C21.4139 0.439941 21.3652 0.487131 21.3652 0.534319V2.89374V7.91143V10.3652V16.1851V18.6704C21.3652 18.7176 21.4139 18.7647 21.4626 18.7647H24.2691H32.9158C32.9644 18.7647 33.0131 18.7176 33.0131 18.6704V16.2795C33.0131 16.2323 32.9644 16.1851 32.9158 16.1851H24.3502C24.3015 16.1694 24.2691 16.1379 24.2691 16.075Z" fill="white" fill-opacity="0.7"/>
<path d="M153.97 18.6075L144.593 9.21697C144.56 9.18551 144.56 9.12259 144.593 9.09114L153.029 0.597236C153.094 0.534318 153.045 0.439941 152.964 0.439941L149.508 0.439941C149.476 0.439941 149.46 0.45567 149.443 0.4714L142.289 7.67549C142.224 7.7384 142.127 7.69122 142.127 7.61257V0.534319C142.127 0.487131 142.078 0.439941 142.03 0.439941L139.32 0.439941C139.272 0.439941 139.223 0.487131 139.223 0.534319V18.6861C139.223 18.7333 139.272 18.7805 139.32 18.7805H142.03C142.078 18.7805 142.127 18.7333 142.127 18.6861V10.6955C142.127 10.6169 142.241 10.5697 142.289 10.6326L150.401 18.749C150.417 18.7647 150.449 18.7805 150.465 18.7805H153.921C153.986 18.7647 154.034 18.6546 153.97 18.6075Z" fill="white" fill-opacity="0.7"/>
</svg>
