<svg width="142" height="35" viewBox="0 0 142 35" fill="none" xmlns="http://www.w3.org/2000/svg">
<path d="M46.5098 29.3681V12.0693H48.9793L49.3909 13.2762C50.1475 12.3113 51.7165 11.667 53.5069 11.667C56.7834 11.667 59.2692 14.2238 59.2692 18.1038C59.2692 21.9836 56.7857 24.5406 53.5069 24.5406C51.7413 24.5406 50.4578 24.1485 49.8025 23.3337H49.3909V29.3681H46.5098ZM56.388 18.1038C56.388 15.8294 54.4989 14.4831 52.6837 14.4831C50.8686 14.4831 49.3909 15.8294 49.3909 18.1038C49.3909 20.3783 50.8686 21.7245 52.6837 21.7245C54.4989 21.7245 56.388 20.3783 56.388 18.1038Z" fill="white" fill-opacity="0.7"/>
<path d="M60.916 18.1038C60.916 14.3584 63.7338 11.667 67.5015 11.667C71.2692 11.667 74.087 14.3584 74.087 18.1038C74.087 21.8491 71.2692 24.5406 67.5015 24.5406C63.7338 24.5406 60.916 21.8229 60.916 18.1038ZM70.7943 18.1038C70.7943 15.8999 69.3968 14.4831 67.5015 14.4831C65.6061 14.4831 64.2088 15.9021 64.2088 18.1038C64.2088 20.3055 65.6061 21.7245 67.5015 21.7245C69.3968 21.7245 70.7943 20.3076 70.7943 18.1038Z" fill="white" fill-opacity="0.7"/>
<path d="M76.1445 24.5401V7.24121H79.4373V24.5401H76.1445Z" fill="white" fill-opacity="0.7"/>
<path d="M90.9617 12.0693H94.2545L88.4922 26.9544C87.928 28.4492 87.2292 29.3682 85.1994 29.3682H82.3183V26.5521H84.7878C85.2511 26.5521 85.455 26.5175 85.611 26.1498L86.0226 25.3452L80.6719 12.0693H83.9646L87.2574 20.5176H88.0806L90.9617 12.0693Z" fill="white" fill-opacity="0.7"/>
<path d="M94.6675 25.3452H97.9602C98.0884 26.1671 98.8414 26.9543 100.841 26.9543C102.711 26.9543 103.723 25.8845 103.723 24.1383V22.5291C103.031 23.2528 101.659 23.736 100.018 23.736C96.6888 23.736 94.2559 21.2918 94.2559 17.7015C94.2559 14.1111 96.6888 11.667 100.018 11.667C101.734 11.667 102.929 12.3274 103.723 13.2762H104.134V12.0693H107.015V24.1383C107.015 27.4792 104.761 29.7704 100.841 29.7704C96.4617 29.7704 94.7453 27.1649 94.6675 25.3452ZM103.723 17.7015C103.723 15.7325 102.66 14.4831 100.841 14.4831C99.0221 14.4831 97.5486 15.7325 97.5486 17.7015C97.5486 19.6704 99.0474 20.9199 100.841 20.9199C102.635 20.9199 103.723 19.6948 103.723 17.7015Z" fill="white" fill-opacity="0.7"/>
<path d="M109.072 18.1038C109.072 14.3584 111.89 11.667 115.658 11.667C119.425 11.667 122.243 14.3584 122.243 18.1038C122.243 21.8491 119.425 24.5406 115.658 24.5406C111.89 24.5406 109.072 21.8229 109.072 18.1038ZM118.951 18.1038C118.951 15.8999 117.553 14.4831 115.658 14.4831C113.762 14.4831 112.365 15.9021 112.365 18.1038C112.365 20.3055 113.762 21.7245 115.658 21.7245C117.553 21.7245 118.951 20.3076 118.951 18.1038Z" fill="white" fill-opacity="0.7"/>
<path d="M124.301 24.5406V12.0693H127.182V13.2762C127.694 12.7035 129.353 11.667 131.298 11.667C134.269 11.667 136.237 13.7036 136.237 16.8969V24.5406H132.944V17.2992C132.944 15.6768 132.088 14.4831 130.475 14.4831C128.862 14.4831 127.594 15.7281 127.594 17.2992V24.5406H124.301Z" fill="white" fill-opacity="0.7"/>
<path d="M28.8119 23.333L36.2206 18.9077C36.6243 18.6797 37.0438 18.1546 37.0438 17.7008V9.25256C37.0438 8.79874 36.6243 8.27368 36.2206 8.04566L28.8119 3.62037C28.4082 3.39236 27.9785 3.39458 27.5771 3.62037L19.7568 8.04566C19.3533 8.27368 19.3452 8.79874 19.3452 9.25256V24.5399L13.9945 27.356L8.6438 24.5399V18.5054L13.9945 15.6893L17.2873 17.2985V13.2755L14.4061 11.6663C14.2088 11.5557 14.2236 11.6663 13.9945 11.6663C13.7654 11.6663 13.3686 11.5557 13.1713 11.6663L5.76264 16.0916C5.35898 16.3197 4.93945 16.8447 4.93945 17.2985V25.7468C4.93945 26.2006 5.35898 26.7257 5.76264 26.9537L13.1713 31.379C13.5749 31.6048 14.0025 31.6048 14.4061 31.379L22.2264 26.9537C22.6301 26.7257 22.638 26.2006 22.638 25.7468V10.4595H23.0496L27.9887 7.64336L33.3395 10.4595V16.4939L27.9887 19.31L24.696 17.7008V21.7238L27.5771 23.333C27.9808 23.5588 28.4105 23.5588 28.8119 23.333Z" fill="#545454" fill-opacity="0.7"/>
</svg>
