<svg width="287" height="214" viewBox="0 0 287 214" fill="none" xmlns="http://www.w3.org/2000/svg">
<path d="M287 187.928H0V188.071H287V187.928Z" fill="#E0E0E0"/>
<path d="M69.403 194.523H61.8262V194.667H69.403V194.523Z" fill="#E0E0E0"/>
<path d="M57.6184 194.592H46.127V194.735H57.6184V194.592Z" fill="#E0E0E0"/>
<path d="M125.7 193.628H95.8574V193.771H125.7V193.628Z" fill="#E0E0E0"/>
<path d="M137.186 192.077H121.172V192.221H137.186V192.077Z" fill="#E0E0E0"/>
<path d="M229.846 196.618H192.479V196.762H229.846V196.618Z" fill="#E0E0E0"/>
<path d="M189.293 196.618H180.098V196.762H189.293V196.618Z" fill="#E0E0E0"/>
<path d="M240.316 193.151H223.883V193.295H240.316V193.151Z" fill="#E0E0E0"/>
<path d="M136.037 162.327H25.2034C24.3352 162.326 23.503 161.98 22.8896 161.365C22.2762 160.751 21.9316 159.918 21.9316 159.05V3.24884C21.9392 2.38556 22.2871 1.56012 22.8997 0.951817C23.5123 0.343515 24.3401 0.00147885 25.2034 0H136.037C136.906 0 137.74 0.345311 138.355 0.959969C138.969 1.57463 139.315 2.40828 139.315 3.27754V159.05C139.315 159.919 138.969 160.753 138.355 161.367C137.74 161.982 136.906 162.327 136.037 162.327ZM25.2034 0.1148C24.3732 0.116321 23.5776 0.447183 22.9911 1.03477C22.4045 1.62235 22.0751 2.41863 22.0751 3.24884V159.05C22.0751 159.88 22.4045 160.676 22.9911 161.264C23.5776 161.851 24.3732 162.182 25.2034 162.184H136.037C136.868 162.182 137.664 161.852 138.252 161.264C138.839 160.677 139.17 159.88 139.171 159.05V3.24884C139.17 2.41811 138.839 1.62183 138.252 1.03441C137.664 0.446997 136.868 0.116318 136.037 0.1148H25.2034Z" fill="#E0E0E0"/>
<path d="M260.201 162.327H149.362C148.493 162.326 147.66 161.98 147.046 161.366C146.431 160.751 146.086 159.918 146.084 159.05V3.24884C146.093 2.38504 146.442 1.5596 147.056 0.951458C147.669 0.343314 148.498 0.00146272 149.362 0H260.201C261.063 0.00298738 261.89 0.345691 262.501 0.953832C263.112 1.56197 263.459 2.38655 263.467 3.24884V159.05C263.467 159.917 263.123 160.749 262.511 161.363C261.899 161.978 261.068 162.324 260.201 162.327ZM149.362 0.1148C148.531 0.116318 147.735 0.446997 147.147 1.03441C146.56 1.62183 146.229 2.41811 146.227 3.24884V159.05C146.229 159.88 146.56 160.677 147.147 161.264C147.735 161.852 148.531 162.182 149.362 162.184H260.201C261.032 162.182 261.828 161.852 262.415 161.264C263.003 160.677 263.333 159.88 263.335 159.05V3.24884C263.333 2.41811 263.003 1.62183 262.415 1.03441C261.828 0.446997 261.032 0.116318 260.201 0.1148H149.362Z" fill="#E0E0E0"/>
<path d="M36.0802 187.928H51.8652L51.8652 127.623H36.0802L36.0802 187.928Z" fill="#E0E0E0"/>
<path d="M39.0842 187.927H36.0879V179.397H42.2297L39.0842 187.927Z" fill="#EBEBEB"/>
<path d="M126.158 187.928H141.943V127.623H126.158V187.928Z" fill="#E0E0E0"/>
<path d="M36.082 182.692H128.771V127.623L36.082 127.623V182.692Z" fill="#EBEBEB"/>
<path d="M98.2168 130.413V172.028H125.694V130.413H98.2168Z" fill="#E0E0E0"/>
<path d="M109.237 132.801H114.673C115.841 132.801 116.998 132.563 118.071 132.103C119.145 131.642 120.114 130.967 120.918 130.12H102.992C103.797 130.967 104.765 131.642 105.839 132.103C106.913 132.563 108.069 132.801 109.237 132.801Z" fill="#EBEBEB"/>
<path d="M68.6895 130.413V172.028H96.1668V130.413H68.6895Z" fill="#E0E0E0"/>
<path d="M79.4365 132.801H84.8723C86.0397 132.8 87.1948 132.562 88.2674 132.102C89.34 131.641 90.3077 130.967 91.1117 130.12H73.1914C73.996 130.967 74.9646 131.642 76.0383 132.103C77.1119 132.563 78.2682 132.801 79.4365 132.801Z" fill="#EBEBEB"/>
<path d="M39.1641 130.418V172.033H66.6415V130.418H39.1641Z" fill="#E0E0E0"/>
<path d="M49.9379 132.801H55.3737C56.542 132.801 57.6982 132.563 58.7719 132.103C59.8455 131.642 60.8142 130.967 61.6188 130.12H43.6641C44.472 130.971 45.4453 131.647 46.5241 132.108C47.603 132.569 48.7647 132.805 49.9379 132.801Z" fill="#EBEBEB"/>
<path d="M125.78 187.927H128.777V179.397H122.635L125.78 187.927Z" fill="#EBEBEB"/>
<path d="M163.223 92.3516L250.184 92.3516V10.901L163.223 10.901V92.3516Z" fill="#E0E0E0"/>
<path d="M160.101 92.3516L248.727 92.3516V10.901L160.101 10.901V92.3516Z" fill="#EBEBEB"/>
<path d="M163.223 98.1484L250.184 98.1484V92.3453L163.223 92.3453V98.1484Z" fill="#E0E0E0"/>
<path d="M154.9 98.1484L243.525 98.1484V92.3453L154.9 92.3453V98.1484Z" fill="#EBEBEB"/>
<path d="M244.357 87.9773V15.2744L164.474 15.2744V87.9773H244.357Z" fill="#F5F5F5"/>
<path d="M235.988 87.9773L210.324 15.2744H198.213L223.876 87.9773H235.988Z" fill="#FAFAFA"/>
<path d="M242.331 63.3126C242.248 63.3126 242.167 63.2794 242.108 63.2202C242.049 63.161 242.016 63.0807 242.016 62.9969V18.1159C242.017 18.0331 242.051 17.9543 242.11 17.8963C242.169 17.8384 242.249 17.8059 242.331 17.8059C242.414 17.8059 242.492 17.8386 242.55 17.8967C242.609 17.9548 242.641 18.0337 242.641 18.1159V62.9969C242.641 63.0797 242.609 63.1591 242.551 63.2182C242.493 63.2772 242.414 63.3111 242.331 63.3126Z" fill="#EBEBEB"/>
<path d="M221.27 87.9773L195.607 15.2744H190.889L216.546 87.9773H221.27Z" fill="#FAFAFA"/>
<path d="M165.025 87.9773V15.2744H164.469V87.9773H165.025Z" fill="#E0E0E0"/>
<path d="M159.066 20.8654H246.027L246.429 16.9736H159.468L159.066 20.8654Z" fill="#E0E0E0"/>
<path d="M159.066 23.7178H246.027L246.429 19.8203H159.468L159.066 23.7178Z" fill="#E0E0E0"/>
<path d="M159.066 27.1387H246.027L246.429 23.2412H159.468L159.066 27.1387Z" fill="#E0E0E0"/>
<path d="M159.066 30.9445H246.027L246.429 27.0527H159.468L159.066 30.9445Z" fill="#E0E0E0"/>
<path d="M159.066 35.5078H246.027L246.429 31.6104H159.468L159.066 35.5078Z" fill="#E0E0E0"/>
<path d="M159.066 40.6339H246.027L246.429 36.7422H159.468L159.066 40.6339Z" fill="#E0E0E0"/>
<path d="M158.137 187.928H183.875V133.857H158.137V187.928Z" fill="#E0E0E0"/>
<path d="M160.72 187.928H158.137V180.563H163.435L160.72 187.928Z" fill="#EBEBEB"/>
<path d="M221.449 187.928H247.188V133.857H221.449V187.928Z" fill="#E0E0E0"/>
<path d="M158.137 183.41H223.705V133.857H158.137V183.41Z" fill="#EBEBEB"/>
<path d="M160.14 149.642H221.695V136.049H160.14V149.642Z" fill="#E0E0E0"/>
<path d="M188.013 140.274H193.828C196.354 140.274 198.764 138.598 200.504 135.636H181.332C183.071 138.598 185.488 140.274 188.013 140.274Z" fill="#EBEBEB"/>
<path d="M221.117 187.928H223.706V180.563H218.402L221.117 187.928Z" fill="#EBEBEB"/>
<path d="M160.14 165.427H221.695V151.834H160.14V165.427Z" fill="#E0E0E0"/>
<path d="M188.013 156.059H193.828C196.354 156.059 198.764 154.383 200.504 151.421H181.332C183.071 154.406 185.488 156.059 188.013 156.059Z" fill="#EBEBEB"/>
<path d="M160.14 181.212H221.695V167.62H160.14V181.212Z" fill="#E0E0E0"/>
<path d="M188.013 171.844H193.828C196.354 171.844 198.764 170.168 200.504 167.206H181.332C183.071 170.168 185.488 171.844 188.013 171.844Z" fill="#EBEBEB"/>
<path d="M54.4377 88.9121H104.41L104.41 22.0755H54.4377L54.4377 88.9121Z" fill="#E0E0E0"/>
<path d="M50.9653 88.9121H103.486L103.486 22.0755H50.9653L50.9653 88.9121Z" fill="#EBEBEB"/>
<path d="M99.0898 84.5157V26.4785L55.3683 26.4785L55.3683 84.5157H99.0898Z" fill="#FAFAFA"/>
<path d="M77.9386 66.5838H66.5849C66.4723 66.5838 66.3642 66.539 66.2846 66.4594C66.2049 66.3797 66.1602 66.2716 66.1602 66.159V54.7881C66.1692 52.0506 67.2607 49.4279 69.1964 47.4923C71.132 45.5566 73.7547 44.4651 76.4922 44.4561H87.8401C87.8959 44.4561 87.9511 44.467 88.0027 44.4884C88.0542 44.5097 88.101 44.541 88.1405 44.5805C88.1799 44.6199 88.2112 44.6667 88.2326 44.7183C88.2539 44.7698 88.2649 44.825 88.2649 44.8808V56.2288C88.2619 58.9692 87.1739 61.5969 85.2388 63.5374C83.3037 65.4778 80.679 66.5731 77.9386 66.5838ZM67.0326 65.74H77.9386C80.4597 65.7369 82.8765 64.7337 84.6587 62.9505C86.4408 61.1673 87.4426 58.7499 87.4441 56.2288V45.3228H76.5381C74.0175 45.3258 71.6009 46.3281 69.818 48.1099C68.0352 49.8917 67.0314 52.3076 67.0269 54.8282L67.0326 65.74Z" fill="#EBEBEB"/>
<path d="M122.836 100.835H79.8489L73.6152 126.223H116.602L122.836 100.835Z" fill="#E0E0E0"/>
<path d="M116.602 126.223L116.43 127.623H73.4434L73.6156 126.223H116.602Z" fill="#E0E0E0"/>
<path d="M121.51 100.835H78.5228L72.2949 126.223H115.282L121.51 100.835Z" fill="#F0F0F0"/>
<path d="M114.369 125.063L120.034 101.994H79.4349L73.7695 125.063H114.369Z" fill="#FAFAFA"/>
<path d="M104.078 126.223L103.906 127.623H56.5684L56.7463 126.223H104.078Z" fill="#F0F0F0"/>
<path d="M219.223 129.403H218.54C218.54 127.991 218.54 124.409 218.471 116.201C218.345 101.323 218.109 100.416 218.109 100.416L219.74 107.304C220.778 114.892 219.441 122.532 219.223 129.403Z" fill="#E0E0E0"/>
<path d="M222.264 104.743C225.857 101.19 232.865 100.725 240.029 100.421C242.841 100.3 232.176 105.702 226.827 109.748C222.677 112.888 220.14 113.629 218.762 117.021C218.63 112.618 219.17 107.803 222.264 104.743Z" fill="#E0E0E0"/>
<path d="M218.313 97.0058C215.88 92.3851 209.755 88.0285 202.884 86.3753C200.187 85.7267 209.135 94.9164 212.533 100.84C215.179 105.432 218.681 110.851 219.226 114.737C220.047 107.051 220.747 101.644 218.313 97.0058Z" fill="#E0E0E0"/>
<path d="M218.632 133.851C219.784 133.851 220.893 133.411 221.731 132.62C222.569 131.829 223.072 130.748 223.138 129.598L223.534 125.517H213.725L214.126 129.598C214.192 130.748 214.696 131.829 215.534 132.62C216.372 133.411 217.48 133.851 218.632 133.851Z" fill="#EBEBEB"/>
<path d="M213.091 127.089H224.169L224.485 122.543H212.77L213.091 127.089Z" fill="#EBEBEB"/>
<path d="M143.5 213.849C204.965 213.849 254.793 210.94 254.793 207.351C254.793 203.763 204.965 200.854 143.5 200.854C82.0345 200.854 32.207 203.763 32.207 207.351C32.207 210.94 82.0345 213.849 143.5 213.849Z" fill="#F5F5F5"/>
<path d="M82.7138 84.5781H55.1445V207.248H82.7138V84.5781Z" fill="#1CAF86"/>
<path opacity="0.7" d="M82.7138 84.5781H55.1445V207.248H82.7138V84.5781Z" fill="#FAFAFA"/>
<path d="M124.891 44.0312H97.3223V207.242H124.891V44.0312Z" fill="#1CAF86"/>
<path opacity="0.1" d="M124.891 44.0312H97.3223V207.242H124.891V44.0312Z" fill="black"/>
<path d="M167.073 84.5781H139.504V207.248H167.073V84.5781Z" fill="#1CAF86"/>
<path opacity="0.4" d="M167.073 84.5781H139.504V207.248H167.073V84.5781Z" fill="black"/>
<path d="M72.9325 84.5781H45.3633V207.248H72.9325V84.5781Z" fill="#1CAF86"/>
<path opacity="0.8" d="M72.9325 84.5781H45.3633V207.248H72.9325V84.5781Z" fill="#FAFAFA"/>
<path d="M115.116 44.0312H87.5469V207.242H115.116V44.0312Z" fill="#1CAF86"/>
<path opacity="0.2" d="M115.116 44.0312H87.5469V207.242H115.116V44.0312Z" fill="#FAFAFA"/>
<path d="M157.292 84.5781H129.723V207.248H157.292V84.5781Z" fill="#1CAF86"/>
<path opacity="0.2" d="M157.292 84.5781H129.723V207.248H157.292V84.5781Z" fill="black"/>
<path d="M260.414 150.961H259.84C259.826 140.38 256.911 130.005 251.413 120.964L251.907 120.666C257.457 129.798 260.399 140.275 260.414 150.961ZM248.222 116.269C246.602 114.127 244.834 112.101 242.93 110.207L243.337 109.806C245.262 111.723 247.048 113.776 248.681 115.947L248.222 116.269Z" fill="#1CAF86"/>
<path opacity="0.3" d="M260.414 150.961H259.84C259.826 140.38 256.911 130.005 251.413 120.964L251.907 120.666C257.457 129.798 260.399 140.275 260.414 150.961ZM248.222 116.269C246.602 114.127 244.834 112.101 242.93 110.207L243.337 109.806C245.262 111.723 247.048 113.776 248.681 115.947L248.222 116.269Z" fill="black"/>
<path d="M241.919 111.194C231.366 100.645 217.057 94.7157 202.135 94.709H194.013V95.3117C186.97 96.3393 180.187 98.6922 174.02 102.246C147.283 117.669 137.979 152.367 153.402 179.087C157.65 186.449 163.511 192.753 170.545 197.525C177.578 202.297 185.602 205.413 194.013 206.639V207.213H202.146C213.277 207.218 224.158 203.922 233.414 197.74C242.67 191.559 249.884 182.771 254.144 172.488C258.403 162.205 259.516 150.889 257.342 139.973C255.168 129.058 249.804 119.032 241.93 111.166L241.919 111.194ZM202.135 192.565C193.909 192.566 185.867 190.128 179.027 185.559C172.187 180.99 166.855 174.495 163.706 166.896C160.557 159.297 159.731 150.934 161.335 142.866C162.938 134.798 166.898 127.386 172.713 121.569C178.528 115.751 185.938 111.788 194.006 110.181C202.073 108.575 210.436 109.397 218.036 112.543C225.637 115.689 232.134 121.018 236.706 127.856C241.278 134.695 243.719 142.735 243.721 150.961C243.736 156.427 242.67 161.842 240.585 166.895C238.501 171.948 235.438 176.539 231.574 180.405C227.71 184.271 223.12 187.335 218.068 189.422C213.016 191.509 207.601 192.577 202.135 192.565Z" fill="#1CAF86"/>
<path opacity="0.3" d="M241.919 111.194C231.366 100.645 217.057 94.7157 202.135 94.709H194.013V95.3117C186.97 96.3393 180.187 98.6922 174.02 102.246C147.283 117.669 137.979 152.367 153.402 179.087C157.65 186.449 163.511 192.753 170.545 197.525C177.578 202.297 185.602 205.413 194.013 206.639V207.213H202.146C213.277 207.218 224.158 203.922 233.414 197.74C242.67 191.559 249.884 182.771 254.144 172.488C258.403 162.205 259.516 150.889 257.342 139.973C255.168 129.058 249.804 119.032 241.93 111.166L241.919 111.194ZM202.135 192.565C193.909 192.566 185.867 190.128 179.027 185.559C172.187 180.99 166.855 174.495 163.706 166.896C160.557 159.297 159.731 150.934 161.335 142.866C162.938 134.798 166.898 127.386 172.713 121.569C178.528 115.751 185.938 111.788 194.006 110.181C202.073 108.575 210.436 109.397 218.036 112.543C225.637 115.689 232.134 121.018 236.706 127.856C241.278 134.695 243.719 142.735 243.721 150.961C243.736 156.427 242.67 161.842 240.585 166.895C238.501 171.948 235.438 176.539 231.574 180.405C227.71 184.271 223.12 187.335 218.068 189.422C213.016 191.509 207.601 192.577 202.135 192.565Z" fill="black"/>
<path d="M235.588 150.961H250.266C250.276 163.353 246.195 175.402 238.655 185.236C231.115 195.071 220.539 202.14 208.569 205.346C196.599 208.553 183.905 207.717 172.459 202.969C161.013 198.22 151.455 189.825 145.27 179.087L157.989 171.745C162.564 179.676 169.628 185.876 178.086 189.382C186.544 192.887 195.922 193.504 204.766 191.135C213.61 188.766 221.424 183.545 226.998 176.281C232.571 169.017 235.59 160.117 235.588 150.961Z" fill="#1CAF86"/>
<path opacity="0.2" d="M235.588 150.961H250.266C250.276 163.353 246.195 175.402 238.655 185.236C231.115 195.071 220.539 202.14 208.569 205.346C196.599 208.553 183.905 207.717 172.459 202.969C161.013 198.22 151.455 189.825 145.27 179.087L157.989 171.745C162.564 179.676 169.628 185.876 178.086 189.382C186.544 192.887 195.922 193.504 204.766 191.135C213.61 188.766 221.424 183.545 226.998 176.281C232.571 169.017 235.59 160.117 235.588 150.961Z" fill="#FAFAFA"/>
<path d="M194.012 94.709C208.928 94.7181 223.23 100.648 233.778 111.195C244.325 121.742 250.255 136.045 250.264 150.961H235.587C235.58 139.937 231.198 129.365 223.403 121.57C215.607 113.774 205.036 109.392 194.012 109.386V94.709Z" fill="#1CAF86"/>
<path d="M194.013 94.709V109.386C186.713 109.384 179.542 111.304 173.219 114.953C166.897 118.601 161.646 123.851 157.996 130.172C154.346 136.494 152.425 143.665 152.426 150.965C152.426 158.265 154.349 165.436 158 171.757L145.269 179.087C129.846 152.356 139.145 117.669 165.876 102.234C174.433 97.3027 184.137 94.7076 194.013 94.709Z" fill="#1CAF86"/>
<path opacity="0.8" d="M194.013 94.709V109.386C186.713 109.384 179.542 111.304 173.219 114.953C166.897 118.601 161.646 123.851 157.996 130.172C154.346 136.494 152.425 143.665 152.426 150.965C152.426 158.265 154.349 165.436 158 171.757L145.269 179.087C129.846 152.356 139.145 117.669 165.876 102.234C174.433 97.3027 184.137 94.7076 194.013 94.709Z" fill="#FAFAFA"/>
<path d="M180.22 133.988L175.708 136.629L168.906 126.59L173.418 123.949L180.22 133.988Z" fill="#E4897B"/>
<path d="M173.2 133.775L178.148 130.624C178.232 130.567 178.334 130.544 178.435 130.558C178.535 130.571 178.627 130.622 178.693 130.699L181.753 134.258C181.826 134.35 181.879 134.457 181.908 134.571C181.938 134.685 181.943 134.804 181.923 134.921C181.904 135.037 181.86 135.148 181.795 135.246C181.73 135.344 181.645 135.428 181.546 135.492C179.824 136.559 178.906 136.99 176.73 138.362C175.387 139.211 172.712 141.117 170.858 142.299C169.004 143.482 167.747 141.725 168.413 141.054C171.392 138.109 172.098 136.221 172.638 134.499C172.737 134.2 172.936 133.945 173.2 133.775Z" fill="#263238"/>
<path d="M170.933 135.985H170.801C170.696 135.967 170.597 135.923 170.512 135.858C170.427 135.793 170.359 135.709 170.313 135.612C170.282 135.558 170.266 135.497 170.266 135.434C170.266 135.372 170.282 135.31 170.313 135.256C170.658 134.63 172.965 134.412 173.229 134.389C173.247 134.387 173.266 134.391 173.281 134.4C173.297 134.41 173.309 134.424 173.315 134.441C173.326 134.455 173.332 134.472 173.332 134.49C173.332 134.507 173.326 134.525 173.315 134.539C172.718 135.09 171.668 135.985 170.933 135.985ZM172.988 134.585C172.185 134.676 170.692 134.923 170.468 135.336C170.451 135.365 170.442 135.398 170.442 135.431C170.442 135.465 170.451 135.497 170.468 135.526C170.5 135.599 170.55 135.662 170.614 135.71C170.677 135.758 170.751 135.79 170.83 135.801C171.272 135.876 172.07 135.423 172.988 134.585Z" fill="#1CAF86"/>
<path d="M172.941 134.579C172.178 134.579 170.932 134.304 170.731 133.839C170.679 133.718 170.668 133.535 170.921 133.34C171.012 133.264 171.119 133.209 171.234 133.177C171.349 133.145 171.469 133.138 171.586 133.156C172.419 133.265 173.268 134.373 173.308 134.419C173.317 134.432 173.321 134.447 173.321 134.462C173.321 134.477 173.317 134.492 173.308 134.505C173.304 134.519 173.296 134.531 173.285 134.54C173.273 134.549 173.26 134.555 173.245 134.557C173.145 134.573 173.043 134.581 172.941 134.579ZM171.46 133.322C171.303 133.322 171.151 133.377 171.03 133.477C170.829 133.632 170.875 133.736 170.892 133.77C171.047 134.132 172.31 134.447 173.067 134.402C172.69 133.896 172.164 133.521 171.563 133.328L171.46 133.322Z" fill="#1CAF86"/>
<path d="M192.642 55.9639C192.555 56.4173 192.487 56.7388 192.4 57.1119L192.131 58.1738C191.941 58.8798 191.74 59.5686 191.557 60.2574C191.12 61.6293 190.638 62.9724 190.127 64.2754C189.617 65.5784 189.054 66.9158 188.474 68.2073C188.187 68.8559 187.9 69.4931 187.567 70.1302L187.332 70.6124L187.2 70.8764C187.137 71.0084 187.068 71.1405 186.993 71.2667C186.715 71.7402 186.378 72.1761 185.989 72.564C185.315 73.2208 184.539 73.7654 183.693 74.1769C182.954 74.539 182.186 74.8385 181.397 75.0723C179.951 75.4922 178.469 75.7804 176.971 75.9333C174.109 76.231 171.224 76.231 168.361 75.9333L168.407 73.2355C169.716 73.092 171.082 72.9428 172.425 72.719C173.768 72.4951 175.06 72.2712 176.334 71.9727C177.568 71.687 178.777 71.3031 179.95 70.8247C180.912 70.491 181.784 69.9411 182.499 69.2175C182.592 69.1093 182.667 68.9873 182.723 68.8559L183.016 68.104C183.268 67.4783 183.503 66.8469 183.739 66.2155C184.221 64.9585 184.657 63.6842 185.099 62.4214C185.541 61.1586 185.943 59.8786 186.31 58.6043C186.505 57.9672 186.689 57.3357 186.884 56.7043L187.131 55.7572L187.344 54.8848L192.642 55.9639Z" fill="#E4897B"/>
<path d="M188.998 49.2542C186.846 49.8282 185.336 58.662 185.336 58.662L191.271 62.68C191.271 62.68 196.959 53.7429 195.289 51.378C193.579 48.927 192.138 48.4563 188.998 49.2542Z" fill="#1CAF86"/>
<path opacity="0.6" d="M188.998 49.2542C186.846 49.8282 185.336 58.662 185.336 58.662L191.271 62.68C191.271 62.68 196.959 53.7429 195.289 51.378C193.579 48.927 192.138 48.4563 188.998 49.2542Z" fill="#FAFAFA"/>
<path d="M188.801 52.4746L193.393 53.5422L193.835 58.0482C193.054 59.6408 192.192 61.1926 191.252 62.6975L187.699 60.2695C187.825 58.1802 188.216 53.8752 188.801 52.4746Z" fill="#1CAF86"/>
<path opacity="0.3" d="M188.801 52.4746L193.393 53.5422L193.835 58.0482C193.054 59.6408 192.192 61.1926 191.252 62.6975L187.699 60.2695C187.825 58.1802 188.216 53.8752 188.801 52.4746Z" fill="#FAFAFA"/>
<path d="M169.165 73.23L165.463 69.4531L164.975 74.7454C164.975 74.7454 167.753 76.6224 169.676 75.6121L169.165 73.23Z" fill="#E4897B"/>
<path d="M161.106 68.9131L160.934 73.3673L164.975 74.7679L165.457 69.4756L161.106 68.9131Z" fill="#E4897B"/>
<path d="M159.968 135.417L156.26 131.738L163.578 121.963L167.286 125.636L159.968 135.417Z" fill="#E4897B"/>
<path d="M158.339 129.148L163.689 131.571C163.782 131.609 163.857 131.681 163.9 131.773C163.942 131.864 163.949 131.968 163.918 132.064L162.615 136.57C162.578 136.683 162.518 136.786 162.439 136.873C162.359 136.961 162.262 137.031 162.154 137.078C162.046 137.126 161.929 137.15 161.81 137.15C161.692 137.149 161.575 137.124 161.467 137.075C159.619 136.197 158.77 135.681 156.416 134.619C154.97 133.964 151.193 132.432 149.195 131.531C147.198 130.629 147.984 128.603 148.897 128.798C152.995 129.688 155.681 129.567 157.415 129.08C157.722 128.995 158.048 129.019 158.339 129.148Z" fill="#263238"/>
<path d="M168.912 126.589L172.419 131.766L176.931 129.126L173.424 123.954L168.912 126.589Z" fill="#CE6F64"/>
<path d="M167.288 125.636L163.574 121.963L159.803 127.003L163.517 130.682L167.288 125.636Z" fill="#CE6F64"/>
<path d="M212.709 80.7894H191.471C186.482 50.1321 188.974 49.2596 188.974 49.2596C188.974 49.2596 192.389 48.5593 195.965 48.1116C196.579 48.037 197.193 47.9681 197.802 47.9107C201.01 47.6808 204.231 47.6808 207.439 47.9107C208.048 47.9394 208.656 47.9853 209.253 48.037C211.668 48.2558 214.07 48.6103 216.445 49.0988C212.341 66.8297 212.381 72.1507 212.709 80.7894Z" fill="#1CAF86"/>
<path opacity="0.6" d="M212.709 80.7894H191.471C186.482 50.1321 188.974 49.2596 188.974 49.2596C188.974 49.2596 192.389 48.5593 195.965 48.1116C196.579 48.037 197.193 47.9681 197.802 47.9107C201.01 47.6808 204.231 47.6808 207.439 47.9107C208.048 47.9394 208.656 47.9853 209.253 48.037C211.668 48.2558 214.07 48.6103 216.445 49.0988C212.341 66.8297 212.381 72.1507 212.709 80.7894Z" fill="#FAFAFA"/>
<path d="M209.277 48.0432L209.047 48.5827C208.927 48.8812 205.971 55.8266 200.242 60.4645L198.842 61.6125L197.768 60.1603C194.548 55.7979 195.512 50.1268 195.989 48.135C196.603 48.0604 197.217 47.9915 197.826 47.9341C201.034 47.7043 204.255 47.7043 207.463 47.9341C208.072 47.9456 208.68 47.9915 209.277 48.0432Z" fill="#1CAF86"/>
<path opacity="0.1" d="M209.277 48.0432L209.047 48.5827C208.927 48.8812 205.971 55.8266 200.242 60.4645L198.842 61.6125L197.768 60.1603C194.548 55.7979 195.512 50.1268 195.989 48.135C196.603 48.0604 197.217 47.9915 197.826 47.9341C201.034 47.7043 204.255 47.7043 207.463 47.9341C208.072 47.9456 208.68 47.9915 209.277 48.0432Z" fill="#FAFAFA"/>
<path d="M196.784 21.4903C192.146 19.4181 189.357 27.2991 189.672 32.8784C189.988 38.4577 190.82 45.2998 188.375 44.1518C185.93 43.0038 187.663 41.2818 187.663 41.2818C187.663 41.2818 184.219 44.0083 188.128 45.5064C192.037 47.0046 198.988 46.8611 203.052 44.9324C205.377 41.4253 204.378 28.3151 204.378 28.3151L196.784 21.4903Z" fill="#263238"/>
<path d="M206.505 37.0684C205.902 40.168 205.294 45.8506 207.464 47.917C207.464 47.917 204.594 54.7074 199.158 59.1214C195.748 54.5007 197.826 47.917 197.826 47.917C201.27 47.0904 201.196 44.5246 200.593 42.1196L206.505 37.0684Z" fill="#E4897B"/>
<path d="M204.093 39.1289L200.592 42.1137C200.744 42.6774 200.844 43.2538 200.89 43.8357C202.21 43.6463 204.024 42.1941 204.168 40.8107C204.247 40.2503 204.222 39.6801 204.093 39.1289Z" fill="#CE6F64"/>
<path d="M206.87 28.9002C207.444 34.0662 207.829 36.2187 205.722 39.2896C202.554 43.916 196.096 43.5257 193.972 38.6582C192.061 34.2785 191.401 26.6042 196.027 23.671C197.044 23.0212 198.21 22.6422 199.414 22.5702C200.618 22.4982 201.821 22.7356 202.908 23.2597C203.995 23.7838 204.929 24.5772 205.623 25.5645C206.316 26.5518 206.746 27.7001 206.87 28.9002Z" fill="#E4897B"/>
<path d="M196.601 25.3526C198.455 27.5281 204.063 33.8593 207.978 33.0385C211.996 32.1947 212.134 24.7155 207.289 21.6216C202.444 18.5278 191.625 19.515 196.601 25.3526Z" fill="#263238"/>
<path d="M208.213 16.272C204.522 15.0494 204.195 18.6541 204.482 20.8985L209.017 24.2334C210.466 24.0048 211.869 23.5455 213.172 22.873C214.952 21.8571 211.904 17.4947 208.213 16.272Z" fill="#263238"/>
<path d="M209.046 33.3251C208.939 34.3182 208.462 35.2345 207.709 35.8909C206.699 36.7461 205.694 35.9884 205.551 34.7429C205.424 33.6293 205.797 31.8729 207.014 31.4653C208.231 31.0578 209.161 32.1082 209.046 33.3251Z" fill="#E4897B"/>
<path d="M170.771 103.319C170.616 107.979 172.04 113.651 173.601 118.38C173.934 119.391 174.273 120.361 174.606 121.25C176.029 125.131 177.303 127.834 177.303 127.834L171.052 131.393C171.052 131.393 170.203 130.325 168.952 128.448C168.378 127.622 167.769 126.629 167.098 125.504C163.596 119.649 159.016 110.08 158.798 99.8975C158.453 83.9633 191.481 80.7891 191.481 80.7891H207.1L202.726 93.2162C202.726 93.2162 171.053 94.8406 170.771 103.319Z" fill="#1CAF86"/>
<path opacity="0.6" d="M170.771 103.319C170.616 107.979 172.04 113.651 173.601 118.38C173.934 119.391 174.273 120.361 174.606 121.25C176.029 125.131 177.303 127.834 177.303 127.834L171.052 131.393C171.052 131.393 170.203 130.325 168.952 128.448C168.378 127.622 167.769 126.629 167.098 125.504C163.596 119.649 159.016 110.08 158.798 99.8975C158.453 83.9633 191.481 80.7891 191.481 80.7891H207.1L202.726 93.2162C202.726 93.2162 171.053 94.8406 170.771 103.319Z" fill="black"/>
<path d="M174.606 121.28C173.791 122.635 171.587 126.084 168.963 128.449C168.389 127.623 167.781 126.63 167.109 125.505L173.601 118.398C173.923 119.391 174.273 120.379 174.606 121.28Z" fill="#263238"/>
<path d="M179.985 90.1172L179.319 96.8904C174.727 98.3369 171.145 100.334 170.795 103.009C170.014 97.0052 174.193 93.4808 179.985 90.1172Z" fill="#263238"/>
<path d="M197.095 80.7842C197.095 80.7842 177.545 88.7628 174.565 97.5794C170.766 108.83 160.434 124.73 160.434 124.73L164.773 130.378C164.773 130.378 176.701 118.817 184.829 105.581C195.011 88.935 219.544 106.517 212.736 80.7842H197.095Z" fill="#1CAF86"/>
<path opacity="0.6" d="M197.095 80.7842C197.095 80.7842 177.545 88.7628 174.565 97.5794C170.766 108.83 160.434 124.73 160.434 124.73L164.773 130.378C164.773 130.378 176.701 118.817 184.829 105.581C195.011 88.935 219.544 106.517 212.736 80.7842H197.095Z" fill="black"/>
<path d="M199.399 31.7067C199.473 32.12 199.312 32.4988 199.043 32.5448C198.773 32.5907 198.469 32.2979 198.417 31.8789C198.365 31.4599 198.503 31.0925 198.773 31.0409C199.043 30.9892 199.324 31.2934 199.399 31.7067Z" fill="#263238"/>
<path d="M194.707 32.5454C194.782 32.9587 194.621 33.3375 194.351 33.3835C194.081 33.4294 193.777 33.1366 193.726 32.7234C193.674 32.3101 193.812 31.9312 194.081 31.8796C194.351 31.8279 194.632 32.1436 194.707 32.5454Z" fill="#263238"/>
<path d="M194.209 31.8854L193.158 31.7764C193.158 31.7764 193.813 32.4594 194.209 31.8854Z" fill="#263238"/>
<path d="M196.075 33.0381C195.875 34.0496 195.537 35.0288 195.07 35.9483C195.31 36.0597 195.572 36.1175 195.837 36.1175C196.101 36.1175 196.363 36.0597 196.603 35.9483L196.075 33.0381Z" fill="#DE5753"/>
<path d="M198.99 37.0394C198.974 37.0386 198.959 37.0333 198.945 37.0242C198.932 37.0151 198.922 37.0024 198.915 36.9877C198.908 36.9679 198.908 36.946 198.917 36.9266C198.926 36.9073 198.942 36.8921 198.961 36.8844C199.747 36.5031 200.361 35.8418 200.683 35.0304C200.686 35.0208 200.692 35.012 200.698 35.0045C200.705 34.997 200.713 34.9909 200.722 34.9866C200.731 34.9823 200.741 34.9799 200.751 34.9795C200.761 34.9792 200.771 34.9809 200.781 34.9845C200.801 34.9922 200.817 35.0071 200.827 35.0262C200.836 35.0453 200.838 35.0672 200.833 35.0878C200.491 35.9454 199.837 36.6411 199.001 37.0337L198.99 37.0394Z" fill="#263238"/>
<path d="M199.921 29.8466C199.881 29.8472 199.842 29.8329 199.812 29.8064C199.577 29.5851 199.294 29.4216 198.985 29.3289C198.677 29.2362 198.35 29.2169 198.033 29.2726C198.013 29.2787 197.992 29.2807 197.971 29.2784C197.95 29.2762 197.93 29.2698 197.912 29.2596C197.894 29.2494 197.878 29.2357 197.865 29.2192C197.852 29.2026 197.843 29.1837 197.837 29.1635C197.827 29.1232 197.832 29.0803 197.852 29.0439C197.873 29.0074 197.907 28.9804 197.946 28.9683C198.316 28.8901 198.699 28.9014 199.064 29.0012C199.428 29.1011 199.763 29.2866 200.042 29.5423C200.071 29.5723 200.087 29.6125 200.087 29.6543C200.087 29.6961 200.071 29.7362 200.042 29.7662C200.03 29.7884 200.012 29.8073 199.991 29.8213C199.97 29.8353 199.946 29.844 199.921 29.8466Z" fill="#263238"/>
<path d="M192.147 30.679H192.09C192.051 30.6614 192.02 30.6295 192.004 30.59C191.988 30.5505 191.988 30.5064 192.004 30.4667C192.147 30.1165 192.371 29.8056 192.659 29.56C192.946 29.3143 193.289 29.1411 193.657 29.0546C193.698 29.0478 193.74 29.0575 193.774 29.0818C193.808 29.106 193.831 29.1427 193.838 29.1838C193.844 29.2249 193.835 29.267 193.81 29.3009C193.786 29.3348 193.75 29.3577 193.708 29.3646C193.393 29.4438 193.101 29.5963 192.855 29.8097C192.61 30.0232 192.419 30.2915 192.296 30.5929C192.282 30.62 192.261 30.6424 192.234 30.6577C192.208 30.6729 192.178 30.6803 192.147 30.679Z" fill="#263238"/>
<path d="M157.691 129.58C157.013 129.448 155.843 129.138 155.584 128.541C155.542 128.434 155.528 128.319 155.543 128.205C155.558 128.092 155.602 127.984 155.67 127.892C155.702 127.832 155.75 127.781 155.809 127.746C155.868 127.711 155.935 127.692 156.003 127.691C156.652 127.691 157.668 129.264 157.777 129.448C157.786 129.461 157.791 129.477 157.791 129.494C157.791 129.51 157.786 129.526 157.777 129.54C157.767 129.553 157.754 129.564 157.739 129.571C157.724 129.578 157.707 129.581 157.691 129.58ZM155.969 127.858C155.93 127.858 155.892 127.869 155.858 127.889C155.825 127.91 155.798 127.938 155.779 127.973C155.728 128.042 155.695 128.123 155.683 128.208C155.671 128.293 155.68 128.38 155.711 128.461C155.865 128.811 156.52 129.138 157.484 129.35C157.117 128.816 156.388 127.858 155.969 127.858Z" fill="#1CAF86"/>
<path d="M157.69 129.579C157.677 129.579 157.664 129.576 157.652 129.57C157.64 129.564 157.63 129.555 157.622 129.545C157.249 129.034 156.916 127.668 157.237 127.215C157.29 127.141 157.367 127.088 157.455 127.064C157.543 127.041 157.637 127.05 157.719 127.088C157.806 127.112 157.886 127.155 157.952 127.215C158.019 127.275 158.071 127.349 158.104 127.433C158.408 128.11 157.8 129.47 157.771 129.528C157.764 129.541 157.755 129.553 157.743 129.562C157.731 129.571 157.717 129.577 157.702 129.579H157.69ZM157.541 127.232C157.508 127.231 157.476 127.238 157.447 127.253C157.417 127.268 157.393 127.29 157.375 127.318C157.134 127.657 157.375 128.77 157.679 129.304C157.823 128.931 158.161 127.99 157.943 127.507C157.919 127.446 157.881 127.392 157.832 127.348C157.783 127.304 157.725 127.272 157.662 127.255C157.623 127.24 157.582 127.232 157.541 127.232Z" fill="#1CAF86"/>
<path d="M198.898 31.0466L197.848 30.9375C197.848 30.9375 198.502 31.6206 198.898 31.0466Z" fill="#263238"/>
<path d="M213.029 79.544L213.195 81.4382C213.27 81.5874 213.097 81.7367 212.851 81.7367H191.383C191.194 81.7367 191.033 81.6448 191.021 81.5243L190.832 79.6244C190.832 79.4923 190.987 79.3833 191.194 79.3833H212.678C212.746 79.3775 212.813 79.3893 212.875 79.4174C212.936 79.4456 212.989 79.4892 213.029 79.544Z" fill="#1CAF86"/>
<path opacity="0.2" d="M213.029 79.544L213.195 81.4382C213.27 81.5874 213.097 81.7367 212.851 81.7367H191.383C191.194 81.7367 191.033 81.6448 191.021 81.5243L190.832 79.6244C190.832 79.4923 190.987 79.3833 191.194 79.3833H212.678C212.746 79.3775 212.813 79.3893 212.875 79.4174C212.936 79.4456 212.989 79.4892 213.029 79.544Z" fill="#FAFAFA"/>
<path d="M210.142 81.9432H210.716C210.831 81.9432 210.917 81.8858 210.912 81.8112L210.642 79.343C210.642 79.2741 210.533 79.2109 210.418 79.2109H209.844C209.729 79.2109 209.643 79.2741 209.649 79.343L209.918 81.8112C209.924 81.8858 210.028 81.9432 210.142 81.9432Z" fill="#1CAF86"/>
<path opacity="0.6" d="M210.142 81.9432H210.716C210.831 81.9432 210.917 81.8858 210.912 81.8112L210.642 79.343C210.642 79.2741 210.533 79.2109 210.418 79.2109H209.844C209.729 79.2109 209.643 79.2741 209.649 79.343L209.918 81.8112C209.924 81.8858 210.028 81.9432 210.142 81.9432Z" fill="black"/>
<path d="M193.004 81.9432H193.578C193.692 81.9432 193.784 81.8858 193.773 81.8112L193.503 79.343C193.503 79.2741 193.394 79.2109 193.279 79.2109H192.705C192.59 79.2109 192.504 79.2741 192.51 79.343L192.78 81.8112C192.791 81.8858 192.866 81.9432 193.004 81.9432Z" fill="#1CAF86"/>
<path opacity="0.6" d="M193.004 81.9432H193.578C193.692 81.9432 193.784 81.8858 193.773 81.8112L193.503 79.343C193.503 79.2741 193.394 79.2109 193.279 79.2109H192.705C192.59 79.2109 192.504 79.2741 192.51 79.343L192.78 81.8112C192.791 81.8858 192.866 81.9432 193.004 81.9432Z" fill="black"/>
<path d="M201.574 81.9432H202.148C202.263 81.9432 202.349 81.8858 202.343 81.8112L202.073 79.343C202.073 79.2741 201.964 79.2109 201.85 79.2109H201.276C201.161 79.2109 201.075 79.2741 201.08 79.343L201.35 81.8112C201.362 81.8858 201.476 81.9432 201.574 81.9432Z" fill="#1CAF86"/>
<path opacity="0.6" d="M201.574 81.9432H202.148C202.263 81.9432 202.349 81.8858 202.343 81.8112L202.073 79.343C202.073 79.2741 201.964 79.2109 201.85 79.2109H201.276C201.161 79.2109 201.075 79.2741 201.08 79.343L201.35 81.8112C201.362 81.8858 201.476 81.9432 201.574 81.9432Z" fill="black"/>
<path d="M211.479 57.3301L214.217 59.6605C213.643 62.7601 213.241 65.3431 212.989 67.6391C212.478 65.3374 211.175 59.121 211.479 57.3301Z" fill="#1CAF86"/>
<path opacity="0.3" d="M211.479 57.3301L214.217 59.6605C213.643 62.7601 213.241 65.3431 212.989 67.6391C212.478 65.3374 211.175 59.121 211.479 57.3301Z" fill="#FAFAFA"/>
<path d="M153.471 66.124H190.712L196.107 88.1082H158.872L153.471 66.124Z" fill="#FAFAFA"/>
<path d="M172.34 84.0156L195.116 89.3251L209.73 85.2325L209.581 84.0156H172.34Z" fill="#FAFAFA"/>
<path d="M152.33 66.124H189.565L194.961 88.1082H157.726L152.33 66.124Z" fill="#1CAF86"/>
<path opacity="0.2" d="M152.33 66.124H189.565L194.961 88.1082H157.726L152.33 66.124Z" fill="#FAFAFA"/>
<path d="M157.725 88.1084L157.874 89.3253H195.115L194.96 88.1084H157.725Z" fill="#1CAF86"/>
<path opacity="0.2" d="M157.725 88.1084L157.874 89.3253H195.115L194.96 88.1084H157.725Z" fill="#FAFAFA"/>
<path d="M218.472 54.9365C219.527 58.0198 220.42 61.1562 221.147 64.3329C221.525 65.9286 221.841 67.5416 222.082 69.2176C222.203 70.0557 222.3 70.9109 222.352 71.8064C222.352 72.2541 222.386 72.7133 222.352 73.1955V73.5686V73.7695L222.323 74.045C222.281 74.4017 222.204 74.7534 222.094 75.0954C221.702 76.2183 221.035 77.2248 220.154 78.0228C219.45 78.6746 218.68 79.2517 217.858 79.7448C216.377 80.6236 214.819 81.3634 213.202 81.9547C211.635 82.5287 210.057 83.0166 208.478 83.4471C206.9 83.8776 205.321 84.2105 203.674 84.4746L203.025 81.8514C204.466 81.3233 205.953 80.7665 207.376 80.1294C208.8 79.4922 210.246 78.9068 211.578 78.2122C212.894 77.5641 214.156 76.8096 215.349 75.9564C215.87 75.5838 216.35 75.1587 216.784 74.6879C217.075 74.3947 217.291 74.0366 217.416 73.6432C217.419 73.1574 217.386 72.672 217.318 72.191C217.232 71.4964 217.106 70.7732 216.968 70.0385C216.675 68.5748 216.296 67.0824 215.917 65.5842C215.539 64.0861 215.085 62.5879 214.637 61.0955C214.19 59.6031 213.73 58.0878 213.283 56.6298L218.472 54.9365Z" fill="#E4897B"/>
<path d="M216.467 49.1051C218.596 49.7479 221.851 58.0939 221.851 58.0939L213.603 63.9889C213.603 63.9889 209.895 56.8541 210.784 54.1103C211.714 51.2461 214.045 48.3646 216.467 49.1051Z" fill="#1CAF86"/>
<path opacity="0.6" d="M216.467 49.1051C218.596 49.7479 221.851 58.0939 221.851 58.0939L213.603 63.9889C213.603 63.9889 209.895 56.8541 210.784 54.1103C211.714 51.2461 214.045 48.3646 216.467 49.1051Z" fill="#FAFAFA"/>
<path d="M204.11 82.0412L199.18 80.7842L201.539 85.5484C201.539 85.5484 204.891 85.6919 205.999 83.8264L204.11 82.0412Z" fill="#E4897B"/>
<path d="M195.156 82.5972L197.343 86.4717L201.516 85.5475L199.157 80.7891L195.156 82.5972Z" fill="#E4897B"/>
</svg>
