<svg width="134" height="34" viewBox="0 0 134 34" fill="none" xmlns="http://www.w3.org/2000/svg">
<g clip-path="url(#clip0_246_1564)">
<path d="M44.7907 13.5812H41.1367V11.4183H51.0869V13.5812H47.433V22.8869H44.7907V13.5812ZM53.5903 15.2358C53.8946 14.8098 54.3026 14.4875 54.8135 14.2689C55.3354 14.0508 55.9335 13.9413 56.6077 13.9413V16.3008C56.3253 16.2788 56.1348 16.2679 56.0368 16.2679C55.3083 16.2679 54.7374 16.4754 54.3241 16.8905C53.9108 17.2946 53.7042 17.9062 53.7042 18.7254V22.8869H51.1596V14.0724H53.5903V15.2358ZM66.0473 14.0724V22.8869H63.6328V21.8382C63.2957 22.2203 62.8934 22.5154 62.4258 22.7229C61.9582 22.9195 61.4525 23.0179 60.9088 23.0179C59.756 23.0179 58.8427 22.6847 58.1685 22.0185C57.4942 21.3523 57.1571 20.3638 57.1571 19.053V14.0724H59.7017V18.6762C59.7017 20.0961 60.2945 20.8062 61.4797 20.8062C62.0887 20.8062 62.5781 20.6096 62.948 20.2161C63.3176 19.812 63.5024 19.217 63.5024 18.4304V14.0724H66.0473ZM70.3787 23.0179C69.6498 23.0179 68.9375 22.9304 68.2417 22.7558C67.5456 22.5699 66.991 22.3408 66.5777 22.0677L67.4261 20.2328C67.8175 20.4839 68.2904 20.6914 68.8451 20.855C69.3998 21.008 69.9435 21.0845 70.4764 21.0845C71.553 21.0845 72.0914 20.8171 72.0914 20.2816C72.0914 20.0305 71.9444 19.8503 71.651 19.7412C71.3572 19.6321 70.9059 19.5389 70.2969 19.4625C69.5793 19.3534 68.9865 19.2276 68.5189 19.086C68.0513 18.9439 67.6437 18.6925 67.2956 18.3323C66.9585 17.9718 66.79 17.4586 66.79 16.792C66.79 16.2353 66.9476 15.7437 67.2628 15.3176C67.589 14.8806 68.0566 14.542 68.6656 14.3019C69.2855 14.0618 70.0141 13.9413 70.8516 13.9413C71.4715 13.9413 72.0858 14.0125 72.6948 14.1546C73.3147 14.2856 73.826 14.4712 74.2284 14.7113L73.3799 16.5299C72.608 16.0933 71.7652 15.8747 70.8516 15.8747C70.3078 15.8747 69.9002 15.9512 69.6283 16.1039C69.3564 16.2569 69.2203 16.4534 69.2203 16.6939C69.2203 16.967 69.3673 17.1579 69.6607 17.2673C69.9545 17.3764 70.4221 17.4802 71.0635 17.5786C71.7815 17.6987 72.3686 17.8297 72.8252 17.9718C73.2823 18.1028 73.679 18.3486 74.0161 18.7091C74.3532 19.0693 74.5218 19.5719 74.5218 20.2161C74.5218 20.7622 74.3588 21.2485 74.0327 21.6742C73.7061 22.1003 73.2276 22.4336 72.5971 22.6737C71.9772 22.9032 71.2377 23.0179 70.3787 23.0179ZM80.7736 22.4608C80.5235 22.6464 80.2136 22.7884 79.8437 22.8869C79.4851 22.974 79.1042 23.0179 78.7019 23.0179C77.6581 23.0179 76.8477 22.7502 76.2715 22.215C75.7059 21.6799 75.4231 20.8933 75.4231 19.8559V16.2353H74.0693V14.2689H75.4231V12.1231H77.9677V14.2689H80.1536V16.2353H77.9677V19.823C77.9677 20.1945 78.0604 20.4839 78.2452 20.6914C78.4409 20.888 78.7128 20.9864 79.0608 20.9864C79.4632 20.9864 79.8056 20.877 80.0884 20.6585L80.7736 22.4608ZM102.302 11.4183L98.5667 22.8869H95.7283L93.2162 15.1211L90.6226 22.8869H87.8005L84.0488 11.4183H86.7891L89.3665 19.4791L92.0581 11.4183H94.5047L97.1149 19.5446L99.7737 11.4183H102.302ZM105.506 13.9413C106.865 13.9413 107.909 14.2689 108.638 14.9245C109.366 15.5687 109.731 16.5462 109.731 17.857V22.8869H107.349V21.789C106.871 22.6082 105.979 23.0179 104.674 23.0179C104 23.0179 103.413 22.9032 102.912 22.6737C102.423 22.4445 102.047 22.1276 101.787 21.7235C101.526 21.3193 101.395 20.8607 101.395 20.3472C101.395 19.5283 101.7 18.8837 102.309 18.4141C102.928 17.9445 103.88 17.7097 105.163 17.7097H107.186C107.186 17.1526 107.017 16.7265 106.68 16.4318C106.343 16.1258 105.838 15.9728 105.163 15.9728C104.696 15.9728 104.233 16.0493 103.777 16.2023C103.331 16.3444 102.95 16.5409 102.635 16.792L101.721 15.0063C102.2 14.6677 102.771 14.4057 103.434 14.2201C104.108 14.0341 104.799 13.9413 105.506 13.9413ZM105.31 21.2974C105.745 21.2974 106.131 21.1993 106.468 21.0027C106.806 20.7952 107.045 20.4948 107.186 20.1017V19.2004H105.44C104.397 19.2004 103.874 19.5446 103.874 20.2328C103.874 20.5604 104 20.8225 104.25 21.019C104.511 21.2046 104.864 21.2974 105.31 21.2974ZM111.055 10.7305H113.6V22.8869H111.055V10.7305ZM114.983 10.7305H117.528V22.8869H114.983V10.7305ZM127.507 18.5122C127.507 18.5452 127.491 18.7747 127.458 19.2004H120.819C120.939 19.7465 121.221 20.1779 121.667 20.4948C122.113 20.8115 122.668 20.9698 123.331 20.9698C123.788 20.9698 124.19 20.9043 124.538 20.7732C124.897 20.6312 125.229 20.413 125.533 20.118L126.887 21.5924C126.061 22.5426 124.854 23.0179 123.266 23.0179C122.276 23.0179 121.401 22.8267 120.64 22.4445C119.878 22.0511 119.291 21.5106 118.878 20.8224C118.465 20.1343 118.258 19.3534 118.258 18.4796C118.258 17.6169 118.459 16.8413 118.862 16.1531C119.275 15.4543 119.835 14.9135 120.542 14.5314C121.26 14.1379 122.059 13.9413 122.939 13.9413C123.799 13.9413 124.576 14.1273 125.272 14.4984C125.968 14.87 126.512 15.4051 126.903 16.1039C127.306 16.792 127.507 17.5949 127.507 18.5122ZM122.956 15.8747C122.38 15.8747 121.896 16.0384 121.504 16.3663C121.113 16.6939 120.873 17.1416 120.786 17.7097H125.109C125.022 17.1526 124.783 16.7102 124.391 16.3826C124 16.044 123.521 15.8747 122.956 15.8747ZM133.883 22.4608C133.633 22.6464 133.323 22.7884 132.953 22.8869C132.594 22.974 132.214 23.0179 131.811 23.0179C130.767 23.0179 129.957 22.7502 129.381 22.215C128.815 21.6799 128.533 20.8933 128.533 19.8559V16.2353H127.178V14.2689H128.533V12.1231H131.077V14.2689H133.263V16.2353H131.077V19.823C131.077 20.1945 131.17 20.4839 131.354 20.6914C131.55 20.888 131.822 20.9864 132.17 20.9864C132.572 20.9864 132.915 20.877 133.198 20.6585L133.883 22.4608Z" fill="white" fill-opacity="0.7"/>
<path d="M22.5339 0H11.4776C5.13871 0 0 5.16108 0 11.5276V22.632C0 28.9985 5.13871 34.1595 11.4776 34.1595H22.5339C28.8728 34.1595 34.0115 28.9985 34.0115 22.632V11.5276C34.0115 5.16108 28.8728 0 22.5339 0Z" fill="white" fill-opacity="0.7"/>
<path d="M0.353516 17.1774C0.353516 7.88638 7.85276 0.354492 17.1035 0.354492C26.3545 0.354492 33.8535 7.88638 33.8535 17.1774C33.8535 26.4686 26.3545 34.0003 17.1035 34.0003C7.85276 34.0003 0.353516 26.4686 0.353516 17.1774Z" fill="white" fill-opacity="0.7"/>
<path fill-rule="evenodd" clip-rule="evenodd" d="M16.0189 5.80351C16.6519 5.27252 17.5715 5.27253 18.2045 5.80353C20.9276 8.08789 24.0347 8.07253 25.3044 8.06625C25.3658 8.06595 25.4229 8.06567 25.4754 8.06567C25.9326 8.06567 26.3706 8.25024 26.6914 8.57804C27.0122 8.90583 27.189 9.34945 27.1821 9.8095C27.1213 13.8547 26.9598 16.7741 26.6366 18.9325C26.3138 21.0889 25.8077 22.6531 24.9405 23.8636C24.0646 25.0862 22.943 25.7667 21.8562 26.37C21.6641 26.4766 21.4701 26.5823 21.2732 26.6896C20.33 27.2036 19.3171 27.7556 18.1052 28.6288C17.5111 29.0568 16.7123 29.0568 16.1182 28.6288C14.9074 27.7564 13.8959 27.2047 12.9542 26.6911C12.7562 26.5831 12.5613 26.4768 12.3683 26.3696C11.2821 25.7661 10.1618 25.0852 9.28757 23.8621C8.42223 22.6515 7.91795 21.0874 7.59636 18.9316C7.27444 16.7736 7.1137 13.8545 7.05293 9.8095C7.04602 9.34945 7.22276 8.90583 7.54356 8.57804C7.86436 8.25024 8.30241 8.06567 8.75956 8.06567C8.81153 8.06567 8.86808 8.06595 8.92895 8.06626C10.188 8.07255 13.2954 8.08807 16.0189 5.80351ZM10.4997 11.4621C10.5766 14.5665 10.7284 16.7874 10.9722 18.4215C11.2587 20.3425 11.6507 21.285 12.0586 21.8557C12.4577 22.414 12.9878 22.7893 14.0181 23.3618C14.1825 23.4531 14.3576 23.5485 14.5429 23.6494C15.2591 24.0393 16.1272 24.5119 17.1117 25.1539C18.0979 24.5109 18.9674 24.0379 19.6849 23.6476C19.8694 23.5472 20.0439 23.4523 20.2077 23.3614C21.2395 22.7887 21.7712 22.413 22.1716 21.8542C22.5805 21.2833 22.9736 20.341 23.2611 18.4206C23.5057 16.7869 23.6581 14.5665 23.7352 11.4627C22.0588 11.3431 19.547 10.8941 17.1117 9.26347C14.6801 10.8917 12.1726 11.3418 10.4997 11.4621Z" fill="#505050" fill-opacity="0.7"/>
</g>
<defs>
<clipPath id="clip0_246_1564">
<rect width="134" height="34" fill="white"/>
</clipPath>
</defs>
</svg>
