<svg width="24" height="24" viewBox="0 0 24 24" fill="none" xmlns="http://www.w3.org/2000/svg">
<path d="M2.70285 1.12667V2.6572H4.29851L7.39213 10.9937H8.98779L12.0814 2.6572H13.6445V1.12667H10.8114L8.27137 8.35597L5.76391 1.12667H2.70285Z" fill="#1CAF86"/>
<path d="M21.3948 2.91771V4.51337H23.0556V2.13616C22.4043 1.53915 20.6003 0.442813 18.5943 0.833587C16.0868 1.32205 13.8073 3.37361 14.0678 6.23928C14.3284 9.10495 16.6404 10.7332 18.0407 10.9937C19.441 11.2542 21.6879 11.2216 23.251 9.13752L22.0461 8.19315C21.6879 8.64905 20.6784 9.54783 19.5061 9.49572C18.0407 9.4306 16.673 9.10495 15.924 6.69518C15.8155 5.81595 15.9566 3.82952 17.3894 2.91771C19.1805 1.77795 21.0041 2.55951 21.3948 2.91771Z" fill="#1CAF86"/>
<path d="M13.0909 13.1755V14.6409H14.5889V19.9163C14.6323 20.9584 15.3248 23.0751 17.7476 23.2054C18.4966 23.3573 20.2355 23.1923 21.1995 21.3166V22.9774H24V21.3166H22.73V13.1755H19.213V14.6409H20.8738V18.972C20.7761 19.8404 20.1444 21.5967 18.3989 21.6748C16.2171 21.7725 16.3148 19.2976 16.2497 18.972C16.1976 18.7115 16.228 14.9991 16.2497 13.1755H13.0909Z" fill="#1CAF86"/>
<path d="M3.4844 22.9774V21.3166H5.08005V14.6409H3.4844V13.1755H6.54545V15.1294C6.91452 14.4781 8.01737 13.1755 9.47626 13.1755H11.137V16.1063H9.57395V14.6409C8.80326 14.6301 7.15115 15.1359 6.70828 17.2461V21.3166H10.9742V22.9774H3.4844Z" fill="#1CAF86"/>
<path d="M0 21.3166V22.9774H1.62822V21.3166H0Z" fill="#1CAF86"/>
</svg>
