<svg width="24" height="24" viewBox="0 0 24 24" fill="none" xmlns="http://www.w3.org/2000/svg">
<g clip-path="url(#clip0_42_504)">
<path d="M12.0005 0.479858C5.63807 0.479858 0.480469 5.63746 0.480469 11.9999C0.480469 18.3623 5.63807 23.5199 12.0005 23.5199C18.3629 23.5199 23.5205 18.3623 23.5205 11.9999C23.5205 5.63746 18.3629 0.479858 12.0005 0.479858ZM16.4309 13.4771C16.4309 13.4771 17.4497 14.4827 17.7005 14.9495C17.7077 14.9591 17.7113 14.9687 17.7137 14.9735C17.8157 15.1451 17.8397 15.2783 17.7893 15.3779C17.7053 15.5435 17.4173 15.6251 17.3189 15.6323H15.5189C15.3941 15.6323 15.1325 15.5999 14.8157 15.3815C14.5721 15.2111 14.3321 14.9315 14.0981 14.6591C13.7489 14.2535 13.4465 13.9031 13.1417 13.9031C13.103 13.903 13.0645 13.9091 13.0277 13.9211C12.7973 13.9955 12.5021 14.3243 12.5021 15.2003C12.5021 15.4739 12.2861 15.6311 12.1337 15.6311H11.3093C11.0285 15.6311 9.56567 15.5327 8.26967 14.1659C6.68327 12.4919 5.25527 9.13426 5.24327 9.10306C5.15327 8.88586 5.33927 8.76946 5.54207 8.76946H7.36007C7.60247 8.76946 7.68167 8.91706 7.73687 9.04786C7.80167 9.20026 8.03927 9.80626 8.42927 10.4879C9.06167 11.5991 9.44927 12.0503 9.76007 12.0503C9.81835 12.0496 9.87559 12.0347 9.92687 12.0071C10.3325 11.7815 10.2569 10.3355 10.2389 10.0355C10.2389 9.97906 10.2377 9.38866 10.0301 9.10546C9.88127 8.90026 9.62807 8.82226 9.47447 8.79346C9.53664 8.70767 9.61855 8.63811 9.71327 8.59066C9.99167 8.45146 10.4933 8.43106 10.9913 8.43106H11.2685C11.8085 8.43826 11.9477 8.47306 12.1433 8.52226C12.5393 8.61706 12.5477 8.87266 12.5129 9.74746C12.5021 9.99586 12.4913 10.2767 12.4913 10.6079C12.4913 10.6799 12.4877 10.7567 12.4877 10.8383C12.4757 11.2835 12.4613 11.7887 12.7757 11.9963C12.8167 12.022 12.8641 12.0357 12.9125 12.0359C13.0217 12.0359 13.3505 12.0359 14.2409 10.5083C14.5155 10.0166 14.7541 9.50563 14.9549 8.97946C14.9729 8.94826 15.0257 8.85226 15.0881 8.81506C15.1341 8.79158 15.1852 8.77964 15.2369 8.78026H17.3741C17.6069 8.78026 17.7665 8.81506 17.7965 8.90506C17.8493 9.04786 17.7869 9.48346 16.8113 10.8047L16.3757 11.3795C15.4913 12.5387 15.4913 12.5975 16.4309 13.4771Z" fill="#1CAF86"/>
</g>
<defs>
<clipPath id="clip0_42_504">
<rect width="24" height="24" fill="white"/>
</clipPath>
</defs>
</svg>
