<svg width="25" height="24" viewBox="0 0 25 24" fill="none" xmlns="http://www.w3.org/2000/svg">
<path fill-rule="evenodd" clip-rule="evenodd" d="M21.6818 3H3.31818C2.31403 3 1.5 3.89543 1.5 5V17C1.5 18.1046 2.31403 19 3.31818 19H14.5V17H3.5V10H21.5V13H23.5V5C23.5 3.89543 22.686 3 21.6818 3ZM21.5 8V5H3.5V8H21.5Z" fill="#1CAF86"/>
<path d="M18.18 20.04H16.5M16.5 20.04C16.5 20.04 17.9 22 20 22C21.9331 22 23.5 20.6 23.5 18.92M16.5 20.04V22M21.82 16.96H23.5M23.5 16.96C23.5 16.96 22.1 15 20 15C18.0669 15 16.5 16.4 16.5 18.08M23.5 16.96V15" stroke="#1CAF86" stroke-width="1.4" stroke-linecap="square"/>
</svg>
