<svg width="11" height="11" viewBox="0 0 11 11" fill="none" xmlns="http://www.w3.org/2000/svg">
<path fill-rule="evenodd" clip-rule="evenodd" d="M5.06836 10.2734C2.26918 10.2734 0 8.00426 0 5.20508C0 2.4059 2.26918 0.136719 5.06836 0.136719C7.86754 0.136719 10.1367 2.4059 10.1367 5.20508C10.1367 8.00426 7.86754 10.2734 5.06836 10.2734ZM5.06921 9.35218C7.35944 9.35218 9.21605 7.49558 9.21605 5.20534C9.21605 2.91511 7.35944 1.0585 5.06921 1.0585C2.77897 1.0585 0.922367 2.91511 0.922367 5.20534C0.922367 7.49558 2.77897 9.35218 5.06921 9.35218ZM3.55148 7.37428L5.06871 5.85704L6.58595 7.37428L7.23756 6.72266L5.72032 5.20543L7.23756 3.6882L6.58595 3.03658L5.06871 4.55382L3.55148 3.03658L2.89987 3.6882L4.4171 5.20543L2.89987 6.72266L3.55148 7.37428Z" fill="#E44E6B"/>
</svg>
