<svg width="11" height="11" viewBox="0 0 11 11" fill="none" xmlns="http://www.w3.org/2000/svg">
<g clip-path="url(#clip0_42_247)">
<path d="M4.6636 6.78578L3.07922 5.20108L3.52697 4.75334L4.6636 5.88965L7.0671 3.48584L7.51547 3.93422L4.6636 6.78578Z" fill="#1CAF86"/>
<path d="M5.29673 0.633789C4.41932 0.633789 3.56161 0.893971 2.83208 1.38143C2.10254 1.86889 1.53393 2.56174 1.19817 3.37236C0.862396 4.18298 0.774543 5.07496 0.945717 5.93551C1.11689 6.79606 1.5394 7.58652 2.15982 8.20694C2.78024 8.82736 3.57071 9.24987 4.43126 9.42105C5.2918 9.59222 6.18379 9.50437 6.99441 9.1686C7.80502 8.83283 8.49787 8.26423 8.98533 7.53469C9.47279 6.80515 9.73298 5.94745 9.73298 5.07004C9.73298 3.89347 9.26559 2.76509 8.43363 1.93314C7.60167 1.10118 6.47329 0.633789 5.29673 0.633789ZM5.29673 8.87254C4.54466 8.87254 3.80949 8.64953 3.18417 8.2317C2.55885 7.81388 2.07148 7.22001 1.78367 6.52519C1.49587 5.83038 1.42057 5.06582 1.56729 4.32821C1.71401 3.5906 2.07616 2.91305 2.60795 2.38127C3.13974 1.84948 3.81728 1.48732 4.55489 1.3406C5.29251 1.19388 6.05706 1.26918 6.75188 1.55699C7.4467 1.84479 8.04056 2.33217 8.45839 2.95748C8.87621 3.5828 9.09923 4.31798 9.09923 5.07004C9.09923 6.07853 8.69861 7.04571 7.9855 7.75881C7.27239 8.47192 6.30521 8.87254 5.29673 8.87254Z" fill="#1CAF86"/>
</g>
<defs>
<clipPath id="clip0_42_247">
<rect width="10.14" height="10.14" fill="white" transform="translate(0.227661)"/>
</clipPath>
</defs>
</svg>
