<svg width="20" height="20" viewBox="0 0 30 30" fill="none" xmlns="http://www.w3.org/2000/svg">
<path d="M29.5496 18.6351C28.8314 21.5133 27.2759 24.114 25.0799 26.1082C22.8839 28.1024 20.146 29.4005 17.2123 29.8385C14.2787 30.2765 11.281 29.8347 8.59846 28.5689C5.91587 27.3031 3.66881 25.2701 2.14139 22.7271C0.613972 20.1841 -0.125203 17.2453 0.0173307 14.2821C0.159864 11.319 1.1777 8.46466 2.94215 6.08005C4.7066 3.69544 7.13841 1.88763 9.9301 0.88522C12.7218 -0.117192 15.748 -0.269193 18.6261 0.448436C20.5374 0.925024 22.3362 1.77352 23.9196 2.94548C25.5031 4.11743 26.8402 5.58987 27.8545 7.27871C28.8689 8.96756 29.5407 10.8397 29.8316 12.7883C30.1224 14.7368 30.0266 16.7236 29.5496 18.6351Z" fill="#F7931A"/>
<path d="M21.6123 12.8689C21.9097 10.8722 20.39 9.7964 18.312 9.08328L18.9884 6.37749L17.3586 5.96999L16.7026 8.59835L15.3825 8.28866L16.0425 5.63992L14.4128 5.23242L13.7405 7.93821C13.3819 7.85263 13.0315 7.77521 12.6893 7.68963L10.3872 7.11099L9.95128 8.8673C9.95128 8.8673 11.1736 9.14848 11.1451 9.16478C11.3731 9.1914 11.5814 9.30689 11.7248 9.48617C11.8682 9.66546 11.9352 9.89407 11.9111 10.1224L11.141 13.2153L10.0654 17.5226C10.0434 17.5993 10.0064 17.6709 9.9564 17.7332C9.90641 17.7954 9.84448 17.847 9.77426 17.885C9.70403 17.923 9.62693 17.9465 9.54747 17.9543C9.46802 17.962 9.38782 17.9538 9.31159 17.9301C9.31159 17.9545 8.11371 17.6326 8.11371 17.6326L7.29883 19.5152L9.44198 20.0531C9.84942 20.1509 10.2283 20.2569 10.6113 20.3547L9.93091 23.089L11.5607 23.4965L12.2493 20.7825C12.7015 20.9048 13.1375 21.0148 13.5612 21.1208L12.8889 23.8143L14.5187 24.2218L15.1991 21.4916C18.0064 22.0213 20.117 21.8094 21.0052 19.2707C21.7223 17.2332 20.9726 16.0474 19.4936 15.2772C20.5692 15.0287 21.38 14.3196 21.596 12.8608L21.6123 12.8689ZM17.8516 18.142C17.3423 20.1794 13.8994 19.0833 12.7871 18.8021L13.6875 15.1794C14.8039 15.4565 18.3813 15.9944 17.8516 18.142ZM18.3609 12.8445C17.8964 14.7067 15.0321 13.7614 14.1031 13.5291L14.918 10.2406C15.851 10.4647 18.8458 10.8966 18.3609 12.8363V12.8445Z" fill="white"/>
</svg>
