<svg width="20" height="20" viewBox="0 0 30 30" fill="none" xmlns="http://www.w3.org/2000/svg">
<g clip-path="url(#clip0_276_1870)">
<path d="M29.6081 18.3923C31.4815 10.3226 26.4585 2.26218 18.3888 0.388767C10.3192 -1.48465 2.2587 3.5384 0.385284 11.6081C-1.48813 19.6777 3.53492 27.7382 11.6046 29.6116C19.6742 31.485 27.7347 26.462 29.6081 18.3923Z" fill="#627EEA"/>
<path d="M15.4805 3.75195V12.0667L22.512 15.2077L15.4805 3.75195Z" fill="white" fill-opacity="0.602"/>
<path d="M15.4803 3.75195L8.43652 15.2077L15.4803 12.0667V3.75195Z" fill="white"/>
<path d="M15.4805 20.5974V26.2479L22.4998 16.5154L15.4805 20.5974Z" fill="white" fill-opacity="0.602"/>
<path d="M15.4806 26.2479V20.5934L8.45312 16.5195L15.4806 26.2479Z" fill="white"/>
<path d="M15.4805 19.2856L22.512 15.2117L15.4805 12.0667V19.2856Z" fill="white" fill-opacity="0.2"/>
<path d="M8.43652 15.2076L15.4803 19.2856V12.0667L8.43652 15.2076Z" fill="white" fill-opacity="0.602"/>
</g>
<defs>
<clipPath id="clip0_276_1870">
<rect width="29.9959" height="30" fill="white"/>
</clipPath>
</defs>
</svg>
